<svg width="500" height="500" viewBox="0 0 500 500" fill="none" xmlns="http://www.w3.org/2000/svg">
<path d="M359.375 492.188H140.625C127.734 492.188 117.188 481.641 117.188 468.75C117.188 401.953 174.297 351.562 250 351.562C325.703 351.562 382.812 401.953 382.812 468.75C382.812 481.641 372.266 492.188 359.375 492.188ZM250 367.188C183.203 367.188 132.812 410.859 132.812 468.75C132.812 473.047 136.328 476.562 140.625 476.562H359.375C363.672 476.562 367.188 473.047 367.188 468.75C367.188 410.859 316.797 367.188 250 367.188ZM250 335.938C215.547 335.938 187.5 307.891 187.5 273.438C187.5 238.984 215.547 210.938 250 210.938C284.453 210.938 312.5 238.984 312.5 273.438C312.5 307.891 284.453 335.938 250 335.938ZM250 226.562C224.141 226.562 203.125 247.578 203.125 273.438C203.125 299.297 224.141 320.312 250 320.312C275.859 320.312 296.875 299.297 296.875 273.438C296.875 247.578 275.859 226.562 250 226.562Z" fill="white"/>
<path d="M476.562 492.187H406.25C401.953 492.187 398.438 488.672 398.438 484.375C398.438 480.078 401.953 476.562 406.25 476.562H476.562C480.859 476.562 484.375 473.047 484.375 468.75C484.375 411.719 450.234 382.812 382.812 382.812C377.656 382.812 372.578 382.969 367.734 383.359C363.437 383.672 359.687 380.391 359.375 376.094C359.063 371.797 362.344 368.047 366.641 367.734C371.875 367.344 377.266 367.187 382.812 367.187C459.453 367.187 500 402.344 500 468.75C500 481.641 489.453 492.187 476.562 492.187ZM382.812 351.562C352.656 351.562 328.125 327.031 328.125 296.875C328.125 266.719 352.656 242.187 382.812 242.187C412.969 242.187 437.5 266.719 437.5 296.875C437.5 327.031 412.969 351.562 382.812 351.562ZM382.812 257.812C361.25 257.812 343.75 275.312 343.75 296.875C343.75 318.437 361.25 335.937 382.812 335.937C404.375 335.937 421.875 318.437 421.875 296.875C421.875 275.312 404.375 257.812 382.812 257.812ZM117.188 351.562C87.0313 351.562 62.5 327.031 62.5 296.875C62.5 266.719 87.0313 242.187 117.188 242.187C147.344 242.187 171.875 266.719 171.875 296.875C171.875 327.031 147.344 351.562 117.188 351.562ZM117.188 257.812C95.625 257.812 78.125 275.312 78.125 296.875C78.125 318.437 95.625 335.937 117.188 335.937C138.75 335.937 156.25 318.437 156.25 296.875C156.25 275.312 138.75 257.812 117.188 257.812ZM93.75 492.187H23.4375C10.5469 492.187 0 481.641 0 468.75C0 402.344 40.5469 367.187 117.188 367.187C125.703 367.187 133.906 367.656 141.484 368.516C145.781 368.984 148.828 372.891 148.359 377.187C147.891 381.484 143.984 384.609 139.687 384.062C132.656 383.281 125.078 382.812 117.109 382.812C49.6875 382.812 15.5469 411.719 15.5469 468.75C15.5469 473.047 19.0625 476.562 23.3594 476.562H93.6719C97.9687 476.562 101.484 480.078 101.484 484.375C101.484 488.672 97.9687 492.187 93.6719 492.187H93.75ZM224.297 148.438C223.203 148.438 222.109 148.203 221.016 147.734L195.312 135.859L169.609 147.734C166.953 148.984 163.828 148.594 161.484 146.797C160.351 145.908 159.487 144.72 158.991 143.368C158.494 142.016 158.384 140.552 158.672 139.141L163.359 115.391L143.359 98.3594C141.016 96.3281 140.078 93.125 140.938 90.1562C141.797 87.1875 144.375 85 147.422 84.6094L175.938 81.0156L188.516 58.75C191.25 53.8281 199.375 53.8281 202.109 58.75L214.687 81.0156L243.203 84.6094C246.25 85 248.828 87.1875 249.687 90.1562C250.547 93.125 249.687 96.3281 247.266 98.3594L227.266 115.391L231.953 139.141C232.5 142.031 231.406 145 229.141 146.797C227.734 147.891 226.016 148.438 224.297 148.438ZM195.312 119.453C196.406 119.453 197.578 119.688 198.594 120.156L213.672 127.109L211.094 113.828C210.547 111.094 211.563 108.203 213.672 106.406L223.672 97.8125L208.75 95.9375C206.328 95.625 204.141 94.1406 202.969 92.0312L195.312 78.4375L187.656 92.0312C186.484 94.2187 184.297 95.625 181.875 95.9375L166.953 97.8125L176.953 106.406C179.062 108.203 180.078 111.094 179.531 113.828L176.953 127.109L192.031 120.156C193.047 119.688 194.219 119.453 195.312 119.453Z" fill="white"/>
<path d="M109.375 226.562C108.047 226.562 106.719 226.25 105.469 225.547C102.734 223.984 101.25 220.859 101.641 217.734L108.281 168.828C84.0625 151.25 70.3125 126.953 70.3125 101.562C70.3125 49.8438 126.406 7.8125 195.312 7.8125C264.219 7.8125 320.312 49.8438 320.312 101.562C320.312 153.281 264.219 195.312 195.312 195.312C182.812 195.312 170.312 193.828 158.047 191.016L114.141 224.922C112.734 226.016 111.094 226.562 109.375 226.562ZM195.312 23.4375C135 23.4375 85.9375 58.5156 85.9375 101.562C85.9375 122.969 98.75 143.828 121.016 158.594C123.516 160.234 124.844 163.203 124.453 166.172L119.766 200.937L151.562 176.328C153.437 174.844 155.938 174.375 158.281 174.922C170.391 178.047 182.891 179.688 195.312 179.688C255.625 179.688 304.688 144.609 304.688 101.562C304.688 58.5156 255.625 23.4375 195.312 23.4375Z" fill="white"/>
<path d="M359.375 234.375C357.656 234.375 356.016 233.828 354.609 232.734L310.703 198.828C298.516 201.719 286.016 203.125 273.438 203.125C269.141 203.125 265.625 199.609 265.625 195.312C265.625 191.016 269.141 187.5 273.438 187.5C285.938 187.5 298.359 185.937 310.469 182.734C312.813 182.109 315.312 182.656 317.187 184.141L348.984 208.75L344.297 173.984C343.906 171.016 345.234 168.125 347.734 166.406C370 151.562 382.812 130.781 382.812 109.375C382.812 72.578 346.172 40.3905 295.703 32.8905C291.406 32.2655 288.516 28.2812 289.141 23.9843C289.766 19.6874 293.75 16.7968 298.047 17.4218C356.25 26.0937 398.438 64.7655 398.438 109.375C398.438 134.766 384.687 158.984 360.469 176.641L367.109 225.547C367.5 228.672 366.016 231.797 363.281 233.359C362.031 234.062 360.703 234.375 359.375 234.375Z" fill="white"/>
</svg>
