<svg width="394" height="500" viewBox="0 0 394 500" fill="none" xmlns="http://www.w3.org/2000/svg">
<path d="M341.296 330.626C373.865 295.484 393.81 248.483 393.81 196.904C393.809 88.3313 305.479 0 196.904 0C88.3303 0 0 88.3313 0 196.904C0 252.458 23.133 302.703 60.2618 338.537L11.7328 442.771C11.1106 444.107 10.8664 445.588 11.0268 447.054C11.1873 448.519 11.7461 449.912 12.6428 451.082C13.5394 452.252 14.7395 453.153 16.1126 453.689C17.4858 454.225 18.9794 454.374 20.4314 454.12L79.9855 443.714L110.36 495.986C111.101 497.26 112.176 498.308 113.47 499.014C114.764 499.72 116.226 500.059 117.699 499.992C119.172 499.925 120.598 499.456 121.822 498.635C123.047 497.815 124.023 496.674 124.645 495.338L172.611 392.31C180.574 393.294 188.68 393.809 196.904 393.809C208.734 393.809 220.323 392.758 231.584 390.749L267.786 474.802C268.369 476.156 269.312 477.324 270.512 478.18C271.712 479.035 273.124 479.545 274.594 479.655C276.064 479.764 277.536 479.468 278.849 478.8C280.163 478.131 281.268 477.116 282.045 475.863L313.923 424.494L373.149 436.623C374.592 436.92 376.09 436.816 377.479 436.32C378.867 435.824 380.092 434.957 381.021 433.813C381.952 432.67 382.551 431.294 382.754 429.834C382.957 428.374 382.756 426.887 382.174 425.533L341.296 330.626ZM116.544 474.523L91.1075 430.75C90.2783 429.325 89.0325 428.188 87.5377 427.492C86.043 426.796 84.3709 426.575 82.7466 426.858L32.8759 435.573L72.8565 349.699C96.6538 369.056 125.039 382.975 156.106 389.547L116.544 474.523ZM16.129 196.904C16.129 97.2244 97.2244 16.129 196.904 16.129C296.584 16.129 377.68 97.2244 377.68 196.904C377.68 296.584 296.584 377.68 196.904 377.68C97.2244 377.68 16.129 296.584 16.129 196.904ZM311.652 407.568C310.036 407.236 308.358 407.407 306.843 408.06C305.329 408.712 304.051 409.814 303.182 411.216L276.488 454.232L247.608 387.179C278.313 378.989 306.092 363.556 328.983 342.814L361.247 417.725L311.652 407.568ZM332.438 252.401C332.052 249.173 331.692 246.301 331.369 243.723C330.054 233.245 329.395 227.988 330.129 223.829C330.862 219.67 333.28 214.954 338.098 205.559C339.284 203.246 340.604 200.67 342.07 197.77C349.714 182.648 346.549 164.697 334.194 153.101C331.824 150.876 329.702 148.909 327.797 147.14C320.056 139.959 316.17 136.355 314.059 132.698C311.948 129.042 310.769 123.874 308.421 113.58C307.842 111.046 307.199 108.225 306.457 105.06C302.593 88.5621 288.629 76.8454 271.711 75.9039C268.466 75.7224 265.575 75.5793 262.98 75.4503C252.433 74.9251 247.14 74.662 243.171 73.2174C239.204 71.7719 234.979 68.5723 226.563 62.1953C224.241 60.4329 221.915 58.6779 219.583 56.9302C206.017 46.777 187.791 46.777 174.224 56.9302C171.621 58.8778 169.315 60.6257 167.243 62.1953C158.827 68.5713 154.602 71.7719 150.634 73.2174C146.666 74.662 141.372 74.9241 130.827 75.4503C128.231 75.5793 125.341 75.7235 122.096 75.9039C105.178 76.8454 91.2143 88.5621 87.3494 105.06C86.6085 108.224 85.9643 111.046 85.3867 113.579C83.0379 123.873 81.8585 129.041 79.7476 132.698C77.6368 136.355 73.7507 139.959 66.0108 147.139C63.8719 149.12 61.7392 151.107 59.6126 153.101C47.2579 164.697 44.0925 182.648 51.7367 197.77C53.2034 200.67 54.5229 203.246 55.7084 205.559C60.527 214.954 62.9453 219.67 63.6781 223.829C64.412 227.988 63.7517 233.246 62.4382 243.723C62.1147 246.302 61.7548 249.173 61.3687 252.401C59.3576 269.225 68.4715 285.011 84.048 291.682C87.0359 292.962 89.7032 294.086 92.0984 295.095C101.828 299.195 106.712 301.254 109.947 303.968C113.182 306.683 116.057 311.135 121.785 320.006C123.194 322.189 124.765 324.62 126.544 327.34C133.708 338.295 145.559 344.508 158.058 344.507C161.738 344.507 165.477 343.967 169.167 342.852C172.277 341.912 175.043 341.059 177.525 340.293C187.615 337.179 192.68 335.616 196.902 335.616C201.125 335.616 206.19 337.179 216.28 340.293C218.763 341.059 221.529 341.912 224.639 342.852C240.858 347.755 257.988 341.521 267.262 327.339C269.041 324.619 270.611 322.188 272.021 320.005C277.749 311.134 280.624 306.681 283.859 303.967C287.093 301.254 291.978 299.195 301.707 295.094C304.102 294.085 306.77 292.961 309.758 291.681C325.335 285.011 334.449 269.225 332.438 252.401ZM323.747 198.198C312.654 219.831 312.34 221.608 315.366 245.729C315.685 248.279 316.042 251.121 316.423 254.314C317.595 264.12 312.487 272.968 303.409 276.856C300.452 278.122 297.814 279.233 295.444 280.232C273.042 289.672 271.66 290.832 258.473 311.255C256.911 313.678 255.342 316.097 253.765 318.511C248.361 326.775 238.76 330.27 229.306 327.412C226.229 326.481 223.493 325.638 221.036 324.88C197.807 317.711 196.002 317.71 172.771 324.88C170.315 325.638 167.579 326.481 164.501 327.412C155.047 330.272 145.448 326.775 140.043 318.511C138.283 315.82 136.729 313.414 135.335 311.255C122.148 290.831 120.766 289.672 98.3635 280.232C95.9935 279.234 93.3554 278.122 90.3988 276.856C81.3212 272.968 76.2124 264.119 77.3847 254.314C77.7658 251.121 78.1226 248.28 78.4432 245.729C81.4684 221.607 81.1549 219.831 70.0622 198.198C68.8888 195.909 67.5834 193.362 66.1328 190.492C61.6782 181.68 63.4513 171.618 70.6519 164.86C72.9977 162.659 75.0964 160.712 76.9815 158.963C94.803 142.43 95.7052 140.867 101.112 117.165C101.684 114.659 102.321 111.867 103.054 108.736C105.306 99.1215 113.133 92.554 122.992 92.0056C126.203 91.8272 129.062 91.6851 131.629 91.5571C155.911 90.3484 157.606 89.7305 176.984 75.0501C179.033 73.4977 181.316 71.7688 183.89 69.8414C187.843 66.8828 192.374 65.4039 196.904 65.4039C201.435 65.4039 205.965 66.8838 209.918 69.8414C212.493 71.7678 214.774 73.4977 216.824 75.0501C236.202 89.7305 237.897 90.3484 262.178 91.5571C264.746 91.6851 267.606 91.8282 270.815 92.0056C280.675 92.554 288.502 99.1215 290.754 108.736C291.488 111.867 292.124 114.66 292.696 117.166C298.104 140.867 299.006 142.43 316.828 158.963C318.713 160.712 320.812 162.66 323.157 164.86C330.357 171.618 332.131 181.68 327.676 190.492C326.375 193.065 325.065 195.633 323.747 198.198ZM266.091 170.015L222.964 167.913L207.638 127.547C205.934 123.056 201.72 120.154 196.904 120.154C192.088 120.154 187.874 123.056 186.171 127.547L170.845 167.913L127.719 170.015C122.913 170.248 118.845 173.356 117.357 177.934C115.869 182.511 117.332 187.417 121.083 190.433L154.737 217.482L143.41 259.147C142.148 263.79 143.848 268.619 147.741 271.447C149.698 272.88 152.06 273.655 154.485 273.659C156.664 273.659 158.847 273.029 160.778 271.765L196.904 248.119L233.03 271.767C237.057 274.403 242.174 274.276 246.068 271.449C249.962 268.62 251.661 263.791 250.398 259.149L239.072 217.484L272.727 190.435C276.478 187.419 277.939 182.513 276.451 177.936C274.964 173.358 270.896 170.249 266.091 170.015ZM192.56 133.273C192.56 133.272 192.56 133.272 192.56 133.273ZM226.596 206.818C224.854 208.217 223.558 210.093 222.868 212.218C222.177 214.343 222.122 216.623 222.709 218.778L231.623 251.568L203.193 232.959C201.324 231.735 199.138 231.083 196.904 231.082C194.67 231.082 192.484 231.734 190.615 232.958L162.184 251.568L171.1 218.774C171.685 216.619 171.629 214.34 170.938 212.216C170.248 210.093 168.953 208.217 167.212 206.818L140.726 185.529L174.664 183.874C176.896 183.767 179.048 183.01 180.856 181.697C182.664 180.384 184.05 178.571 184.843 176.482L196.904 144.715L208.966 176.484C209.759 178.573 211.144 180.384 212.951 181.697C214.759 183.01 216.91 183.767 219.141 183.875L253.082 185.53L226.596 206.818Z" fill="white"/>
</svg>
