<svg width="500" height="503" viewBox="0 0 500 503" fill="none" xmlns="http://www.w3.org/2000/svg">
<path d="M385.097 340.536C376.283 340.536 367.668 343.149 360.34 348.046C353.012 352.942 347.3 359.901 343.928 368.044C340.555 376.186 339.672 385.146 341.392 393.79C343.111 402.434 347.355 410.374 353.587 416.606C359.819 422.838 367.759 427.082 376.403 428.802C385.047 430.521 394.007 429.639 402.15 426.266C410.292 422.893 417.252 417.182 422.148 409.854C427.045 402.526 429.658 393.91 429.658 385.097C429.637 373.285 424.936 361.963 416.583 353.61C408.231 345.258 396.909 340.556 385.097 340.536ZM385.097 413.94C379.392 413.94 373.816 412.248 369.073 409.079C364.329 405.91 360.633 401.405 358.449 396.135C356.266 390.864 355.695 385.065 356.808 379.47C357.921 373.875 360.668 368.736 364.702 364.702C368.736 360.668 373.875 357.921 379.47 356.808C385.065 355.695 390.864 356.266 396.135 358.449C401.405 360.632 405.91 364.329 409.079 369.073C412.248 373.816 413.94 379.392 413.94 385.097C413.919 392.74 410.874 400.064 405.469 405.469C400.064 410.874 392.74 413.919 385.097 413.94Z" fill="white"/>
<path d="M496.067 412.918L477.756 402.308C479.957 390.939 479.957 379.254 477.756 367.885L496.067 357.275C497.865 356.239 499.18 354.533 499.724 352.531C500.269 350.528 500 348.392 498.975 346.587L475.398 305.72C474.878 304.826 474.187 304.043 473.363 303.417C472.54 302.79 471.602 302.333 470.602 302.07C469.601 301.807 468.559 301.744 467.534 301.885C466.51 302.026 465.523 302.367 464.631 302.89L455.829 307.92V125.746C455.829 115.324 451.689 105.329 444.319 97.9597C436.95 90.5903 426.955 86.4503 416.533 86.4503H336.684L327.961 38.7454C325.992 27.88 320.272 18.0502 311.798 10.9697C303.324 3.88918 292.635 0.00703224 281.592 0H174.237C163.194 0.00703224 152.504 3.88918 144.031 10.9697C135.557 18.0502 129.837 27.88 127.868 38.7454L119.144 86.4503H39.2956C28.8737 86.4503 18.8788 90.5903 11.5094 97.9597C4.14006 105.329 0 115.324 0 125.746L0 392.956C0 403.378 4.14006 413.373 11.5094 420.742C18.8788 428.111 28.8737 432.251 39.2956 432.251H276.169C301.711 476.498 293.774 474.14 323.874 456.772C332.683 464.259 342.774 470.09 353.66 473.983V495.124C353.66 497.209 354.488 499.208 355.962 500.681C357.436 502.155 359.435 502.983 361.519 502.983H408.674C410.758 502.983 412.757 502.155 414.231 500.681C415.705 499.208 416.533 497.209 416.533 495.124V473.983C427.419 470.09 437.51 464.259 446.319 456.772L464.631 467.303C465.523 467.826 466.51 468.167 467.534 468.308C468.559 468.449 469.601 468.386 470.602 468.123C471.602 467.861 472.54 467.403 473.363 466.777C474.187 466.15 474.878 465.368 475.398 464.474L498.975 423.606C500 421.802 500.269 419.665 499.724 417.663C499.18 415.66 497.865 413.955 496.067 412.918ZM143.272 41.5747C144.581 34.3174 148.399 27.7512 154.06 23.0246C159.72 18.298 166.862 15.7117 174.237 15.7182H281.592C288.966 15.7117 296.108 18.298 301.769 23.0246C307.429 27.7512 311.248 34.3174 312.557 41.5747L320.416 86.4503H307.291L300.847 50.7699C299.843 45.2774 296.922 40.3195 292.604 36.7791C288.286 33.2386 282.852 31.3454 277.27 31.4365H178.166C172.583 31.3454 167.149 33.2386 162.832 36.7791C158.514 40.3195 155.593 45.2774 154.589 50.7699L148.537 86.4503H135.177L143.272 41.5747ZM291.337 86.4503H164.491L170.386 53.5992C170.72 51.7683 171.694 50.1157 173.133 48.9356C174.572 47.7554 176.384 47.1243 178.245 47.1547H277.663C279.523 47.1243 281.335 47.7554 282.774 48.9356C284.213 50.1157 285.187 51.7683 285.522 53.5992L291.337 86.4503ZM15.7182 125.746C15.7182 119.493 18.2023 113.496 22.6239 109.074C27.0455 104.653 33.0425 102.168 39.2956 102.168H416.533C422.786 102.168 428.783 104.653 433.205 109.074C437.626 113.496 440.11 119.493 440.11 125.746V212.196C440.11 218.449 437.626 224.446 433.205 228.868C428.783 233.289 422.786 235.773 416.533 235.773H259.351V212.196C259.351 210.112 258.523 208.113 257.049 206.639C255.575 205.165 253.576 204.337 251.492 204.337H204.337C202.253 204.337 200.254 205.165 198.78 206.639C197.306 208.113 196.478 210.112 196.478 212.196V235.773H39.2956C33.0425 235.773 27.0455 233.289 22.6239 228.868C18.2023 224.446 15.7182 218.449 15.7182 212.196V125.746ZM212.196 220.055H243.633V251.492C243.633 255.66 241.977 259.658 239.029 262.606C236.081 265.554 232.083 267.21 227.914 267.21C223.746 267.21 219.748 265.554 216.8 262.606C213.852 259.658 212.196 255.66 212.196 251.492V220.055ZM15.7182 392.956V243.633C30.1004 254.557 23.5773 251.492 196.478 251.492C196.478 259.829 199.79 267.825 205.685 273.721C211.581 279.616 219.577 282.928 227.914 282.928C236.252 282.928 244.248 279.616 250.143 273.721C256.039 267.825 259.351 259.829 259.351 251.492C429.422 251.492 425.807 254.321 440.11 243.633V308.863C432.872 303.64 424.935 299.46 416.533 296.446V275.069C416.533 272.985 415.705 270.986 414.231 269.512C412.757 268.038 410.758 267.21 408.674 267.21H361.519C359.435 267.21 357.436 268.038 355.962 269.512C354.488 270.986 353.66 272.985 353.66 275.069V296.21C342.774 300.103 332.683 305.934 323.874 313.422L305.562 302.89C304.67 302.367 303.683 302.026 302.659 301.885C301.634 301.744 300.592 301.807 299.592 302.07C298.591 302.333 297.653 302.79 296.83 303.417C296.007 304.043 295.315 304.826 294.795 305.72C263.359 360.026 261.63 350.124 292.438 367.885C290.236 379.254 290.236 390.939 292.438 402.308C272.397 413.861 272.476 413.154 270.982 416.533H39.2956C33.0425 416.533 27.0455 414.049 22.6239 409.627C18.2023 405.206 15.7182 399.209 15.7182 392.956ZM465.731 449.777C449.227 440.268 445.219 436.259 439.796 441.446C416.533 463.688 400.815 456.457 400.815 468.246V487.265H369.378C369.378 468.246 370.872 462.666 363.641 460.623C332.676 451.899 331.183 434.373 320.966 440.268L304.462 449.777L288.744 422.585C305.248 413.075 310.828 411.582 308.942 404.273C305.718 391.692 305.718 378.501 308.942 365.92C310.907 358.061 303.755 356.254 288.744 347.609L304.462 320.416L320.966 330.083C331.026 335.899 333.069 318.373 363.641 309.728C370.872 307.684 369.378 301.869 369.378 283.085H400.815V302.104C400.815 313.736 417.162 306.898 440.11 328.904C445.533 334.091 449.699 330.004 466.045 320.573L481.764 347.766C450.72 365.37 463.688 355.311 463.688 385.097C463.688 414.883 450.563 404.744 481.449 422.585L465.731 449.777Z" fill="white"/>
</svg>
