<svg width="279" height="430" viewBox="0 0 279 430" fill="none" xmlns="http://www.w3.org/2000/svg">
<path d="M257.6 386.912H251.926V362.619C251.926 311.817 226.968 263.142 185.21 232.511C173.374 223.867 173.285 206.268 185.254 197.491C226.968 166.815 251.926 118.184 251.926 67.3827V43.0891H257.601C269.348 43.0891 278.924 33.4259 278.924 21.5446C278.924 9.66318 269.349 0 257.601 0H21.3228C9.57583 0 0 9.66318 0 21.5446C0 33.4259 9.57499 43.0891 21.3228 43.0891H26.9973V67.3819C26.9973 118.184 51.9107 166.814 93.6695 197.49C105.595 206.222 105.55 223.821 93.714 232.51C51.9553 263.142 26.9981 311.816 26.9981 362.618V386.911H21.3237C9.57667 386.911 0.00083945 396.574 0.00083945 408.455C0.00083945 420.337 9.57583 430 21.3237 430H257.602C269.349 430 278.925 420.337 278.925 408.455C278.925 396.574 269.348 386.912 257.6 386.912ZM40.2956 362.619C40.2956 316.028 63.2143 271.388 101.604 243.239C120.621 229.275 120.755 200.816 101.56 186.763C63.2143 158.613 40.2956 113.973 40.2956 67.3827V43.0891H238.627V67.3819C238.627 113.973 215.709 158.613 177.363 186.762C158.212 200.814 158.257 229.229 177.319 243.238C215.709 271.388 238.627 316.028 238.627 362.618V386.911H40.2956V362.619Z" fill="white"/>
<path d="M191.43 309.303C188.688 307.046 185.798 304.975 182.779 303.104C160.372 289.215 146.105 265.351 146.105 238.989V190.957C146.105 182.95 151.041 175.565 158.655 173.084C168.103 170.009 176.67 164.702 183.632 157.614C186.388 154.81 188.952 151.863 191.422 148.852H87.4911C89.9613 151.862 92.5247 154.81 95.2796 157.613C102.241 164.702 110.809 170.008 120.256 173.083C127.869 175.563 132.806 182.948 132.806 190.956V238.988C132.806 265.351 118.538 289.214 96.1313 303.103C93.1125 304.974 90.2223 307.044 87.4802 309.301C68.6401 324.806 58.0698 344.149 58.0698 364.587V368.699L220.841 368.7V364.588C220.841 344.151 210.271 324.809 191.43 309.303Z" fill="white"/>
</svg>
