<svg width="70" height="70" viewBox="0 0 70 70" fill="none" xmlns="http://www.w3.org/2000/svg">
<path d="M34.849 0C15.6336 0 0.00706673 15.6209 3.29908e-06 34.8214C-0.00284486 41.401 1.83851 47.8096 5.32536 53.3546L6.1543 54.6719L2.63428 67.5218L15.8189 64.0648L17.092 64.8193C22.4393 67.9929 28.5699 69.6711 34.8222 69.6742H34.8355C54.0359 69.6742 69.6625 54.0517 69.6704 34.8496C69.6738 25.5445 66.0541 16.7944 59.4768 10.2124C52.8995 3.63041 44.1541 0.00392476 34.849 0Z" fill="url(#paint0_linear_147704_315)"/>
<path fill-rule="evenodd" clip-rule="evenodd" d="M24.8216 16.8337C24.0367 15.0903 23.2109 15.055 22.4652 15.0244C21.8544 14.9984 21.1558 15 20.458 15C19.7594 15 18.6251 15.2622 17.6658 16.3101C16.7058 17.3581 14 19.8912 14 25.0438C14 30.1963 17.753 35.1746 18.2757 35.8741C18.7993 36.5727 25.5203 47.4838 36.1653 51.6811C45.0111 55.1695 46.8111 54.4756 48.7319 54.3013C50.652 54.1271 54.9277 51.7682 55.7998 49.323C56.6727 46.8778 56.6727 44.7827 56.4113 44.3447C56.1491 43.9075 55.4513 43.6461 54.4034 43.1225C53.3562 42.5989 48.2076 40.065 47.2475 39.7157C46.2875 39.3664 45.5897 39.1921 44.891 40.2401C44.1932 41.288 42.1876 43.6461 41.5761 44.3447C40.9654 45.0441 40.3547 45.1313 39.3067 44.6077C38.2596 44.0825 34.8866 42.9781 30.8856 39.4104C27.7724 36.6347 25.671 33.2067 25.0595 32.1588C24.4488 31.1108 24.9943 30.5441 25.5195 30.0221C25.9897 29.5527 26.5666 28.7991 27.091 28.1876C27.613 27.5761 27.7881 27.1396 28.1366 26.4418C28.4859 25.7424 28.3116 25.1309 28.0494 24.6073C27.7881 24.0837 25.7526 18.9045 24.8216 16.8337" fill="white"/>
<defs>
<linearGradient id="paint0_linear_147704_315" x1="34.126" y1="4.1812" x2="34.4793" y2="63.7218" gradientUnits="userSpaceOnUse">
<stop stop-color="#57D163"/>
<stop offset="1" stop-color="#23B33A"/>
</linearGradient>
</defs>
</svg>
