<svg width="500" height="500" viewBox="0 0 500 500" fill="none" xmlns="http://www.w3.org/2000/svg">
<path d="M88.5417 0H411.458C460.417 0 500 40.5983 500 90.812V409.188C500 459.402 460.417 500 411.458 500H88.5417C39.5833 500 0 459.402 0 409.188V90.812C0 40.5983 39.5833 0 88.5417 0Z" fill="#470137"/>
<path d="M262.766 157.103L200.993 259.339L266.884 367.771C267.296 368.597 267.502 369.423 267.296 370.25C267.09 371.076 266.266 370.456 265.031 370.663H217.877C214.583 370.663 212.318 370.456 210.876 368.391C206.552 359.716 202.022 351.248 197.698 342.574C193.374 334.106 188.638 325.431 183.696 316.55C178.754 307.669 173.813 298.788 168.871 289.7H168.459C164.135 298.581 159.399 307.462 154.663 316.343C149.927 325.224 145.191 334.106 140.661 342.78C135.925 351.455 131.189 360.336 126.453 368.804C125.629 370.869 123.982 371.076 121.717 371.076H76.4167C75.593 371.076 74.9753 371.489 74.9753 370.456C74.7694 369.63 74.9753 368.804 75.3871 368.184L139.425 262.85L77.0344 156.897C76.4167 156.07 76.2108 155.244 76.6226 154.831C77.0344 154.212 77.8581 154.005 78.6817 154.005H125.423C126.453 154.005 127.483 154.212 128.306 154.418C129.13 154.831 129.748 155.451 130.365 156.277C134.278 165.158 138.808 174.039 143.544 182.92C148.485 191.801 153.221 200.476 158.369 209.15C163.311 217.825 167.841 226.5 172.165 235.381H172.577C176.901 226.293 181.431 217.412 185.961 208.737C190.491 200.063 195.227 191.388 199.963 182.714C204.699 174.039 209.229 165.158 213.759 156.69C213.965 155.864 214.377 155.038 214.995 154.625C215.818 154.212 216.642 154.005 217.672 154.212H261.119C262.148 154.005 263.178 154.625 263.384 155.657C263.59 155.864 263.178 156.69 262.766 157.103V157.103Z" fill="#FF61F6"/>
<path fill-rule="evenodd" clip-rule="evenodd" d="M313.626 365.706C327.422 372.108 342.659 375.206 357.896 375C368.604 375 379.105 373.967 389.607 372.108C401.138 370.043 412.463 366.738 423.17 362.195C424.612 361.575 425.229 360.336 425.229 358.89C425.197 358.349 425.166 357.793 425.133 357.223C424.955 354.1 424.754 350.579 424.406 346.911C424.387 346.494 424.368 346.081 424.349 345.672C424.164 341.613 423.994 337.896 423.994 334.519V137.895V137.482C423.788 136.656 422.964 135.83 421.935 136.036H380.135C378.693 136.036 378.076 136.862 378.076 138.308V203.574C376.932 203.478 375.877 203.427 374.89 203.379C373.743 203.323 372.688 203.272 371.692 203.161C369.839 202.954 368.398 202.954 367.368 202.954C346.983 202.954 329.687 206.879 315.273 214.934C301.683 222.369 290.358 233.522 282.533 246.947C274.914 260.165 271.002 275.242 271.208 290.526C271.208 309.321 274.914 325.018 282.533 337.617C289.946 349.802 300.653 359.716 313.626 365.706ZM378.076 242.816V333.693C375.605 334.519 373.34 334.932 370.663 334.725C367.986 334.932 365.103 335.138 362.015 335.138C356.249 335.138 350.484 334.312 344.924 332.453C339.57 330.801 334.834 327.909 330.922 324.192C326.804 320.061 323.715 315.104 321.656 309.528C319.185 302.712 317.95 295.483 318.156 288.254C318.156 277.514 320.421 268.633 324.951 262.024C329.481 255.415 335.452 250.251 342.453 246.74C349.66 243.023 357.69 241.37 365.721 241.37C367.986 241.37 370.251 241.577 372.516 241.783C374.369 241.99 376.222 242.403 378.076 242.816Z" fill="#FF61F6"/>
</svg>
