<svg width="500" height="500" viewBox="0 0 500 500" fill="none" xmlns="http://www.w3.org/2000/svg">
<path d="M88.5417 0H411.458C460.417 0 500 40.5983 500 90.812V409.188C500 459.402 460.417 500 411.458 500H88.5417C39.5833 500 0 459.402 0 409.188V90.812C0 40.5983 39.5833 0 88.5417 0Z" fill="#001E36"/>
<path fill-rule="evenodd" clip-rule="evenodd" d="M104.167 140.042V356.384C104.167 358.276 105 359.117 106.667 359.117H146.25H147.084C148.542 358.907 149.584 357.645 149.375 356.174V288.685C153.334 288.685 156.25 288.685 158.334 288.895C160.417 289.106 163.75 289.106 168.75 289.106C185.834 289.106 201.459 287.213 215.625 281.957C229.167 276.911 240.834 268.081 249.167 256.307C257.5 244.534 261.667 229.606 261.667 211.525C261.667 202.064 260 193.024 256.875 184.193C253.542 175.153 248.334 166.953 241.667 160.226C233.75 152.446 224.167 146.56 213.75 142.985C202.084 138.57 187.917 136.468 170.834 136.468C164.584 136.468 158.334 136.468 151.875 136.678C148.757 136.78 145.737 136.832 142.813 136.883C139.681 136.937 136.66 136.99 133.75 137.099C131.022 137.201 128.392 137.253 125.836 137.304C123.122 137.358 120.492 137.411 117.917 137.519C113.125 137.729 109.792 137.729 106.25 137.729C104.792 137.729 104.167 138.57 104.167 140.042ZM149.584 248.949V178.307C151.042 178.096 153.959 177.886 158.125 178.096C162.084 177.886 166.875 177.886 172.292 177.886C180.834 177.676 189.167 178.937 196.875 182.091C202.917 184.404 207.917 188.609 211.459 194.075C214.792 199.752 216.459 206.269 216.25 212.787C216.25 222.037 214.167 229.186 209.792 234.442C205.209 239.698 199.375 243.693 192.709 245.585C185 248.108 176.875 249.369 168.75 249.369H157.709C155.388 249.369 152.888 249.188 150.209 248.994C150.002 248.979 149.793 248.964 149.584 248.949Z" fill="#31A8FF"/>
<path d="M391.667 236.124C385.417 232.76 378.75 230.447 371.667 228.975C363.958 227.294 356.25 226.242 348.333 226.242C344.167 226.032 339.792 226.663 335.833 227.714C333.125 228.345 330.833 229.816 329.375 231.919C328.333 233.601 327.708 235.703 327.708 237.596C327.708 239.488 328.542 241.38 329.792 243.062C331.667 245.375 334.167 247.267 336.875 248.738C341.667 251.261 346.667 253.574 351.667 255.677C362.917 259.461 373.75 264.717 383.75 271.024C390.625 275.44 396.25 281.326 400.208 288.475C403.542 295.203 405.208 302.561 405 310.13C405.208 320.011 402.292 329.893 396.875 338.092C391.042 346.502 382.917 353.02 373.542 356.804C363.333 361.219 350.833 363.532 335.833 363.532C326.25 363.532 316.875 362.691 307.5 360.799C300.208 359.537 292.917 357.225 286.25 354.071C284.792 353.23 283.75 351.758 283.958 350.076V313.494C283.958 312.863 284.167 312.022 284.792 311.602C285.417 311.181 286.042 311.391 286.667 311.812C294.792 316.648 303.333 320.011 312.5 322.114C320.417 324.216 328.75 325.268 337.083 325.268C345 325.268 350.625 324.216 354.375 322.324C357.708 320.852 360 317.278 360 313.494C360 310.55 358.333 307.817 355 305.084C351.667 302.351 344.792 299.197 334.583 295.203C323.958 291.418 314.167 286.372 305 280.065C298.542 275.44 293.125 269.342 289.167 262.194C285.833 255.466 284.167 248.108 284.375 240.749C284.375 231.709 286.875 223.089 291.458 215.31C296.667 206.9 304.375 200.172 313.333 195.967C323.125 190.921 335.417 188.609 350.208 188.609C358.75 188.609 367.5 189.239 376.042 190.501C382.292 191.342 388.333 193.024 393.958 195.336C394.792 195.547 395.625 196.388 396.042 197.229C396.25 198.07 396.458 198.911 396.458 199.751V234.021C396.458 234.862 396.042 235.703 395.417 236.124C393.542 236.544 392.5 236.544 391.667 236.124Z" fill="#31A8FF"/>
</svg>
