<svg width="512" height="512" viewBox="0 0 512 512" fill="none" xmlns="http://www.w3.org/2000/svg">
<g clip-path="url(#clip0_63_1184)">
<path d="M502.154 246.14C500.861 246.14 499.581 246.394 498.387 246.889C497.192 247.383 496.107 248.108 495.193 249.022C494.278 249.936 493.553 251.021 493.058 252.215C492.563 253.409 492.308 254.689 492.308 255.982V255.986C492.315 386.503 386.517 492.315 256.001 492.322C125.484 492.329 19.6725 386.531 19.6651 256.015C19.6577 125.498 125.456 19.6879 255.972 19.6793C309.977 19.676 362.355 38.1702 404.384 72.0829H362.87C360.259 72.0829 357.755 73.1203 355.908 74.9668C354.062 76.8133 353.024 79.3177 353.024 81.929C353.024 84.5404 354.062 87.0448 355.908 88.8913C357.755 90.7378 360.259 91.7752 362.87 91.7752H430.058C432.666 91.7651 435.165 90.7245 437.009 88.8802C438.853 87.0359 439.894 84.5373 439.904 81.929V14.7464C439.904 12.1351 438.867 9.63069 437.02 7.78418C435.174 5.93767 432.669 4.90032 430.058 4.90032C427.447 4.90032 424.942 5.93767 423.096 7.78418C421.249 9.63069 420.212 12.1351 420.212 14.7464V59.6312C311.767 -31.0689 150.327 -16.6849 59.6268 91.7604C-25.429 193.456 -18.7644 343.265 74.9868 437.005C174.961 536.978 337.049 536.977 437.022 437.004C460.793 413.232 479.65 385.011 492.514 353.952C505.379 322.893 512 289.604 512 255.986C512 254.694 511.746 253.414 511.252 252.219C510.757 251.025 510.032 249.94 509.118 249.025C508.205 248.111 507.12 247.386 505.926 246.891C504.731 246.396 503.451 246.141 502.159 246.14H502.154Z" fill="white"/>
<path d="M219.193 267.813V244.63L203.991 267.813H219.193Z" fill="white"/>
<path d="M256.001 59.064C147.419 59.064 59.0781 147.4 59.0781 255.987C59.0781 364.573 147.419 452.909 256.001 452.909C364.583 452.909 452.923 364.573 452.923 255.987C452.962 210.442 437.139 166.305 408.171 131.16H362.871C336.053 131.533 314.013 110.094 313.64 83.2781C313.57 78.2372 314.285 73.2162 315.761 68.3956C296.443 62.2133 276.283 59.0653 256.001 59.064ZM163.063 292.352C165.674 292.352 168.179 293.389 170.025 295.236C171.872 297.082 172.909 299.587 172.909 302.198C172.909 304.81 171.872 307.314 170.025 309.16C168.179 311.007 165.674 312.044 163.063 312.044H110.029C108.082 312.044 106.179 311.466 104.559 310.385C102.94 309.303 101.679 307.765 100.933 305.966C100.188 304.166 99.9934 302.187 100.373 300.277C100.753 298.367 101.691 296.613 103.068 295.236L148.337 249.967C154.844 243.455 154.844 232.902 148.337 226.39C141.74 220.093 131.357 220.093 124.76 226.39C123.208 227.935 121.977 229.772 121.138 231.796C120.3 233.819 119.871 235.988 119.876 238.179C119.876 240.79 118.838 243.294 116.992 245.141C115.145 246.987 112.641 248.025 110.029 248.025C107.418 248.025 104.914 246.987 103.067 245.141C101.221 243.294 100.183 240.79 100.183 238.179C100.171 233.401 101.106 228.669 102.934 224.255C104.763 219.842 107.449 215.835 110.837 212.467C124.572 198.717 148.509 198.717 162.254 212.467C176.456 226.662 176.46 249.684 162.264 263.884L162.259 263.889L133.798 292.351L163.063 292.352ZM243.968 287.506H238.886V302.199C238.886 304.811 237.848 307.315 236.002 309.162C234.155 311.008 231.651 312.046 229.04 312.046C226.428 312.046 223.924 311.008 222.077 309.162C220.231 307.315 219.193 304.811 219.193 302.199V287.506H185.761C183.985 287.507 182.241 287.026 180.716 286.116C179.19 285.206 177.939 283.9 177.095 282.337C176.251 280.774 175.845 279.012 175.921 277.237C175.997 275.463 176.552 273.741 177.526 272.256L220.805 206.256C221.968 204.485 223.672 203.136 225.663 202.41C227.655 201.684 229.827 201.62 231.858 202.227C233.888 202.834 235.669 204.079 236.935 205.779C238.202 207.478 238.886 209.541 238.887 211.661V267.814H243.969C245.262 267.814 246.542 268.069 247.737 268.564C248.931 269.059 250.017 269.784 250.931 270.699C251.845 271.613 252.57 272.698 253.065 273.893C253.56 275.088 253.814 276.368 253.814 277.661C253.814 278.954 253.559 280.234 253.065 281.429C252.57 282.623 251.844 283.709 250.93 284.623C250.016 285.537 248.93 286.262 247.736 286.757C246.541 287.252 245.261 287.507 243.968 287.506ZM343.77 201.814H401.977C403.924 201.815 405.828 202.392 407.447 203.474C409.066 204.556 410.327 206.093 411.073 207.892C411.818 209.691 412.013 211.671 411.633 213.581C411.254 215.49 410.316 217.245 408.939 218.622C400.601 226.915 393.991 236.78 389.49 247.645C384.989 258.51 382.687 270.16 382.718 281.92V302.199C382.718 304.811 381.681 307.315 379.834 309.162C377.988 311.008 375.483 312.046 372.872 312.046C370.26 312.046 367.756 311.008 365.91 309.162C364.063 307.315 363.026 304.811 363.026 302.199V281.92C362.968 260.424 369.3 239.396 381.218 221.507H343.77C341.159 221.507 338.655 220.469 336.808 218.623C334.962 216.776 333.924 214.272 333.924 211.661C333.924 209.049 334.962 206.545 336.808 204.698C338.655 202.852 341.159 201.814 343.77 201.814ZM323.011 179.449C325.464 180.34 327.462 182.17 328.566 184.534C329.67 186.899 329.789 189.605 328.898 192.058L328.895 192.064L278.722 329.91C277.823 332.346 275.998 334.328 273.644 335.425C271.29 336.521 268.598 336.643 266.155 335.764C263.711 334.885 261.714 333.076 260.598 330.732C259.483 328.387 259.339 325.696 260.198 323.246L260.221 323.18L310.394 185.334C311.29 182.883 313.121 180.886 315.486 179.783C317.851 178.68 320.557 178.56 323.011 179.449Z" fill="white"/>
</g>
<defs>
<clipPath id="clip0_63_1184">
<rect width="512" height="512" fill="white"/>
</clipPath>
</defs>
</svg>
