<svg width="480" height="512" viewBox="0 0 480 512" fill="none" xmlns="http://www.w3.org/2000/svg">
<path d="M343.22 20.9678C356.58 12.0278 373.14 14.1378 381.43 21.3478C385.02 24.4778 388.53 29.8078 384.83 37.4478C377.06 53.5678 360.51 63.9778 342.69 63.9778H291.67C294.07 70.1778 295.4 76.9078 295.4 83.9478C295.4 90.2178 294.34 96.2478 292.42 101.878H412.41C420.41 86.6778 420.99 69.2278 413.86 53.2378L399.24 20.4178C397.53 16.6178 394.91 13.0778 391.35 9.97782C378.93 -0.802179 354.93 -5.00218 334.83 8.43782L279.73 45.3278C283.23 48.9478 286.25 53.0278 288.67 57.4778L343.22 20.9678ZM187.2 101.868C185.227 96.0957 184.22 90.0377 184.22 83.9378C184.22 76.8978 185.55 70.1678 187.95 63.9678H136.96C119.14 63.9678 102.59 53.5478 94.78 37.4278C91.08 29.7978 94.59 24.4678 98.19 21.3478C102.65 17.4678 109.5 15.0678 116.96 15.0678C123.37 15.0678 130.22 16.8378 136.39 20.9678L190.93 57.4778C193.35 53.0178 196.38 48.9378 199.87 45.3278L144.77 8.43782C124.67 -5.00218 100.67 -0.802179 88.28 9.97782C84.31 13.4278 81.49 17.4178 79.83 21.7178L65.76 53.2278C58.62 69.2178 59.2 86.6678 67.21 101.868H187.2ZM203.47 101.868H276.12C278.8 96.4578 280.32 90.3678 280.32 83.9378C280.32 61.6078 262.12 43.4078 239.79 43.4078C217.46 43.4078 199.26 61.6078 199.26 83.9378C199.27 90.3778 200.79 96.4578 203.47 101.868ZM0 148.648V198.198C0 213.088 10.32 225.608 24.17 228.998H211.86V116.928H31.71C14.23 116.928 0 131.158 0 148.648ZM24.18 469.908C24.18 493.118 43.06 511.998 66.27 511.998H211.87V244.048H24.18V469.908ZM447.89 116.928H267.76V228.988H455.42C469.28 225.598 479.59 213.078 479.59 198.188V148.638C479.6 131.158 465.37 116.928 447.89 116.928ZM267.76 511.998H413.33C436.54 511.998 455.42 493.118 455.42 469.908V244.048H267.76V511.998Z" fill="#C3FF45"/>
</svg>
