<svg width="391" height="492" viewBox="0 0 391 492" fill="none" xmlns="http://www.w3.org/2000/svg">
<g clip-path="url(#clip0_63_1193)">
<path fill-rule="evenodd" clip-rule="evenodd" d="M59.909 336.269L8.597 425.144C7.577 426.91 7.68 428.985 8.871 430.641C10.061 432.297 11.994 433.056 13.994 432.653L77.8 419.774C79.0115 419.525 80.2725 419.728 81.3437 420.347C82.415 420.965 83.2221 421.955 83.612 423.129L104.362 484.826C105.012 486.759 106.636 488.054 108.666 488.256C110.696 488.459 112.544 487.511 113.564 485.745L169.319 389.175C177.872 390.319 186.596 390.92 195.462 390.92C204.328 390.92 213.052 390.318 221.604 389.175L279.504 489.461C280.524 491.227 282.372 492.175 284.402 491.972C286.432 491.769 288.056 490.475 288.706 488.541L309.456 426.844C309.846 425.67 310.653 424.68 311.724 424.062C312.796 423.443 314.056 423.239 315.268 423.488L379.074 436.367C381.073 436.771 383.006 436.011 384.197 434.355C385.388 432.699 385.491 430.624 384.471 428.858L331.014 336.268C367.942 300.711 390.923 250.771 390.923 195.459C390.92 87.511 303.409 0 195.46 0C87.511 0 0 87.511 0 195.46C0 250.772 22.981 300.712 59.909 336.269ZM298.003 213.644C276.389 213.644 265.545 239.828 280.827 255.11C282.179 256.462 282.939 258.296 282.939 260.208C282.939 262.12 282.179 263.954 280.827 265.306L265.306 280.827C263.954 282.179 262.12 282.939 260.208 282.939C258.296 282.939 256.462 282.179 255.11 280.827C239.828 265.545 213.644 276.389 213.644 298.002C213.644 299.914 212.884 301.748 211.532 303.1C210.18 304.452 208.346 305.211 206.434 305.211H184.485C183.538 305.211 182.601 305.025 181.726 304.663C180.851 304.3 180.057 303.769 179.387 303.1C178.718 302.43 178.187 301.636 177.824 300.761C177.462 299.886 177.276 298.949 177.276 298.002C177.276 276.362 151.111 265.525 135.809 280.827C134.457 282.179 132.623 282.939 130.711 282.939C128.799 282.939 126.965 282.179 125.613 280.827L110.092 265.306C108.74 263.954 107.98 262.12 107.98 260.208C107.98 258.296 108.74 256.462 110.092 255.11C125.374 239.828 114.529 213.644 92.916 213.644C91.9693 213.644 91.0318 213.458 90.1571 213.096C89.2824 212.733 88.4876 212.202 87.8182 211.533C87.1487 210.863 86.6177 210.069 86.2555 209.194C85.8932 208.319 85.7069 207.382 85.707 206.435V184.486C85.707 182.574 86.4665 180.74 87.8184 179.388C89.1703 178.036 91.004 177.276 92.916 177.276C114.529 177.276 125.373 151.092 110.092 135.81C108.74 134.458 107.98 132.624 107.98 130.712C107.98 128.8 108.74 126.966 110.092 125.614L125.613 110.093C126.282 109.423 127.077 108.892 127.952 108.53C128.827 108.168 129.764 107.981 130.711 107.981C131.658 107.981 132.595 108.168 133.47 108.53C134.345 108.892 135.14 109.423 135.809 110.093C151.091 125.375 177.276 114.531 177.276 92.917C177.276 91.9703 177.462 91.0328 177.824 90.1581C178.187 89.2834 178.718 88.4886 179.387 87.8192C180.057 87.1497 180.851 86.6187 181.726 86.2565C182.601 85.8942 183.538 85.7079 184.485 85.708H206.434C208.346 85.708 210.18 86.4675 211.532 87.8194C212.884 89.1713 213.644 91.005 213.644 92.917C213.644 114.531 239.828 125.375 255.11 110.093C255.779 109.423 256.574 108.892 257.449 108.53C258.324 108.168 259.261 107.981 260.208 107.981C261.155 107.981 262.092 108.168 262.967 108.53C263.842 108.892 264.637 109.423 265.306 110.093L280.827 125.614C282.179 126.966 282.939 128.8 282.939 130.712C282.939 132.624 282.179 134.458 280.827 135.81C265.545 151.092 276.389 177.276 298.003 177.276C299.915 177.276 301.749 178.036 303.101 179.388C304.453 180.74 305.212 182.574 305.212 184.486V206.435C305.212 207.382 305.026 208.319 304.664 209.194C304.301 210.069 303.77 210.863 303.101 211.533C302.431 212.202 301.637 212.733 300.762 213.096C299.887 213.458 298.95 213.644 298.003 213.644ZM195.46 149.485C220.851 149.485 241.435 170.069 241.435 195.46C241.435 220.851 220.851 241.435 195.46 241.435C170.068 241.435 149.485 220.851 149.485 195.46C149.485 170.069 170.068 149.485 195.46 149.485ZM195.46 38.528C282.131 38.528 352.393 108.789 352.393 195.461C352.393 282.132 282.131 352.393 195.46 352.393C108.789 352.393 38.527 282.132 38.527 195.46C38.527 108.789 108.789 38.528 195.46 38.528Z" fill="white"/>
</g>
<defs>
<clipPath id="clip0_63_1193">
<rect width="391" height="492" fill="white"/>
</clipPath>
</defs>
</svg>
