<svg width="453" height="500" viewBox="0 0 453 500" fill="none" xmlns="http://www.w3.org/2000/svg">
<path d="M412.838 65.022H406.905C418.214 46.6112 414.038 21.8939 395.889 8.42827C376.333 -6.0793 348.544 -1.40946 334.897 18.9847L304.091 65.023H39.4495C17.697 65.023 0 82.72 0 104.473V356.689C0 378.442 17.697 396.139 39.4495 396.139H192.683L181.105 444.768H156.116C139.831 444.768 126.581 458.016 126.581 474.302V480.469H95.7757C90.3823 480.469 86.0103 484.842 86.0103 490.235C86.0103 495.627 90.3823 500 95.7757 500H356.513C361.906 500 366.278 495.627 366.278 490.235C366.278 484.842 361.906 480.469 356.513 480.469H325.707V474.302C325.707 458.016 312.458 444.768 296.172 444.768H271.183L259.605 396.139H412.839C434.591 396.139 452.288 378.442 452.288 356.689V104.472C452.288 82.719 434.591 65.022 412.838 65.022ZM272.916 236.698C257.648 247.386 229.044 232.858 201.728 247.434C195.063 212.811 199.265 180.248 233.957 173.06C238.44 172.126 243.267 171.703 247.377 171.785L282.704 197.996C287.83 212.906 285.906 227.605 272.916 236.698ZM282.758 132.024L310.401 152.533L289.143 178.452L264.116 159.883L282.758 132.024ZM351.13 29.8468C358.526 18.7914 373.611 16.2192 384.251 24.1145C394.896 32.0109 396.802 47.1923 388.367 57.4763L322.8 137.415L293.631 115.773L351.13 29.8468ZM306.175 474.302V480.469H146.112V474.302C146.112 468.787 150.6 464.299 156.116 464.299H296.171C301.687 464.299 306.175 468.787 306.175 474.302ZM251.105 444.768H201.182L212.76 396.139H239.527L251.105 444.768ZM432.757 356.689C432.757 367.672 423.822 376.608 412.839 376.608H39.4505C28.4673 376.608 19.5319 367.672 19.5319 356.689V310.957H47.4377C52.8311 310.957 57.2031 306.584 57.2031 301.192C57.2031 295.799 52.8311 291.426 47.4377 291.426H19.5299V104.472C19.5299 93.4884 28.4653 84.553 39.4485 84.553H291.021L245.727 152.241C226.59 152.414 207.484 159.081 194.976 173.682C177.956 193.55 174.966 224.768 186.089 266.469C187.99 273.6 196.887 276.154 202.271 271.012C227.522 246.884 258.97 273.202 287.133 250.408C304.324 236.492 308.392 214.369 301.91 193.682L391.418 84.553H412.837C423.82 84.553 432.755 93.4884 432.755 104.472V291.425H125.559C120.166 291.425 115.794 295.798 115.794 301.191C115.794 306.583 120.166 310.956 125.559 310.956H432.757V356.689Z" fill="white"/>
<path d="M84.6128 291.615C82.3971 292.056 80.403 293.252 78.9711 294.999C77.5391 296.747 76.7581 298.937 76.7612 301.196C76.7612 307.304 82.3462 311.982 88.4312 310.766C90.9704 310.259 93.2045 308.765 94.642 306.611C96.0796 304.458 96.603 301.821 96.0972 299.282C95.0103 293.94 89.8287 290.565 84.6128 291.615Z" fill="white"/>
</svg>
