<svg width="500" height="500" viewBox="0 0 500 500" fill="none" xmlns="http://www.w3.org/2000/svg">
<path d="M275 50H225C222.79 50 220.67 49.1221 219.107 47.5593C217.544 45.9965 216.667 43.8768 216.667 41.6667C216.667 39.4566 217.544 37.337 219.107 35.7742C220.67 34.2113 222.79 33.3334 225 33.3334H275C277.21 33.3334 279.33 34.2113 280.892 35.7742C282.455 37.337 283.333 39.4566 283.333 41.6667C283.333 43.8768 282.455 45.9965 280.892 47.5593C279.33 49.1221 277.21 50 275 50ZM341.666 500H158.333C147.287 499.987 136.696 495.593 128.885 487.782C121.074 479.97 116.68 469.38 116.667 458.333V175C116.667 172.79 117.544 170.67 119.107 169.107C120.67 167.545 122.79 166.667 125 166.667C127.21 166.667 129.33 167.545 130.892 169.107C132.455 170.67 133.333 172.79 133.333 175V458.333C133.333 472.117 144.55 483.333 158.333 483.333H341.666C355.45 483.333 366.666 472.117 366.666 458.333V175C366.666 172.79 367.544 170.67 369.107 169.107C370.67 167.545 372.79 166.667 375 166.667C377.21 166.667 379.33 167.545 380.892 169.107C382.455 170.67 383.333 172.79 383.333 175V458.333C383.333 481.3 364.65 500 341.666 500Z" fill="white"/>
<path d="M375 233.333C372.79 233.333 370.67 232.455 369.107 230.893C367.544 229.33 366.666 227.21 366.666 225V41.6667C366.666 27.8833 355.45 16.6667 341.666 16.6667H158.333C144.55 16.6667 133.333 27.8833 133.333 41.6667V225C133.333 227.21 132.455 229.33 130.892 230.893C129.33 232.455 127.21 233.333 125 233.333C122.79 233.333 120.67 232.455 119.107 230.893C117.544 229.33 116.667 227.21 116.667 225V41.6667C116.667 18.7 135.35 0 158.333 0H341.666C364.65 0 383.333 18.7 383.333 41.6667V225C383.333 227.21 382.455 229.33 380.892 230.893C379.33 232.455 377.21 233.333 375 233.333ZM425 84.1667C420.4 84.1667 416.666 81.2667 416.666 76.6667V75C416.666 72.7899 417.544 70.6702 419.107 69.1074C420.67 67.5446 422.79 66.6667 425 66.6667C427.21 66.6667 429.33 67.5446 430.892 69.1074C432.455 70.6702 433.333 72.7899 433.333 75C433.333 79.6 429.6 84.1667 425 84.1667ZM425 117.5C420.4 117.5 416.666 114.6 416.666 110V108.333C416.666 106.123 417.544 104.004 419.107 102.441C420.67 100.878 422.79 100 425 100C427.21 100 429.33 100.878 430.892 102.441C432.455 104.004 433.333 106.123 433.333 108.333C433.333 112.933 429.6 117.5 425 117.5ZM425 150.833C420.4 150.833 416.666 147.933 416.666 143.333V141.667C416.666 139.457 417.544 137.337 419.107 135.774C420.67 134.211 422.79 133.333 425 133.333C427.21 133.333 429.33 134.211 430.892 135.774C432.455 137.337 433.333 139.457 433.333 141.667C433.333 146.267 429.6 150.833 425 150.833ZM74.9998 365.833C70.3998 365.833 66.6665 362.933 66.6665 358.333V356.667C66.6665 354.457 67.5445 352.337 69.1073 350.774C70.6701 349.211 72.7897 348.333 74.9998 348.333C77.21 348.333 79.3296 349.211 80.8924 350.774C82.4552 352.337 83.3332 354.457 83.3332 356.667C83.3332 361.267 79.5998 365.833 74.9998 365.833ZM74.9998 399.167C70.3998 399.167 66.6665 396.267 66.6665 391.667V390C66.6665 387.79 67.5445 385.67 69.1073 384.107C70.6701 382.545 72.7897 381.667 74.9998 381.667C77.21 381.667 79.3296 382.545 80.8924 384.107C82.4552 385.67 83.3332 387.79 83.3332 390C83.3332 394.6 79.5998 399.167 74.9998 399.167ZM74.9998 432.5C70.3998 432.5 66.6665 429.6 66.6665 425V423.333C66.6665 421.123 67.5445 419.004 69.1073 417.441C70.6701 415.878 72.7897 415 74.9998 415C77.21 415 79.3296 415.878 80.8924 417.441C82.4552 419.004 83.3332 421.123 83.3332 423.333C83.3332 427.933 79.5998 432.5 74.9998 432.5Z" fill="white"/>
<path d="M397.35 433.333C396.107 433.334 394.879 433.056 393.758 432.52C392.636 431.985 391.648 431.205 390.866 430.238C390.085 429.272 389.53 428.142 389.241 426.933C388.953 425.724 388.939 424.465 389.2 423.25L394.7 397.75C395.028 396.218 395.783 394.811 396.877 393.69C397.971 392.57 399.36 391.781 400.883 391.417C408.925 389.445 416.612 386.234 423.667 381.9C424.997 381.088 426.528 380.665 428.087 380.68C429.645 380.695 431.169 381.146 432.483 381.983L448.983 392.533L459.2 382.233L448.65 365.867C447.803 364.551 447.343 363.023 447.323 361.458C447.302 359.894 447.722 358.355 448.533 357.017C452.869 349.964 456.075 342.277 458.033 334.233C458.4 332.715 459.184 331.329 460.298 330.233C461.411 329.138 462.809 328.376 464.333 328.033L483.333 323.817V309.533L464.35 305.317C462.826 304.974 461.428 304.212 460.314 303.117C459.201 302.021 458.417 300.635 458.05 299.117C456.084 291.075 452.879 283.389 448.55 276.333C447.731 275.002 447.306 273.465 447.324 271.902C447.342 270.339 447.802 268.813 448.65 267.5L459.217 250.983L449.017 240.783L432.5 251.35C431.187 252.191 429.663 252.644 428.104 252.659C426.544 252.674 425.012 252.249 423.683 251.433C416.625 247.105 408.94 243.895 400.9 241.917C399.377 241.552 397.988 240.764 396.894 239.643C395.799 238.522 395.045 237.115 394.717 235.583L390.617 216.667H383.333C381.123 216.667 379.004 215.789 377.441 214.226C375.878 212.663 375 210.543 375 208.333C375 206.123 375.878 204.004 377.441 202.441C379.004 200.878 381.123 200 383.333 200H397.333C399.237 200.003 401.082 200.658 402.562 201.856C404.042 203.054 405.067 204.722 405.467 206.583L409.917 227.133C416.017 228.983 422 231.483 427.767 234.6L445.667 223.15C447.267 222.127 449.17 221.682 451.058 221.888C452.946 222.094 454.708 222.939 456.05 224.283L475.733 243.95C477.075 245.294 477.917 247.057 478.12 248.945C478.323 250.833 477.875 252.734 476.85 254.333L465.4 272.233C468.517 278.017 471.017 284 472.867 290.117L493.45 294.683C497.283 295.533 500 298.933 500 302.833V330.5C499.999 332.397 499.351 334.237 498.164 335.715C496.976 337.194 495.319 338.224 493.467 338.633L472.883 343.2C471.002 349.392 468.501 355.378 465.417 361.067L476.85 378.8C477.885 380.393 478.342 382.294 478.145 384.183C477.948 386.073 477.108 387.838 475.767 389.183L456.083 409.017C454.74 410.365 452.977 411.214 451.086 411.423C449.194 411.632 447.288 411.189 445.683 410.167L427.783 398.717C422.097 401.795 416.118 404.296 409.933 406.183L405.483 426.733C405.084 428.596 404.06 430.267 402.58 431.467C401.101 432.668 399.255 433.326 397.35 433.333Z" fill="white"/>
<path d="M406.517 359.633C404.732 359.63 402.995 359.054 401.563 357.99C400.13 356.926 399.077 355.43 398.558 353.723C398.039 352.015 398.082 350.186 398.681 348.505C399.279 346.823 400.402 345.379 401.883 344.383C408.28 340.073 412.985 333.679 415.199 326.29C417.413 318.901 416.998 310.973 414.026 303.855C411.053 296.738 405.707 290.87 398.895 287.25C392.084 283.63 384.229 282.481 376.667 284C375.594 284.22 374.489 284.227 373.414 284.019C372.339 283.812 371.315 283.395 370.401 282.792C369.487 282.19 368.701 281.413 368.088 280.506C367.474 279.599 367.045 278.581 366.825 277.508C366.605 276.436 366.598 275.331 366.806 274.256C367.013 273.181 367.43 272.157 368.032 271.243C368.635 270.329 369.412 269.543 370.319 268.929C371.226 268.316 372.244 267.887 373.317 267.667C380.582 266.193 388.083 266.352 395.28 268.131C402.476 269.909 409.188 273.264 414.93 277.952C420.673 282.64 425.302 288.545 428.485 295.24C431.667 301.935 433.323 309.254 433.333 316.667C433.335 324.882 431.312 332.971 427.443 340.218C423.573 347.466 417.977 353.647 411.15 358.217C409.78 359.138 408.167 359.631 406.517 359.633ZM116.667 233.333C105.924 233.348 95.4622 229.9 86.8323 223.502C78.2024 217.105 71.8635 208.096 68.755 197.813C65.6464 187.53 65.9337 176.519 69.5742 166.412C73.2148 156.305 80.0148 147.639 88.9666 141.7C90.8055 140.552 93.0193 140.166 95.1383 140.623C97.2573 141.081 99.1147 142.346 100.316 144.15C101.518 145.955 101.969 148.156 101.574 150.288C101.178 152.419 99.9683 154.313 98.1999 155.567C91.8035 159.861 87.0899 166.236 84.8595 173.61C82.629 180.984 83.019 188.903 85.9632 196.022C88.9075 203.141 94.2247 209.022 101.012 212.667C107.8 216.311 115.639 217.495 123.2 216.017C125.367 215.589 127.616 216.036 129.455 217.26C131.294 218.484 132.574 220.386 133.017 222.55C133.233 223.623 133.235 224.727 133.023 225.801C132.812 226.874 132.391 227.895 131.784 228.806C131.177 229.716 130.396 230.498 129.487 231.106C128.577 231.714 127.556 232.137 126.483 232.35C123.253 233.008 119.964 233.337 116.667 233.333Z" fill="white"/>
<path d="M116.667 300H102.667C100.763 299.997 98.9177 299.342 97.4379 298.144C95.9582 296.946 94.9331 295.278 94.5333 293.417L90.0833 272.867C83.8981 270.983 77.918 268.481 72.2333 265.4L54.3333 276.85C52.7326 277.873 50.8305 278.318 48.9421 278.112C47.0537 277.906 45.2924 277.061 43.95 275.717L24.2667 256.05C22.9252 254.706 22.0832 252.943 21.8801 251.055C21.677 249.167 22.1251 247.266 23.15 245.667L34.6 227.767C31.5188 222.071 29.0173 216.079 27.1333 209.883L6.55 205.317C4.6935 204.907 3.03244 203.876 1.84145 202.394C0.650453 200.912 0.00083797 199.068 0 197.167V169.5C0.000746181 167.603 0.648594 165.763 1.8365 164.285C3.0244 162.806 4.68127 161.776 6.53333 161.367L27.1167 156.8C28.9667 150.683 31.4667 144.7 34.5833 138.933L23.1667 121.183C22.1315 119.59 21.6743 117.69 21.8715 115.8C22.0686 113.91 22.9082 112.145 24.25 110.8L43.9333 90.9667C45.2715 89.6104 47.0356 88.7559 48.9293 88.5465C50.823 88.3371 52.7312 88.7856 54.3333 89.8167L72.2333 101.267C77.9194 98.1886 83.8992 95.6872 90.0833 93.8L94.5333 73.25C94.7352 72.1524 95.1554 71.1066 95.7691 70.1745C96.3828 69.2425 97.1775 68.4432 98.106 67.824C99.0344 67.2049 100.078 66.7786 101.174 66.5703C102.271 66.3621 103.398 66.3762 104.488 66.6117C105.579 66.8473 106.612 67.2996 107.524 67.9417C108.437 68.5839 109.211 69.4028 109.802 70.3499C110.392 71.297 110.786 72.3531 110.96 73.4553C111.135 74.5576 111.086 75.6836 110.817 76.7667L105.317 102.267C104.989 103.798 104.234 105.206 103.14 106.326C102.046 107.447 100.657 108.235 99.1333 108.6C91.0871 110.575 83.3958 113.785 76.3333 118.117C75.003 118.929 73.4716 119.351 71.9131 119.337C70.3546 119.322 68.8314 118.87 67.5167 118.033L51.0167 107.483L40.7833 117.783L51.3333 134.15C52.1877 135.463 52.6521 136.992 52.6728 138.558C52.6934 140.125 52.2694 141.665 51.45 143C47.114 150.052 43.9085 157.74 41.95 165.783C41.5834 167.302 40.799 168.687 39.6856 169.783C38.5722 170.879 37.1742 171.641 35.65 171.983L16.6667 176.183V190.467L35.65 194.683C37.1742 195.026 38.5722 195.788 39.6856 196.883C40.799 197.979 41.5834 199.365 41.95 200.883C43.8333 208.75 47.05 216.417 51.45 223.667C53.1167 226.383 53.0833 229.817 51.35 232.5L40.7833 249L50.9833 259.2L67.5 248.633C68.8161 247.8 70.3388 247.351 71.8965 247.336C73.4541 247.321 74.985 247.742 76.3167 248.55C83.5833 252.967 91.25 256.167 99.1 258.067C100.623 258.431 102.012 259.22 103.106 260.34C104.201 261.461 104.955 262.869 105.283 264.4L109.383 283.333H116.667C118.877 283.333 120.996 284.211 122.559 285.774C124.122 287.337 125 289.457 125 291.667C125 293.877 124.122 295.996 122.559 297.559C120.996 299.122 118.877 300 116.667 300ZM241.667 291.667C240.4 291.67 239.149 291.383 238.01 290.829C236.87 290.275 235.873 289.468 235.093 288.469C234.313 287.471 233.772 286.307 233.51 285.068C233.249 283.828 233.274 282.545 233.583 281.317L250.25 214.65C250.507 213.584 250.974 212.58 251.623 211.696C252.271 210.812 253.09 210.066 254.03 209.502C254.97 208.937 256.012 208.565 257.098 208.408C258.183 208.25 259.288 208.31 260.35 208.583C261.412 208.846 262.413 209.317 263.293 209.967C264.173 210.618 264.917 211.435 265.48 212.374C266.044 213.312 266.417 214.353 266.577 215.435C266.738 216.518 266.683 217.622 266.417 218.683L249.75 285.35C249.305 287.156 248.267 288.761 246.801 289.907C245.335 291.052 243.527 291.672 241.667 291.667ZM291.667 291.667C290.02 291.666 288.41 291.178 287.04 290.263C285.671 289.349 284.603 288.049 283.972 286.528C283.34 285.006 283.174 283.332 283.493 281.717C283.813 280.101 284.604 278.616 285.767 277.45L313.217 250L285.783 222.567C284.265 220.995 283.425 218.89 283.444 216.705C283.463 214.52 284.34 212.43 285.885 210.885C287.43 209.34 289.52 208.463 291.705 208.444C293.89 208.425 295.995 209.265 297.567 210.783L330.9 244.117C332.462 245.679 333.34 247.799 333.34 250.008C333.34 252.218 332.462 254.337 330.9 255.9L297.567 289.233C295.999 290.792 293.878 291.667 291.667 291.667ZM208.333 291.667C206.122 291.667 204.001 290.792 202.433 289.233L169.1 255.9C167.538 254.337 166.66 252.218 166.66 250.008C166.66 247.799 167.538 245.679 169.1 244.117L202.433 210.783C204.005 209.265 206.11 208.425 208.295 208.444C210.48 208.463 212.57 209.34 214.115 210.885C215.66 212.43 216.537 214.52 216.556 216.705C216.575 218.89 215.735 220.995 214.217 222.567L186.783 250L214.217 277.433C215.384 278.598 216.18 280.083 216.503 281.699C216.826 283.316 216.663 284.993 216.033 286.517C215.403 288.041 214.335 289.343 212.965 290.26C211.594 291.177 209.982 291.666 208.333 291.667Z" fill="white"/>
</svg>
