<svg width="100" height="100" viewBox="0 0 100 100" fill="none" xmlns="http://www.w3.org/2000/svg">
<path d="M83.3333 0H16.6667C12.2464 0 8.00716 1.75595 4.88155 4.88155C1.75595 8.00716 0 12.2464 0 16.6667V83.3333C0 87.7536 1.75595 91.9928 4.88155 95.1184C8.00716 98.2441 12.2464 100 16.6667 100H83.3333C87.7536 100 91.9928 98.2441 95.1184 95.1184C98.2441 91.9928 100 87.7536 100 83.3333V16.6667C100 12.2464 98.2441 8.00716 95.1184 4.88155C91.9928 1.75595 87.7536 0 83.3333 0ZM73.8889 36.7222L48.5 70.0556C47.9825 70.7279 47.3178 71.2727 46.557 71.6483C45.7962 72.0238 44.9595 72.2202 44.1111 72.2222C43.2673 72.2268 42.4335 72.039 41.673 71.6732C40.9125 71.3074 40.2454 70.7732 39.7222 70.1111L26.1667 52.8333C25.718 52.257 25.3872 51.5979 25.1932 50.8937C24.9993 50.1895 24.9459 49.454 25.0362 48.7292C25.1265 48.0044 25.3586 47.3045 25.7194 46.6694C26.0802 46.0343 26.5625 45.4765 27.1389 45.0278C28.3029 44.1216 29.7792 43.715 31.243 43.8973C31.9678 43.9876 32.6678 44.2197 33.3029 44.5805C33.9379 44.9413 34.4958 45.4236 34.9444 46L44 57.5556L65 29.7778C65.445 29.1941 66.0007 28.7038 66.6352 28.3349C67.2697 27.966 67.9707 27.7257 68.6981 27.6277C69.4254 27.5296 70.165 27.5759 70.8746 27.7637C71.5841 27.9515 72.2497 28.2772 72.8333 28.7222C73.417 29.1673 73.9073 29.7229 74.2762 30.3574C74.6451 30.9919 74.8854 31.6929 74.9834 32.4203C75.0815 33.1477 75.0352 33.8872 74.8474 34.5968C74.6596 35.3063 74.3339 35.9719 73.8889 36.5556V36.7222Z" fill="#44DD86"/>
</svg>
