<svg width="607" height="570" viewBox="0 0 607 570" fill="none" xmlns="http://www.w3.org/2000/svg">
<path d="M130.066 520.376V414.924H84.6783C70.6781 414.924 59.2748 403.52 59.2748 389.52V287.906H0L59.2748 186.292C61.6458 78.6945 153.098 -6.99992 262.954 0.451769C357.229 6.77441 433.666 83.5494 439.875 177.712C442.811 222.422 430.278 264.083 407.133 297.842C387.826 325.955 368.294 355.536 362.536 389.182C349.891 463.811 349.891 520.263 349.891 520.263H130.066V520.376Z" fill="#C3FF45"/>
<path d="M476.934 569.877V464.424H522.322C536.322 464.424 547.725 453.021 547.725 439.021V337.407H607L547.725 235.793C545.354 128.195 453.902 42.5006 344.046 49.9523C249.771 56.2749 173.334 133.05 167.125 227.212C164.189 271.922 176.722 313.584 199.867 347.342C219.174 375.456 238.706 405.036 244.464 438.682C257.109 513.312 257.109 569.764 257.109 569.764H477.047L476.934 569.877Z" fill="#C3FF45" fill-opacity="0.4"/>
<path d="M114.5 392.633H153.791V415.214H114.5V392.633Z" fill="#CCCCCC"/>
</svg>
