<svg version="1.2" xmlns="http://www.w3.org/2000/svg" viewBox="0 0 3528 3392" width="3528" height="3392"><style>.a{fill:#f5f5f5}.b{fill:#e0e0e0}.c{fill:#ebebeb}.d{fill:#263238}.e{fill:#e8505b}.f{opacity:.1}.g{opacity:.3}.h{fill:#ffbe9d}.i{fill:#fff}.j{fill:#eb996e}.k{fill:#455a64}.l{fill:#fafafa}</style><path class="a" d="m1991.5 3372.5c-137.9-65.3-192.9-220.5-212.3-365-3.3-24.2-10.2-49-2.3-72 7.8-23 32-41.9 55.2-35.4 19.2 5.4 30.5 24.8 43.4 40.3 17.1 20.5 40 36.1 65.3 44.2 16.7 5.3 36.4 7 50.1-3.9 18.7-14.9 16.3-43.9 12.1-67.8q-11.7-66.6-23.4-133.2c-4.2-23.9-8.3-48.2-4.8-72.1 3.6-23.9 16.5-47.7 38.1-57.9 21.6-10.2 51.9-1.9 60.6 20.7 3.7 9.3 3.4 19.8 5.7 29.6 2.4 9.8 8.9 19.9 18.7 21.1 10 1.2 18.4-7.2 24.4-15.4 20.5-28.2 32-62.1 42.4-95.6 10.4-33.5 20.2-67.7 38.1-97.7 17.9-30.1 45.3-56.2 79.1-63.9 33.9-7.7 73.9 7.2 88.2 39.3 14.3 32.2 0.5 69.7-16.3 100.5-24.8 45.8-56.3 87.8-93 124.5-6.6 6.6-13.8 13.7-15.2 23.1-2.5 16.7 15.3 30 31.9 32.6 18.8 2.9 37.8-2.2 56.7-3.2 19-1 40.5 3.8 50.6 20.2 13.9 22.8-2.2 51.8-19.4 71.9-34.6 40.4-76 74.6-121.9 100.8-16.5 9.4-34 18.2-46 32.9-12.1 14.7-17 37.6-5.6 53 11.4 15.4 34.2 17 52 10.5 17.8-6.5 32.6-19.3 49-28.9 30.7-17.9 73.4-22.8 99.2 2 17 16.3 22.6 42 19.4 65.4-3.3 23.4-14.2 44.9-26.2 65.1-42.2 70.5-101 131.6-172.6 170.8-71.6 39.3-140.9 58.3-221.2 43.5z"/><path class="b" d="m2013.4 3276.1c8.8-76.1 25.5-158.7 45.9-244.6q7.8-32.1 15.3-63.4c5.1-20.9 10.1-41.5 16.3-61.4 12.2-39.9 26.9-77.3 42-112.3 15.1-35.1 30.7-67.8 45.6-98.3 14.8-30.5 29.3-58.6 43.5-83.7 28.3-50.3 55.9-88.1 75.9-113.3 9.9-12.6 18-22.2 23.5-28.6 2.7-3 4.8-5.4 6.4-7.2q2.2-2.4 2.3-2.4 0.1 0.1-2 2.7c-1.5 1.9-3.5 4.4-6 7.5-5.3 6.6-13.1 16.3-22.9 29.1-19.5 25.5-46.6 63.4-74.5 113.8-14 25.1-28.2 53.2-42.9 83.8-14.7 30.5-30.1 63.2-45.1 98.3-15 35-29.6 72.3-41.6 111.9-6.1 19.8-11.1 40.3-16.2 61.1q-7.5 31.4-15.3 63.5c-20.4 85.8-37.1 168.1-46.2 244"/><path class="b" d="m2092.1 2906.3c-0.2 0.1-1.7-3.4-4-9.8-2.4-6.4-5.5-15.7-9.2-27.3-7.4-23.2-16.5-55.6-26.4-91.3-9.9-35.7-19.5-67.9-27.2-90.9-3.8-11.5-7-20.8-9.3-27.2-2.3-6.4-3.4-10-3.1-10.1 0.3-0.1 1.9 3.2 4.7 9.5 2.8 6.2 6.4 15.3 10.6 26.8 8.6 22.8 18.6 54.9 28.6 90.7 9.7 35.3 18.4 67.2 25.1 91.6 3.1 11 5.7 20.2 7.8 27.7 1.9 6.5 2.7 10.2 2.4 10.3z"/><path class="b" d="m2389.2 2797.1c0.1 0.3-4.2 1.5-12 3.5-7.7 2-19 4.9-32.7 8.9-27.6 7.8-65.3 19.9-106.4 35.1-41 15.2-77.5 30.6-103.6 42.4-13.2 5.9-23.6 10.9-30.9 14.3-7.2 3.5-11.3 5.3-11.5 5-0.1-0.3 3.7-2.6 10.7-6.5 7.1-3.9 17.4-9.4 30.3-15.7 25.9-12.6 62.3-28.5 103.5-43.8 41.1-15.2 79.2-26.8 107.1-33.9 13.9-3.6 25.3-6 33.2-7.5 7.9-1.5 12.3-2.1 12.3-1.8z"/><path class="b" d="m2016.2 3269.8c-0.1 0.1-1.1-1.1-2.8-3.4-1.9-2.7-4.2-6.1-7.1-10.2-6.1-8.9-14.7-22-25-38.3-20.8-32.7-48-78.6-77.4-129.8-29.4-51.2-56.2-97.3-76.2-130.4-9.8-16-17.9-29.2-23.8-39-2.6-4.3-4.7-7.8-6.5-10.7-1.4-2.4-2.1-3.8-2-3.9 0.2-0.1 1.1 1.1 2.8 3.4 1.9 2.8 4.3 6.1 7.1 10.2 6.1 8.9 14.7 22 25.1 38.3 20.7 32.7 48 78.7 77.3 129.8 29.4 51.2 56.2 97.4 76.2 130.4 9.8 16 17.9 29.3 23.9 39.1 2.5 4.2 4.7 7.7 6.4 10.6 1.4 2.5 2.1 3.8 2 3.9z"/><path class="b" d="m2401.6 3069.5c0.1 0.1-1.2 0.9-3.8 2.3-3 1.6-6.6 3.6-11.1 6-10.4 5.4-24.3 12.7-41.3 21.5-34.8 18.2-82.6 43.9-135.5 72.3-52.8 28.5-100.9 53.7-136.1 71.2-17.6 8.7-31.9 15.7-41.9 20.3-4.7 2-8.5 3.8-11.6 5.2-2.6 1.1-4.1 1.6-4.1 1.5-0.1-0.1 1.2-0.9 3.7-2.4 3-1.6 6.7-3.5 11.2-5.9 10.3-5.4 24.3-12.7 41.3-21.5 34.8-18.2 82.6-43.9 135.5-72.4 52.8-28.4 100.9-53.7 136.1-71.1 17.6-8.8 31.9-15.7 41.9-20.3 4.6-2.1 8.4-3.8 11.6-5.2 2.6-1.2 4-1.7 4.1-1.5z"/><path class="c" d="m991.2 1655.3c0 0-95.1 13.2-41.7 221.4 53.4 208.2 98.6 315.5 98.6 315.5 0 0 7.2 47.1-30.8 45.7-38-1.5-115.5-32.4-141.8 8.7-27.3 42.5-3.5 93.7 56.2 147.4 59.6 53.7 185.9 176 197.3 187.1 11.2 10.9 19.6 34-6.4 37.2-26.1 3.1-211.1-18.6-216.2 69.8-5 88.4 185.6 210.6 206.2 224.4 20.6 13.7 23.9 24.5 19.2 36.4-4.6 12-66.1-1.2-118.9-5.2-52.9-4-114.9 0.6-113.6 51.9 1.4 51.2 101.5 180.7 393.5 277l138.3 35.8 102.2-100.7c205.6-228.7 228.1-390.8 203.8-435.9-24.3-45.2-80.4-18.4-124.3 11.4-43.9 29.8-90.7 71.7-100.7 63.7-9.9-8.1-12.4-19.1-1.4-41.2 11-22.2 115.7-223 67.4-297.2-48.3-74.2-198.1 36.6-222.2 46.8-24.2 10.2-28.3-14.1-24.1-29.1 4.4-15.3 53.2-184.2 78.3-260.4 25-76.2 20.3-132.5-24.5-155.9-43.2-22.5-95.1 42.8-127.4 63-32.3 20.1-49.5-24.4-49.5-24.4 0 0-14-115.6-71.2-322.8-57.1-207.1-148.2-170-148.2-170"/><path class="b" d="m1430.9 3342.8c-41.3-152.4-110.3-424.3-170.7-657.5-60.4-233.1-115.3-444.1-155.9-596.6-20.4-76.1-36.8-137.8-48.3-180.6-5.6-21.2-10-37.7-13.1-49.1q-2.1-8.2-3.3-12.8c-0.7-2.9-0.9-4.4-0.9-4.4 0 0 0.5 1.4 1.4 4.3q1.3 4.5 3.7 12.7c3.2 11.3 7.9 27.8 13.9 48.9 12 42.4 28.9 104 49.6 180.2 41.4 152.3 96.7 363.2 157.2 596.3 60.4 233.2 128.9 505.2 169.5 657.8"/><path class="b" d="m982.2 2294.1c0.1-0.3 3.4 1.5 9.1 4.9 5.7 3.3 13.8 8.5 23.8 14.9 19.9 12.8 47 31.3 76.6 52.2 29 20.7 55.3 39.4 75.4 53.8 9.1 6.4 16.7 11.8 22.9 16.1 5.5 3.8 8.4 6 8.2 6.3-0.1 0.2-3.4-1.5-9.1-4.8-5.7-3.4-13.9-8.5-23.8-15-19.8-13.1-46.7-31.9-76.2-52.8-29.2-20.5-55.6-39-75.7-53.2-9.2-6.4-16.9-11.8-23.1-16.1-5.4-3.8-8.3-6-8.1-6.3z"/><path class="b" d="m1209.7 2435.5c-1-0.6 34.6-58.2 79.5-128.5 45-70.3 82.2-126.8 83.2-126.1 1.1 0.7-34.5 58.2-79.4 128.5-45 70.3-82.2 126.8-83.3 126.1z"/><path class="b" d="m1286.4 2797.7c-0.2-0.2 2.5-2.8 7.6-7.3 5.7-5.1 13-11.4 21.5-18.9 18.2-15.9 43.2-38.1 69.9-63.5 26.8-25.4 50.2-49.2 67.1-66.6 7.9-8.2 14.6-15 19.9-20.6 4.8-4.8 7.5-7.4 7.7-7.2 0.2 0.2-2.1 3.2-6.4 8.4-4.4 5.2-10.8 12.6-18.9 21.6-16.3 17.9-39.5 42.2-66.3 67.6-26.8 25.5-52.2 47.4-70.9 62.7-9.4 7.7-17.1 13.8-22.5 17.8-5.4 4.1-8.5 6.3-8.7 6z"/><path class="b" d="m1052.4 2715.1c0.1-0.3 3.4 0.6 9.5 2.3q10.3 3.2 25.3 7.9c21.3 6.7 50.6 16.4 82.9 27.4 32.4 10.9 61.6 21.1 82.6 28.6q14.7 5.4 24.9 9.2c5.8 2.2 9 3.6 8.9 3.9-0.1 0.3-3.5-0.5-9.5-2.3q-10.3-3.2-25.3-7.8c-21.3-6.8-50.6-16.5-83-27.4-32.3-11-61.5-21.1-82.5-28.7q-14.7-5.4-24.9-9.1c-5.8-2.3-9-3.7-8.9-4z"/><path class="b" d="m1079.4 3043.5c0.1-0.3 4.4 0.8 12.1 3 8.5 2.6 19.4 6 32.5 10 27.3 8.5 65.1 20.6 106.6 34.3 41.6 13.6 79.1 26.2 106.3 35.5 12.9 4.5 23.6 8.3 32 11.3 7.5 2.7 11.6 4.4 11.5 4.7-0.1 0.2-4.4-0.9-12.1-3.1-8.4-2.6-19.3-5.9-32.4-9.9-27.4-8.6-65.1-20.7-106.7-34.3-41.5-13.7-79.1-26.2-106.2-35.6-12.9-4.5-23.7-8.3-32-11.2-7.6-2.8-11.7-4.4-11.6-4.7z"/><path class="b" d="m1373.9 3137.9c-0.2-0.3 3.2-3.6 9.4-9.6 6.8-6.4 15.7-14.8 26.5-24.9 22.3-21 53-50.2 86.1-83.4 33-33.2 62.2-64 83.1-86.4 10.1-10.8 18.4-19.7 24.8-26.6 5.9-6.2 9.3-9.6 9.5-9.4 0.3 0.2-2.7 4-8.2 10.6-5.5 6.6-13.6 16-23.8 27.5-20.3 23-49.2 54.2-82.3 87.4-33.1 33.3-64.2 62.2-87.1 82.6-11.5 10.3-20.9 18.4-27.5 23.9-6.5 5.6-10.3 8.5-10.5 8.3z"/><path class="a" d="m578.4 413.9l-78.1-24.3c0 0-20.4 65.5-88.9 45.4-35.6-10.4-46.7-39.3-48.6-59.4-2.2-23.3 7.7-46 25.3-61.5 20-17.7 55.2-28.5 105-2.8l54.9-176-77.2-24.1-32.2 103.1c0 0-117-5.8-154.2 113.5-35.6 114.2 58.5 172.7 102.3 186.3 33.5 10.5 150.2 38 191.7-100.2z"/><path class="a" d="m504 1.5l78.3 24.4-22.8 73.2-78.3-24.5z"/><path class="c" d="m793.9 215.2l31.2-8.3c0 0-6.9-26.2 20.3-33.9 14.1-4 23.9 3.4 28.7 9.7 5.7 7.3 7.1 17 4.5 25.9-3 10.1-12.5 21.1-34.6 23l18.6 70.5 30.9-8.2-10.9-41.3c0 0 40.4-22.6 27.8-70.4-12-45.7-55.8-45.5-73.4-40.9-13.4 3.6-58.3 18.9-43.1 73.9z"/><path class="c" d="m905.4 337.7l-31.3 8.2-7.8-29.3 31.4-8.2z"/><path class="c" d="m3376.3 1024.8l30.4 11.1c0 0 9.3-25.6 36-16.4 13.8 4.7 17.7 16.4 18.1 24.3 0.5 9.3-3.9 18-11.1 23.9-8.2 6.6-22.3 10.2-41.5-0.8l-24.8 68.5 30 10.9 14.6-40.1c0 0 46.1 4.3 62.9-42.1 16.1-44.5-20-69.2-37.1-75.4-13-4.7-58.6-17.7-77.5 36.1z"/><path class="c" d="m3398.4 1189.1l-30.5-11.1 10.3-28.5 30.5 11.1z"/><path class="a" d="m150 1373l64.4-24.8c0 0-20.8-54 34.9-76.6 29-11.7 51.5 1.6 63.3 13.8 13.6 14.3 18.9 34.5 15.4 53.9-3.9 22.2-21.5 47.8-67.9 56.8l55.9 145.1 63.7-24.5-32.8-85c0 0 80.4-57.4 42.5-155.7-36.3-94.1-129.1-83.5-165.2-69.6-27.6 10.7-119.1 53.6-74.2 166.6z"/><path class="a" d="m415.2 1606.6l-64.6 24.9-23.2-60.3 64.5-24.9z"/><path class="a" d="m3401.4 1617.1l-45.6 17.6c0 0 14.7 38.3-24.8 54.3-20.5 8.3-36.5-1.1-44.8-9.8-9.7-10.1-13.5-24.4-11-38.2 2.8-15.7 15.3-33.8 48.1-40.3l-39.6-102.8-45.1 17.4 23.2 60.2c0 0-56.9 40.7-30 110.4 25.6 66.7 91.4 59.1 117 49.3 19.6-7.6 84.4-38 52.6-118.1z"/><path class="a" d="m3213.5 1451.6l45.7-17.6 16.5 42.7-45.8 17.6z"/><path class="d" d="m1764 3388.3c-976.7 0-1766.2-1-1766.2-2.1 0-1.2 789.5-2.1 1766.2-2.1 976.7 0 1766.2 0.9 1766.2 2.1 0 1.1-789.5 2.1-1766.2 2.1z"/><path class="e" d="m505.1 3178.4c7.6-29.4-11.7-58.9-33.3-80.3-21.7-21.3-47.5-40.5-58.8-68.7-18.2-45.7 6.3-104.9-24.8-143.1-18.3-22.4-51.1-29.9-67.3-53.9-8.5-12.6-11.3-28-14.6-42.8-17.1-75.6-54.9-146.4-108.3-202.6-3.7 67.3 11.2 135.6 42.5 195.2 12.6 24 28 47.4 32.2 74.2 6.8 43.4-17.5 88.2-6.8 130.9 12.2 48.8 67.1 81.5 69.7 131.7 2.2 42.5-34.9 79.8-32.1 122.2 1.2 18.1 9.6 34.9 18.9 50.4 32.8 54.6 81.1 92.2 154.2 91l89.6 3.1z"/><g style="opacity:.3"><path  d="m505.1 3178.4c7.6-29.4-11.7-58.9-33.3-80.3-21.7-21.3-47.5-40.5-58.8-68.7-18.2-45.7 6.3-104.9-24.8-143.1-18.3-22.4-51.1-29.9-67.3-53.9-8.5-12.6-11.3-28-14.6-42.8-17.1-75.6-54.9-146.4-108.3-202.6-3.7 67.3 11.2 135.6 42.5 195.2 12.6 24 28 47.4 32.2 74.2 6.8 43.4-17.5 88.2-6.8 130.9 12.2 48.8 67.1 81.5 69.7 131.7 2.2 42.5-34.9 79.8-32.1 122.2 1.2 18.1 9.6 34.9 18.9 50.4 32.8 54.6 81.1 92.2 154.2 91l89.6 3.1z"/></g><path class="d" d="m584.3 3388.1c0 0 8.6 2 24.7-0.5 8-1.2 17.9-3.3 29.1-7.4 11.2-4 23.8-9.8 36-19.7 5.8-5.1 11.6-11.3 14.8-19.7 3-8.3 3.6-17.4 4.2-26.7 0.5-9.4 0.5-19.1 2.1-29 1.5-9.9 5.4-19.6 10.9-28.8 10.6-18.6 28.1-36.1 33.8-61.3 6.1-24.8 1.7-51.6-2.5-78.5-4.1-26.9-8.1-56.2 2.1-84.2 9.6-28 29.3-53.3 39.1-84.9 9.8-31.9 5.2-66.2 7.3-100 0.9-17 4.2-34 11.7-49.8 7.2-15.8 17.3-30.8 25.1-47.5 15.9-33.7 18.7-72 23.1-109.5q3.2-28.3 6.4-57.2c2.1-19.4 3.9-38.6 10-57.3 5.5-18.8 13.5-36.9 21.4-55.4 3.9-9.3 8-18.6 10.4-29 1.7-10.5 2.2-20.4 2.9-30.8 1-20.5 0.1-41.3-2.4-62-2.5-20.7-6.2-41.2-8.4-61.9-0.1-1.2-0.3-2.4-0.4-3.6l-0.5-4.1-3.6 1.9c-19.2 9.6-35.6 23.9-48.3 40.7-12.8 16.6-22.1 35.4-29.6 54.6-15 38.4-20.3 78.8-27.9 117.3-7.3 38.5-17.1 76.3-36.8 108.3-9.8 16-21.7 30.5-32.1 46.1-10.3 15.4-19.5 32.4-22.2 51-5.3 37.9 15.6 71.2 11.2 104.8-1.5 16.6-8.2 32.2-16.3 46.5-8.1 14.3-17.7 27.5-26.8 40.9-9 13.3-17.7 26.9-24 41.3-6.5 14.4-10.1 29.8-11 44.9-2.2 30.2 2.1 58.9-0.1 85.9-1.9 27.1-11.4 51.7-22.1 73.7-10.9 22-22.9 41.9-33 61.3-5.1 9.6-9.8 19-13.6 28.5-4.1 9.5-6 19.1-7.9 28.3-2.9 18.6-2.6 35.9-0.6 51.2 3.9 30.6 15.3 52.7 25.6 65.2 2.3 3.3 5.1 5.6 7.2 7.8 2.1 2.3 4.2 3.8 5.9 5 3.4 2.5 5.1 3.6 5.1 3.6 0.4-0.5-7.3-4.6-17.3-17.2-9.9-12.4-20.8-34.4-24.3-64.7-1.8-15.1-1.9-32.2 1.1-50.4 1.9-9 3.9-18.5 7.9-27.7 3.9-9.2 8.6-18.6 13.7-28.1 10.2-19.2 22.4-39 33.4-61.2 11-22.1 20.9-47.1 22.9-74.9 2.4-27.7-1.8-56.4 0.5-85.9 1-14.8 4.5-29.5 10.8-43.4 6.2-14 14.7-27.3 23.8-40.5 9-13.3 18.7-26.6 27.1-41.2 8.3-14.5 15.4-30.8 17.1-48.4 4.3-35.7-16.4-69.2-11.1-104.5 2.6-17.4 11.3-33.6 21.5-48.8 10.2-15.3 22.2-29.9 32.3-46.2 20.3-32.9 30.2-71.5 37.6-110.2 7.7-38.7 13.1-78.6 27.8-116.3 7.3-18.7 16.4-37.1 28.8-53.2 12.2-16.2 27.9-29.8 46.2-39l-4.1-2.3c0.1 1.2 0.2 2.4 0.4 3.7 2.2 20.9 6 41.4 8.4 61.9 2.5 20.4 3.3 40.8 2.3 61-0.5 10-1.1 20.5-2.7 29.9-2.2 9.4-6.2 18.7-10.1 28-7.8 18.4-15.9 36.8-21.5 56-6.3 19.1-8.1 39.1-10.1 58.2q-3.2 29-6.4 57.3c-4.3 37.7-7.1 75.3-22.4 107.9-7.6 16.2-17.6 31.2-25.1 47.6-7.6 16.3-11.1 34.3-12 51.5-1.9 34.6 2.6 68.4-6.8 99-9.2 30.5-28.8 55.9-38.7 84.8-10.5 29.2-6.2 59.5-1.9 86.3 4.3 27 8.7 53.2 2.9 77-5.2 24.1-22.2 41.5-33 60.6-5.6 9.4-9.6 19.7-11.1 29.9-1.6 10.2-1.5 20.1-1.9 29.4-0.4 9.2-1 18.2-3.8 26-2.8 7.7-8.3 13.8-13.9 18.8-11.7 9.7-24.1 15.6-35.1 19.8-11 4.2-20.7 6.5-28.7 7.8-7.9 1.5-14.1 1.7-18.2 1.8-4.1-0.2-6.3-0.1-6.3-0.1z"/><path class="d" d="m867.4 2332.8q-0.2 0-0.9 2.7c-0.5 2.1-1.2 4.8-2 8-1.7 7.1-3.8 17.8-7.2 31.1-3.5 13.2-11.6 28.2-18.6 46.7-7.2 18.4-14.5 39.7-21.3 63.6-6.8 23.9-12.9 50.4-19.2 78.8-6.5 28.4-13.1 58.8-28.7 87.5-7.3 14.6-15.6 29.3-22.2 45.4-6.7 16.1-10.3 33.7-12.9 51.4-4.3 35.5-10.8 71.5-19.3 108.4-17.9 73.4-35 143.3-50.6 207-16 63.4-30.3 120.6-42.5 168.8-11.8 47.7-21.3 86.6-28.1 113.9-3.1 13.2-5.6 23.5-7.4 31.1-0.7 3.3-1.3 5.9-1.7 8.1q-0.6 2.7-0.5 2.8 0.2 0 1-2.7c0.6-2.1 1.4-4.7 2.4-7.9 2-7.5 4.8-17.8 8.4-30.8 7.2-27.3 17.3-65.9 29.9-113.5 12.4-48.1 27.2-105.2 43.6-168.5 15.7-63.7 33-133.6 51.1-207.1 8.5-36.8 15.1-73.5 19.3-108.8 2.5-17.5 6-34.5 12.4-50.1 6.4-15.7 14.5-30.4 21.9-45.1 15.7-29.2 22.3-60.6 28.6-88.8 6.1-28.5 11.9-55 18.4-78.8 6.5-23.9 13.5-45.1 20.4-63.5 6.6-18.4 14.5-33.6 17.8-47.4 3.1-13.6 4.8-24.1 6.2-31.3 0.6-3.3 1-6 1.4-8.2q0.4-2.8 0.3-2.8z"/><path class="e" d="m600.2 3388.4c58.5-34.8 75.3-140.4 50.9-203.9-24.5-63.6-67.2-121.6-73.8-189.4-5-52 12-105.5-0.1-156.4-16.4-68.7-83.4-121.9-82.7-192.5 0.5-39.6 23-76.9 21.2-116.5-2.2-48.5-39.5-87-62.5-129.8-35.4-65.5-37.7-142.9-49.8-216.3-12-73.4-40-152-105.1-188.1-9.6 62.4-26 105-20.8 189.5 1.8 30.3 37 88.3 41.8 154.8 2.9 39.7 4.9 79.4 7.3 119.2 2.4 38.7 4.9 78 18.7 114.2 10.7 27.8 27.7 52.9 35.6 81.6 14.9 53.8-4.6 112.2 7.3 166.7 10.2 46.3 42.2 86 48.7 132.9 9.2 65.9-33.4 134.3-11.6 197.1 10.8 31.2 36.5 56.2 43.8 88.4 5.6 25-0.6 51.4 4.6 76.5 8.2 40.4 85.3 71.8 126.5 69.3"/><path class="d" d="m314.5 2057.4q-0.2 0 0.2 3.5c0.4 2.6 0.8 6 1.3 10.3 1.4 9 2.9 22.2 5.9 39.3 3.3 17.1 12.1 36.5 19.2 59.8 7.5 23.3 14.9 50.1 21.5 80.1 6.7 30.1 12.2 63.3 18.1 99 6.1 35.5 12.3 74.8 30 112 8.2 18.7 17.4 37.4 24.3 57.4 7.1 19.8 10.4 41.2 12.4 63.2 3 44.1 8.9 90 17.1 136.3 18 92.3 35 180.3 50.6 260.3 16.3 79.8 31.1 151.6 43.5 212.1 12.6 60 22.7 108.7 29.9 142.8 3.5 16.6 6.4 29.6 8.4 38.8 0.9 4.2 1.7 7.5 2.3 10.1q0.8 3.4 1 3.3 0.1 0-0.4-3.5c-0.5-2.6-1.1-5.9-1.8-10.1-1.8-9.3-4.2-22.4-7.3-39-6.7-34.2-16.3-83.1-28.1-143.2-12.1-60.6-26.4-132.5-42.3-212.3-15.4-80.1-32.3-168-50.1-260.3-8.3-46.3-14.1-91.5-17.2-135.8-2.1-22.1-5.5-44.2-12.8-64.5-7.1-20.4-16.4-39.2-24.6-57.7-17.7-36.7-23.9-75-30.2-110.7-6-35.6-11.9-69-18.8-99.1-6.9-30.1-14.6-56.9-22.4-80.2-7.5-23.4-16.6-42.6-20.1-59.3-3.3-16.8-5.2-30.1-6.9-39-0.8-4.2-1.4-7.6-1.9-10.2q-0.7-3.4-0.8-3.4z"/><path class="e" d="m3135.8 386.2h-31.9c0 0 0 26.7-27.7 27.2-14.5 0.3-22-9.2-25-16.4-3.5-8.5-2.5-18 2.3-25.8 5.4-8.9 17.2-17 38.7-13.3v-71.8h-31.5v42.1c0 0-44.2 11.4-44.2 60.1 0 46.6 41.8 57.4 59.7 57.4 13.6 0 60.2-3.3 59.6-59.5z"/><path class="e" d="m3060.3 241.5h32v29.8h-32z"/><path class="d" d="m3310.2 343.6q0.1 0 0.1-4.1c-0.1-2.9-0.2-6.8-0.4-11.8-0.1-2.6-0.1-5.5-0.3-8.7q-0.7-4.8-1.5-10.5-0.8-5.7-1.8-12.2-1.6-6.4-3.3-13.6c-5-19.1-13.4-42.3-28.8-66-15.2-23.7-37-48.3-66.5-68.3-29.6-19.6-66.8-34.7-108.6-38.7-10.5-0.4-21.2-1.7-32-0.7-5.4 0.4-10.9 0.3-16.3 1.1q-8.2 1.2-16.4 2.5c-21.9 4.4-44.2 10.9-65 22.2-20.9 10.9-40.7 25.1-58.4 42.4-17.3 17.6-32.3 38.2-43.9 61.1-11.7 22.9-19.7 48.2-22.9 74.5-1.3 6.6-1.3 13.2-1.7 19.9-0.4 6.7-0.7 13.4-0.3 20.1 0.5 13.4 2.2 26.9 5 40.2 6.2 29 18 56.2 33.8 80.2l-0.3-2.5c-11.1 27.8-22.1 55-32.7 81.6l-2 4.9 5-1.4c30-8.2 59.1-16.3 87.3-24l-2.2-0.4c30.5 22.9 65.2 37.5 99.7 43.5 17.3 3.1 34.5 4.4 51.1 3.2 8.3-0.3 16.5-0.7 24.5-2.3q6-0.9 12-1.9c3.9-0.7 7.7-1.9 11.5-2.8 61.4-15.8 106.8-53.6 132.7-91.1 13.3-18.7 22.7-37.2 28.6-54.1q2.3-6.4 4.4-12.2 1.5-6.1 2.9-11.6 1.4-5.6 2.7-10.6c0.6-3.4 1-6.7 1.4-9.8 0.8-6.2 1.9-11.6 2.1-16.3q0.3-7 0.4-12c0.1-3.1 0.2-5.5 0.2-7.3q0-2.5-0.1-2.5-0.1 0-0.3 2.4c-0.2 1.9-0.4 4.3-0.6 7.3q-0.3 5-0.8 12c-0.4 4.7-1.6 10-2.5 16.1-4.4 24.1-14 60.1-40.8 96.8-26 36.8-70.9 73.6-131.3 88.8-3.8 0.9-7.5 2.1-11.4 2.8q-5.8 0.8-11.7 1.7c-7.8 1.5-15.9 1.9-24.1 2.2-16.3 1-33.2-0.3-50.1-3.3-33.7-6.1-67.7-20.5-97.5-43l-1-0.7-1.1 0.3c-28.2 7.7-57.4 15.6-87.3 23.8l3 3.5c10.8-26.6 21.7-53.8 32.9-81.6l0.5-1.3-0.8-1.1c-15.4-23.5-26.9-50.1-32.9-78.4-2.8-13-4.4-26.2-5-39.3-0.3-6.6 0-13.1 0.4-19.6 0.4-6.6 0.4-13.1 1.6-19.5 3.1-25.7 10.9-50.5 22.3-72.9 11.3-22.4 26-42.5 42.9-59.8 17.3-17 36.6-30.9 57-41.7 20.4-11.1 42.2-17.5 63.6-22q8.1-1.2 16.1-2.4c5.4-0.8 10.7-0.7 16-1.1 10.6-1.1 21.1 0.1 31.4 0.4 41 3.8 77.6 18.4 106.9 37.5 29.2 19.5 50.8 43.6 66.1 66.8 15.5 23.2 24.1 46.1 29.3 64.9q1.9 7.2 3.5 13.5 1.1 6.4 2 12.1 0.9 5.5 1.7 10.3c0.4 3.2 0.5 6.1 0.7 8.7 0.3 4.9 0.6 8.8 0.8 11.8 0.3 2.6 0.4 4 0.5 4z"/><path class="e" d="m924.5 1287.1h462.1c0 0 0-388 403.1-394.9 209.4-3.6 317.9 133.5 362 238.6 51.3 122 35.8 261.1-32.9 374.2-78.3 129.2-247.1 259-558.5 204.2l-2.9 1029.3h456.8v-610.2c0 0 640.8-165.6 640.8-871.7 0-675.6-546.4-821.6-840-831-163.4-5.2-222.6-12.2-424.7 16.5-257.5 36.5-471.2 335.5-465.8 845z"/><path class="e" d="m1556.1 2953.1h463.6v433.1h-463.6z"/><path class="f" d="m1556.1 2953.1h463.6v433.1h-463.6z"/><path class="f" d="m924.5 1287.1h462.1c0 0 0-388 403.1-394.9 209.4-3.6 317.9 133.5 362 238.6 51.3 122 35.8 261.1-32.9 374.2-78.3 129.2-247.1 259-558.5 204.2l-2.9 1029.3h456.8v-610.2c0 0 640.8-165.6 640.8-871.7 0-675.6-546.4-821.6-840-831-163.4-5.2-222.6-12.2-424.7 16.5-257.5 36.5-471.2 335.5-465.8 845z"/><path class="e" d="m733.2 1287.1h462c0 0 0-388 403.1-394.9 209.4-3.6 318 133.5 362.1 238.6 51.2 122 35.7 261.1-32.9 374.2-78.4 129.2-250.1 246.7-561.5 191.8v1041.7h456.8v-610.2c0 0 640.8-165.6 640.8-871.7 0-675.6-605.9-832.6-865.2-832.6-198.4 0-874 48-865.2 863.1z"/><path class="g" d="m733.2 1287.1h462c0 0 0-388 403.1-394.9 209.4-3.6 318 133.5 362.1 238.6 51.2 122 35.7 261.1-32.9 374.2-78.4 129.2-250.1 246.7-561.5 191.8v1041.7h456.8v-610.2c0 0 640.8-165.6 640.8-871.7 0-675.6-605.9-832.6-865.2-832.6-198.4 0-874 48-865.2 863.1z"/><path class="e" d="m1364.7 2953.1h463.7v433.1h-463.7z"/><path class="g" d="m1364.7 2953.1h463.7v433.1h-463.7z"/><path class="d" d="m1650.5 894.4c0 0.1-2.4-0.1-6.9-0.5-4.5-0.2-11.1-1.5-19.7-1.6-17.1-1.1-42-0.7-72.4 3-30.4 3.8-66.3 11.4-104.6 24.6-19.1 6.9-38.9 14.8-58.3 25.1-19.6 9.9-39 22.1-57 36.9-18 14.6-33.3 31.7-46.6 49.3-13.4 17.5-25 35.4-35 52.9-19.6 35.5-33.1 69.6-41.4 99.1-8.5 29.5-12.2 54.1-13.9 71.2-0.9 8.5-1.2 15.2-1.4 19.7-0.3 4.5-0.5 6.9-0.6 6.9-0.2 0-0.3-2.4-0.3-6.9 0-4.6 0-11.3 0.7-19.9 1.2-17.1 4.5-42 12.7-71.8 8-29.8 21.2-64.3 40.9-100.1 10-17.8 21.6-35.9 35-53.6 13.4-17.7 28.9-35.1 47.3-50 18.2-15 37.9-27.3 57.7-37.3 19.7-10.4 39.7-18.3 58.9-25.1 38.7-13.2 74.9-20.4 105.5-23.9 30.7-3.3 55.7-3.3 72.9-1.7 8.6 0.4 15.2 1.9 19.7 2.4 4.5 0.7 6.8 1.1 6.8 1.3z"/><path class="d" d="m2346.6 811.9q-0.1 0-1.5-1.9c-1-1.4-2.4-3.2-4-5.5-3.7-5.2-8.8-12.4-15.2-21.6-3.4-4.7-6.8-10-11-15.6q-6.7-8-14.5-17.4-7.7-9.5-16.5-20.2c-6-7-13-13.8-20-21.2-7.2-7.3-14.3-15.4-22.4-23q-12.5-11.3-25.9-23.4c-4.5-4-8.9-8.2-13.7-12.2q-7.3-5.8-14.9-11.7c-10.1-7.8-20.2-16.4-31.2-24.2-43.8-31.8-95.1-62.3-151.4-89.4q-21.3-9.7-42.1-19.1-21.3-8.3-41.9-16.3c-13.6-5.6-27.6-9.6-41-14.1-13.5-4.2-26.6-9-39.8-12.1q-19.6-5.2-38.2-10.1c-12.4-3.2-24.8-5.2-36.5-7.8-11.8-2.2-23.1-5.1-34.2-6.5q-16.6-2.4-31.9-4.6c-20.2-3.5-38.7-4.1-54.9-5.8-8.1-0.6-15.7-1.5-22.6-1.8q-10.4-0.3-19.1-0.5c-11.2-0.4-20-0.7-26.4-0.9-2.8-0.1-5.1-0.2-6.8-0.3q-2.4-0.1-2.4-0.2 0-0.2 2.4-0.2c1.7 0 4-0.1 6.8-0.1 6.4 0 15.2 0 26.5 0.1q8.6 0 19.1 0.1c7 0.2 14.5 1 22.7 1.5 16.2 1.4 34.8 1.9 55.1 5.2q15.3 2.1 32 4.3c11.1 1.3 22.5 4.2 34.4 6.4 11.8 2.5 24.2 4.3 36.6 7.6q18.7 4.8 38.5 9.9c13.2 3 26.3 7.9 39.9 12.1 13.5 4.4 27.5 8.4 41.2 14q20.7 8 42.1 16.3 20.9 9.4 42.3 19.1c56.5 27.2 108 58 151.9 90.1 11 7.9 21.1 16.5 31.2 24.4q7.6 6.1 14.9 11.9c4.8 4 9.2 8.3 13.7 12.3q13.4 12.3 25.8 23.7c8.1 7.7 15.2 15.9 22.3 23.3 7 7.5 13.9 14.4 19.9 21.5q8.7 10.8 16.4 20.4 7.6 9.5 14.2 17.8c4.1 5.6 7.5 11 10.7 15.8 6.2 9.4 11.1 16.7 14.6 22 1.5 2.4 2.7 4.3 3.7 5.8q1.2 2 1.1 2.1z"/><path class="d" d="m2298.5 1803.8c0.1 0.1-1.1 1.8-3.5 4.8q-4 5-10.7 13.3c-4.6 5.7-10.3 12.7-17.4 20.5-7 7.8-14.8 16.9-24 26.3-9.2 9.6-19.2 20-30.5 30.6-11 11-23.5 21.9-36.5 33.6-26.5 22.8-56.7 46.7-89.8 69.7-33.3 22.8-66.4 42.5-97.1 59.1-15.6 8.1-30.2 15.9-44.4 22.3-14 6.8-27.3 12.4-39.5 17.5-12.1 5.4-23.3 9.4-33.1 13.2-9.8 3.8-18.3 6.7-25.4 9q-10 3.2-16.2 5.2c-3.7 1.2-5.6 1.7-5.7 1.6 0-0.2 1.9-1 5.5-2.4q6-2.2 15.9-6c6.9-2.5 15.4-5.6 25-9.6 9.7-4 20.9-8.2 32.9-13.7 12-5.2 25.3-11.1 39.1-18 14.1-6.5 28.6-14.4 44.1-22.4 30.5-16.8 63.4-36.5 96.5-59.2 33-22.9 63.1-46.6 89.6-69.2 13.1-11.5 25.6-22.3 36.7-33.2 11.4-10.5 21.5-20.7 30.7-30.2 9.4-9.2 17.3-18.2 24.5-25.8 7.2-7.6 13.1-14.4 17.9-20q7-7.9 11.3-12.7c2.6-2.9 4-4.4 4.1-4.3z"/><path class="d" d="m1814.8 2702.3c-1.2 0-2.1-128.3-2.1-287 0-158.7 0.9-287 2.1-287 1.1 0 2 128.3 2 287 0 158.7-0.9 287-2 287z"/><path class="d" d="m1832.4 3356.8c-1.2 0-2.1-90-2.1-201.4 0-111.4 0.9-201.4 2.1-201.4 1.1 0 2.1 90 2.1 201.4 0 111.4-1 201.4-2.1 201.4z"/><path class="e" d="m2287.2 1225.7c-8.1 16.1 21.8 29.1 39.1 34.3 17.2 5.2 35.6 4.7 53.6 3.7 23.8-1.3 48.5-3.5 69.3-15.4 18.4-10.5 32.1-27.9 41.7-46.8 9.6-18.9 15.5-39.5 21.2-59.9 0 0-189 12.4-224.9 84.1z"/><g style="opacity:.4"><path  d="m2287.2 1225.7c-8.1 16.1 21.8 29.1 39.1 34.3 17.2 5.2 35.6 4.7 53.6 3.7 23.8-1.3 48.5-3.5 69.3-15.4 18.4-10.5 32.1-27.9 41.7-46.8 9.6-18.9 15.5-39.5 21.2-59.9 0 0-189 12.4-224.9 84.1z"/></g><path class="e" d="m2821.1 1174.4c30.9 22.1 68.8 34 106.7 33.5 18.2-0.2 37.4-3.7 50.8-15.9 6.2-5.7 10.8-12.9 17.2-18.3 4.3-3.7 9.3-6.5 13.4-10.4 4-4 7.1-9.7 5.9-15.2-1.3-5.7-6-14.8-11.1-17.7-21.7-12.3-47.6-11.9-72.5-11.3-25 0.6-49.6 6.4-73.2 14.4-19.4 6.5-39.7 15.7-49.5 33.6"/><g style="opacity:.4"><path  d="m3015.1 1148.1c-1.3-5.7-9.2-13.2-14.2-16.1-21.7-12.3-44.5-13.5-69.4-12.9-25 0.6-49.6 6.4-73.2 14.4-19.4 6.5-39.7 15.7-49.5 33.6l12.3 7.3c30.9 22.1 68.8 34 106.7 33.5 18.2-0.2 37.4-3.7 50.8-15.9 6.2-5.7 10.8-12.9 17.2-18.3 4.3-3.7 9.3-6.5 13.4-10.4 4-4 7.1-9.7 5.9-15.2z"/></g><path class="e" d="m2452.2 1461.6l398.8 5.2c3.5 0.1 6-3.3 4.9-6.6l-46.8-146c0 0 6.9-72.9 16.5-160.6 14.4-133.2 33.6-300.6 33.9-300.2-27.2-76.4-188.2-89.4-188.2-89.4l-183.4 10.9-6.5-10.8-52.8 24.6c-11.5 5.3-22.6 11.6-33.1 18.6-34.8 23.4-118.9 76.8-134.2 136.5-35.4 137.9 24.6 291.9 24.6 291.9l38.5-30.1c10-7.6 19.6-14.2 30.5-20.4l77.3 207.1c0 0-16.1 9.8-16.7 26.6-0.7 16.8 8.3 37 36.7 42.7z"/><g style="opacity:.3"><path  d="m2623.1 1217.4c12.7-67.9 6-137.8-0.7-206.7-22.2 56.3-21.4 119.8-44.8 175.6-2.5 6-5.4 12-6.3 18.5-0.8 6.4 0.6 13.6 5.4 18 6.3 5.8 15.8 2.7 24.4 1.6 9.1-1 13.9-4.1 22-7z"/></g><g style="opacity:.4"><path  d="m2476.2 1374.8c32.2 11.2 66.1-9.5 100-13.2 22.3-2.4 44.8 2.7 67 6.3 44.9 7.3 90.8 8.4 136 3.4 6.9-0.8 14-1.8 20-5.2 6-3.4 10.9-12.9 10.5-19.9-75.4-7.7-150.7-12.3-226-20-18.9-2-38.4-3.8-56.5 1.8-22.8 7-40.3 24.9-56.3 42.5"/></g><path class="e" d="m3003.6 1121.7c-32.7-73.3-147.4-276.2-147.4-276.2l-89 111.5 20.8 218.8c0 0 46.9-52.4 178.2-53.5 30.6-0.2 48.9 25.8 48.9 25.8z"/><path class="d" d="m2469.8 1083c-1.1 0.3-7.8-21.1-15-47.9-7.1-26.7-12-48.6-10.9-48.9 1.1-0.3 7.8 21.1 15 47.9 7.1 26.7 12 48.6 10.9 48.9z"/><path class="d" d="m2760.5 942.2c0.2-0.3 3.1 2.2 8.3 6.9 4.9 4.9 12 12.1 19.8 21.8 15.5 19.2 34.5 49.3 42.4 86.9 4 18.7 4.6 37.1 2.6 53.6-2.1 16.3-5.2 30.7-7.2 42.9-2.2 12.2-3.4 22.1-4 28.9-0.7 6.9-0.8 10.7-1.2 10.7-0.2 0-0.6-3.8-0.5-10.7 0.2-7 1-17 2.7-29.3 1.7-12.3 4.5-26.8 6.3-43 1.9-16 1.1-34-2.8-52.3-7.7-36.7-25.9-66.4-40.7-85.9-14.8-19.7-26.3-29.9-25.7-30.5z"/><path class="d" d="m2679.1 1444.2c0.1 0.3-3 1.1-8.7 2.5-2.8 0.7-6.3 1.5-10.4 2-4.1 0.6-8.7 1.5-14 1.7-10.3 1-22.8 1-36.6-0.2-13.7-1.4-28.7-4.1-44-8.8-15.2-4.8-29.1-11.1-41.3-17.7-12-6.8-22.3-13.8-30.3-20.5-4.1-3.2-7.5-6.5-10.5-9.3-3.1-2.8-5.5-5.4-7.4-7.6-3.9-4.3-6-6.8-5.8-7 0.6-0.6 9.2 9 25.6 21.6 8.1 6.3 18.4 13 30.3 19.5 12 6.3 25.7 12.3 40.6 17 15 4.6 29.7 7.4 43.2 9 13.5 1.4 25.8 1.7 36.1 1.1 20.5-1.1 33-4.1 33.2-3.3z"/><path class="d" d="m2802.3 1398.6c0.4-0.1 2 4.2 3 11.6 1 7.4 1.2 18-2.1 29.2-3.2 11.2-9.8 20-15.7 24.8-5.8 4.8-10.3 6.4-10.5 6-0.4-0.6 3.5-3.1 8.5-8.2 5-5 10.7-13.3 13.7-23.8 6.1-21.1 1.5-39.5 3.1-39.6z"/><path class="d" d="m2780.6 1426.7c1-0.2 3.1 11.5-2.1 24.7-5 13.2-14.5 20.4-15.1 19.5-0.8-0.9 6.6-8.8 11.3-21.1 4.8-12.1 4.6-23 5.9-23.1z"/><path class="d" d="m2709.2 1163.5c0.8 0.9-6.6 9.2-14.3 20.5-7.7 11.2-12.8 21.1-14 20.6-1-0.4 2.6-11.4 10.6-23 8-11.6 16.9-18.9 17.7-18.1z"/><path class="d" d="m2435.5 969.8c-0.5 0.5-6.8-4.6-17.7-11.8-10.9-7.1-26.7-15.9-45.3-22.9-18.6-6.9-36.3-10.6-49.2-12.3-12.9-1.8-21-2.1-21-2.8-0.1-0.4 8.1-1.2 21.3-0.2 13.2 1.1 31.4 4.4 50.4 11.4 18.9 7.1 34.8 16.6 45.4 24.4 10.7 7.9 16.4 13.8 16.1 14.2z"/><path class="d" d="m2856.2 842.9c0.8 1.1-20.8 14.2-40.4 37.8-19.9 23.3-29.2 46.8-30.4 46.3-0.5-0.2 1.2-6.3 5.6-15.5 4.3-9.3 11.5-21.5 21.6-33.5 10.1-11.9 20.9-21.2 29.3-27 8.3-5.8 14-8.6 14.3-8.1z"/><path class="d" d="m2691.5 776.9c0.1 0 0.8 1.3 1.8 3.7 1.2 2.5 2.4 6.3 3.7 11.3 2.6 9.9 3.9 25.2-0.1 43.3-4.2 17.9-14.2 38.7-32.7 55.1-18.3 16.5-45.3 26.3-73.6 26.2-28.3-0.2-54.9-9.8-74.3-24.8-19.6-14.8-32.6-33.2-40.9-49.6-8.1-16.5-11.9-31-13.6-41.1-0.8-5.1-1.3-9-1.4-11.7-0.2-2.7-0.2-4.1-0.1-4.2 0.4 0 0.9 5.6 3.1 15.5 2.2 9.9 6.3 24.1 14.7 40.2 8.4 15.8 21.3 33.7 40.5 47.8 18.9 14.3 44.6 23.6 72.1 23.8 27.3 0.1 53.3-9.3 71-25 17.9-15.6 27.9-35.6 32.3-52.9 4.3-17.5 3.5-32.4 1.4-42.3-1.9-9.9-4.4-15.1-3.9-15.3z"/><g style="opacity:.3"><path  d="m2719.5 1177.7c-0.1-4-0.7-8.7-4.1-10.7-2.2-1.3-5-1-7.3 0.1-2.2 1.1-4.1 2.9-5.8 4.8-9.6 10.5-16.4 20.7-21.3 34.1l39.2-3.3c-0.3-8.3-0.5-16.7-0.7-25z"/></g><g style="opacity:.3"><path  d="m2849.7 1095.2c-3-22.4-14.5-43-28.5-60.8 16.9 55.4 11.3 86.6 1.8 124.5l2-5.3c10.9-22.1 27.7-36 24.7-58.4z"/></g><path class="h" d="m2771.3 2954.9l-23.9 358.8-156-1.8-24.6-373.1z"/><path class="e" d="m2751.9 3266.5v10.3c0 0 175.8 70.8 177.7 104.2l-349.3-2 5.5-116.2c51.7 24.3 106.1 27.3 166.1 3.7z"/><path class="i" d="m2620.9 3300.1c-6.8 1.8-11.5 9.4-10 16.2 1.6 6.9 9.2 11.7 16 10.1 6.8-1.7 12.8-10.7 10.5-17.3-2.3-6.6-11.6-11.8-17.8-8.5"/><path class="d" d="m2580.3 3379l1.3-28 334.3 12.2c0 0 15.5 6.9 13.7 17.8z"/><path class="d" d="m2753.1 3277.8c-0.1 1.7-8.6 2.5-17 7.9-8.6 5.2-12.9 12.6-14.5 11.9-1.6-0.4 1-10.5 11.3-16.9 10.3-6.5 20.6-4.4 20.2-2.9z"/><path class="d" d="m2789.7 3293.2c0.3 1.7-7.1 4.5-12.9 11.7-6 7-7.6 14.8-9.2 14.7-1.7 0.3-2.8-9.7 4.7-18.5 7.3-8.9 17.3-9.5 17.4-7.9z"/><path class="d" d="m2810.2 3337.2c-1.5 0.3-3.9-8.2 0.6-17.5 4.3-9.4 12.4-13 13.1-11.6 1 1.4-4.2 6.4-7.8 14.1-3.7 7.6-4.2 14.8-5.9 15z"/><path class="d" d="m2742.9 330.8c9-22.4-1.9-49.5-21.4-63.9-19.5-14.3-45.4-17.4-69.3-13.6-23.9 3.8-46.3 13.8-68.3 23.6-20-20.1-51.7-27.7-78.7-18.9-26.9 8.8-48 33.6-52.3 61.7-17.2-4.4-36.6 1.5-48.4 14.7-11.9 13.1-15.8 33-9.7 49.7l108.2 38 118.1 207.7c34.5 29.5 91 28.7 124.6-1.8 33.7-30.4 40.2-86.5 14.4-123.8 6.7-5.9 12.1-12.9 16.6-20.5 18.7-11.6 33.4-29.7 38.2-51.2 10.3-45.7-25.5-96.2-72-101.7z"/><path class="h" d="m2671.3 764c-6.7-33.9-11.4-57-11.3-56.8 0 0 63.7-24.8 59.3-113.9-2.1-44.2-19-114.1-34.7-170.8-14.1-51-61.7-107.2-112.1-91l-152.3 74.4c-15.3 5-18 19.3-14.4 35l0.3 7.7 59.2 245.2 25.1 109.6c11.1 46.7 55.9 77.1 103.4 70.3 52.5-7.6 87.8-57.7 77.5-109.7z"/><path class="d" d="m2683.6 481.8c1.4 5.8-2.3 11.8-8.3 13.4-6 1.6-12.1-1.8-13.5-7.6-1.5-5.8 2.3-11.8 8.3-13.4 6-1.6 12.1 1.8 13.5 7.6z"/><path class="d" d="m2677 464.8c-1.1 1.7-10.7-2.8-22.6-0.2-11.9 2.3-19.4 10.3-21 9.1-0.7-0.5 0.1-3.4 3.3-7 3.2-3.5 9-7.5 16.4-9.1 7.4-1.5 14.3-0.1 18.4 2 4.3 2 6.1 4.4 5.5 5.2z"/><path class="d" d="m2567.8 508.3c1.5 5.8-2.3 11.8-8.3 13.4-6 1.6-12-1.8-13.5-7.6-1.4-5.8 2.3-11.8 8.3-13.4 6.1-1.6 12.1 1.8 13.5 7.6z"/><path class="d" d="m2562 493c-1.1 1.7-10.8-2.8-22.6-0.2-11.9 2.3-19.4 10.3-21 9.1-0.8-0.5 0.1-3.4 3.3-7 3.2-3.5 9-7.5 16.4-9.1 7.4-1.5 14.2-0.1 18.4 2 4.2 2 6 4.4 5.5 5.2z"/><path class="d" d="m2622.2 568.2c-0.2-0.7 7-3.5 18.6-7.5 3-1 5.7-2.2 5.8-4.4 0.3-2.3-1.7-5.3-3.9-8.6q-6.6-10.1-13.8-21.2c-19.4-30.3-34.1-55.5-32.9-56.3 1.2-0.7 17.9 23.2 37.3 53.5q7.1 11.2 13.5 21.5c1.9 3.2 4.7 6.7 4.1 11.6-0.4 2.4-2.2 4.5-4.1 5.5-1.8 1-3.5 1.4-5 1.8-11.9 3.1-19.4 4.8-19.6 4.1z"/><path class="j" d="m2660 707.2c0 0-57.2 15.9-121.9-6.5 0 0 41.9 54.7 126.4 28.5z"/><path class="d" d="m2564.2 476c-0.7 3.4-13 3.3-26.9 6.8-14 3.1-25 8.6-27.2 5.9-1-1.3 0.6-4.6 4.8-8.3 4.2-3.8 11.2-7.7 19.5-9.7 8.4-1.9 16.4-1.5 21.8 0 5.4 1.4 8.4 3.7 8 5.3z"/><path class="d" d="m2672.5 426.9c-1.9 3.2-12.2 2.5-23.9 4.8-11.7 2-21.1 6.3-24 4-1.3-1.2-0.3-4.2 3.5-7.7 3.7-3.4 10.4-7 18.4-8.5 8.1-1.4 15.5-0.5 20.2 1.5 4.7 1.9 6.6 4.4 5.8 5.9z"/><path class="d" d="m2457.7 348.6c3.5 17.3 15 32.8 30.5 41.1 15.6 8.3 34.8 9.4 51.2 2.7 12.6-5.1 25.7-14.8 38.5-10.1 13.6 4.9 17.8 22.9 30.4 29.9 17.9 10 39.5-7.4 60-5.6 15.8 1.3 28.1 13.6 40.5 23.5 12.4 10 29.6 18.3 43.5 10.8-3.7-13.2-7.5-26.6-14.1-38.6-6.7-12-16.6-22.7-29.3-27.7-7-2.7-14.7-3.7-21.4-7.1-14.4-7.4-20.9-24.2-31.4-36.6-13.6-15.9-35.2-24.6-56.1-22.4-17.3 1.7-33.7 10.5-51.1 9.7-12.9-0.5-25.2-6.2-38.1-6-25 0.4-43.9 22.3-57.8 43.2"/><path class="d" d="m2542 366.9c-11.5-0.8-35.1-3.2-42.8-11.4-16.8-17.8-41.9-27.1-64.3-21.1-22.5 5.9-40.5 28.4-40.2 53.3-27.4 5.9-50.6 28.7-58.4 57.4-7.8 28.6 0.2 62 20 84 5.2 5.8 13.1 19 13.1 19 0 0-10.3 12.9-14.2 21.6-18.3 40.5 31.3 56 31.3 56 0.2 27.2 25.2 27 41.3 27 15.5-0.1 25 42.8 37.5 41.1l-12.7-132.5c1.6 0.6 3.5 1 5.9 1.1 30.3 0.5 22.4-56.8 12.6-71.7 8.5-11.5 17.2-23.1 22.7-36.6 5.6-13.5 5.9-47.2 1.2-61.3 10.6-1.6 52-25.5 47-25.9z"/><path class="h" d="m2457.2 568.3c-4.8-18.1-27.3-26.2-41.3-13.7-7.7 6.8-12.2 18.4-7.4 37.7 12.9 51.5 62 27.9 61.7 26.4-0.2-0.9-7.5-29.1-13-50.4z"/><path class="j" d="m2449.5 603.1c-0.2-0.1-0.7 0.9-2 2-1.3 1-3.8 2.1-6.7 1.8-5.9-0.7-12.7-8.2-15.3-17.4-1.3-4.6-1.4-9.3-0.7-13.4 0.6-4.2 2.4-7.4 5-8.6 2.6-1.3 5-0.2 6 1.1 1 1.3 0.9 2.4 1.2 2.4 0.2 0.1 0.9-1.1 0-3.2-0.5-0.9-1.4-2-2.9-2.7-1.5-0.7-3.4-0.7-5.3 0-3.9 1.2-6.5 5.8-7.3 10.3-1 4.6-1 9.9 0.5 15.1 2.9 10.3 10.6 18.7 18.6 19 3.9 0 6.6-1.8 7.9-3.4 1.3-1.7 1.3-2.9 1-3z"/><path class="k" d="m2733.4 496.4c-0.3-0.4 4.7-3.6 11.2-11.6 6.5-8 14.3-21.6 16.1-40 0.9-9.2 0.4-19.4-2.9-29.7-3.3-10.2-9.2-20.5-18.3-28.4-17.7-16.2-47.1-23.6-73.5-14.3-2.4 0.7-4.6 1.9-6.9 2.9-2.2 1.1-4.3 2.4-6.3 3.6l-3.2 1.7v-3.5c-0.1-6.2-2.4-12.2-6.5-16.8-4-4.6-9.2-8.1-14.8-10.6-11.2-4.9-23.3-5-34.3-2.5-22.1 5-40.8 15.1-58.5 17.2-17.5 2.2-32.1-2.1-39.9-8-4.1-2.9-6.3-6-7.8-8.1-1.3-2.2-1.9-3.3-1.8-3.4 0.4-0.3 2.6 4.9 10.5 10.2 7.7 5.2 21.7 9 38.6 6.5 8.4-1.3 17.3-4.3 26.9-7.8 9.5-3.5 19.7-7.7 31.2-10.2 5.7-1.3 11.8-2.2 18.1-1.8 6.3 0.3 12.6 1.7 18.6 4.2 6 2.6 11.8 6.4 16.3 11.6 4.6 5.2 7.5 12.3 7.5 19.5l-3.2-1.7c2.2-1.3 4.4-2.6 6.7-3.8 2.5-1.1 4.8-2.3 7.4-3.2 28.1-9.8 58.8-1.8 77.5 15.4 9.6 8.5 15.7 19.5 19 30.3 3.4 10.8 3.6 21.5 2.5 31-2.2 19.1-10.8 32.9-17.7 40.7-3.6 4-6.7 6.7-9 8.3-2.2 1.6-3.4 2.4-3.5 2.3z"/><path class="k" d="m2722.9 315.6c-0.3 0.5-5.4-4.1-16.6-5.7-5.4-0.7-12.3-0.7-19.6 1.7-7.3 2.3-15 7.1-20.3 14.8l-2 2.8-1.2-3.2c-6.5-17.2-25.4-33.7-48.8-36.2-17.6-2-33.6 5.9-46.9 13.5-13.4 7.9-25.6 15.6-37.2 19.3-11.4 4-21.5 4.4-28.1 3.3-3.3-0.6-5.9-1.4-7.5-2.1q-2.4-1-2.4-1.2c0.2-0.4 3.6 1 10.1 1.7 6.5 0.6 16-0.3 26.9-4.5 11.1-3.9 22.8-11.6 36.3-19.8 6.8-4 14.1-8 22.4-10.9 8.2-3 17.5-4.5 26.9-3.5 25.1 2.8 45.1 20.5 51.7 39.1l-3.2-0.3c6.1-8.4 14.6-13.4 22.4-15.6 7.9-2.3 15.2-2.1 20.9-1 5.7 1.1 9.9 3.2 12.5 4.8 2.6 1.7 3.8 2.8 3.7 3z"/><path class="e" d="m2617.6 591.8c-3.6-3.5-9-4.6-14-4-4.7 0.5-10.5 4.7-13.5 9.8q-0.1 0.2-0.2 0.3c-0.1 0.2-0.3 0.4-0.5 0.7l0.2-0.2c-1.1 1.8-1.7 4-1.5 6.1 0.5 4.7 4.1 8.7 8.4 10.8 6.7 3.4 15.7 2.4 20.9-3 5.3-5.5 5.7-15.2 0.2-20.5z"/><path class="d" d="m2621.6 616.7c-0.6 0.2-1.4-2.3-3.5-5.7-2.1-3.3-5.8-7.5-11.2-10-5.3-2.4-10.9-2.4-14.8-1.8-3.9 0.6-6.3 1.6-6.6 1.1-0.3-0.4 1.7-2.5 5.9-4 4.2-1.4 10.8-2 17.3 1 6.4 2.9 10.4 8.3 12 12.4 1.7 4.1 1.4 7 0.9 7z"/><path class="e" d="m2458.3 626.6c0.4-0.2 2.3 4-0.7 10.1-1.5 2.9-4.2 6.1-8.5 7.7-4.3 1.7-9.8 1.1-14.1-1.7-4.4-2.7-7.3-7.4-7.6-12-0.4-4.5 1.3-8.4 3.2-11 4.2-5.3 8.9-5.4 8.8-5 0.3 0.6-3.5 1.8-6.3 6.6-1.4 2.4-2.4 5.6-1.9 9 0.4 3.4 2.6 6.7 6 8.9 3.4 2.1 7.4 2.7 10.6 1.6 3.3-1.1 5.7-3.4 7.3-5.6 3.1-4.6 2.5-8.6 3.2-8.6z"/><path class="e" d="m2431.3 623.5c0.5 0.2-0.2 2.8-3.7 4.5-1.7 0.8-4.1 1.3-6.6 0.6-2.7-0.6-5.2-2.5-6.6-5.2-1.4-2.6-1.7-5.8-0.8-8.3 0.9-2.5 2.6-4.2 4.2-5.2 3.3-2 5.8-1.2 5.8-0.7 0 0.6-2 1-4 3-2 1.9-3.5 5.7-1.5 9.2 1.9 3.7 5.8 4.4 8.5 3.8 2.8-0.6 4.2-2 4.7-1.7z"/><path class="h" d="m2519.3 1334c0 0 198.1 11.5 315.2 12.6 90.6 0.8 131.1-23.3 149.2-81.5 15.2-48.9-17.5-142.8-17.5-142.8-61.3 0.4-99.2 8.8-138.6 27.3l10.5 42.9-319.4 27.5z"/><path class="j" d="m2904.7 1238.3c-1.1 0.7-10.4-16.6-29.9-29.7-19.3-13.4-38.9-15.7-38.6-17 0.1-0.5 5-0.6 12.7 1.1 7.7 1.7 18.2 5.6 28.2 12.4 10 6.9 17.5 15.2 21.9 21.7 4.4 6.6 6.1 11.2 5.7 11.5z"/><path class="h" d="m2446.8 1149.3c0 0-61.3 14.7-106.3 44.8l47.9 130.1c15.9 42.7 64.9 63.7 103.7 41.5 60.2-34.4 81.5-134.9 81.5-134.9l66.2-287-109.7-68.7z"/><path class="h" d="m2530.1 875.1l4.4-94.4-24.5-95.6c-1.3-5.3-2-11.9 2.3-15.2 4.5-3.3 11.2-3.2 14.8 0.5 6.7 6.9 38.7 90.8 38.7 90.8 0 0 48.5-29.1 57.2-30.6 8.6-1.4 19.4 24.7 20.1 26.8 0.7 2.1 0.1 17.5 0.1 17.5 0 0 30 0.9 32.7 5.1 2.7 4.1 3.5 25.4 3.5 25.4 0 0 12.7 4.1 14.7 13.7 2 9.7 6.1 25.5 0.1 28.9-5.9 3.5-18.6 10.5-18.6 10.5 0 0-5.1 49-6.4 53.4-1.3 4.5-29.4 31.9-29.4 31.9z"/><path class="j" d="m2428.1 1367.7c0.1-0.3 3 1.7 9.2 3.7 6.1 2.1 15.8 3.9 28.3 2.3 12.2-1.7 27.4-7.1 40.9-18.9 13.3-12.1 26.8-28.1 38.1-48.2 5.6-10.1 10.6-21.1 14.8-33.1 4.3-11.9 7.1-24.8 10.3-38.3 6.2-27 13-56 20.2-86.8 14.4-61.8 30.6-130.8 48-205.1l0.1-0.5 0.4-0.4c5.5-5.4 11-11 16.5-16.7 2.8-2.9 5.5-5.8 8.1-8.7 1.3-1.5 2.6-3.1 3.6-4.6 1-0.9 1-2.9 1.4-4.9 2.1-16 3.8-32.6 5.6-49.2l0.1-1.1 0.9-0.5q7.5-4.2 15.3-8.6c1.1-0.7 2.9-1.5 3.6-2.1 0.6-0.5 1.2-1.4 1.4-2.6 0.6-2.5 0.4-5.5 0.1-8.3-0.7-5.7-2-12.2-3.5-17.4-2-4.9-7.5-8.4-12.8-10.3l-1.4-0.5v-1.4c-0.2-4.6-0.5-9.4-1-14.1-0.3-2.4-0.6-4.8-1.1-7.1-0.3-1-0.6-2.3-0.9-2.9-0.3-0.6-0.2-0.2-0.5-0.5-0.4-0.2-0.8-0.4-1.4-0.6-8.9-2.4-19.3-2.8-29.3-3.3l-2-0.1v-2c0.2-5 0.4-10.5 0.1-15.7 0.2-1.3-1.1-3.4-1.8-5.3q-1.3-2.9-2.8-5.7c-1.9-3.8-4-7.4-6.5-10.6-1.2-1.6-2.6-3.1-4.1-4-1.6-1-2.3-1.2-4.2-0.5-3.7 1.3-7.6 3.3-11.3 5.2-14.9 7.8-29.4 16.2-43.7 24.7l-2.1 1.2-0.8-2.2q-11.4-28.4-22.4-56.1-5.6-13.8-11-27.4c-1.3-4.6-4.5-7.2-8.8-8.3-4.2-1.1-8.4 0.3-10.4 3.8-1 1.7-1.4 3.8-1.2 5.7 0.2 1.8 1.1 4.5 1.6 6.7q1.8 6.9 3.6 13.8 3.6 13.7 7.2 27.2 7 26.9 13.8 52.8l0.1 0.3v0.3c-1.6 32.8-3.1 64.3-4.6 94.3v0.3 0.2c-30.3 98.3-55.3 179.9-72.9 237.1-8.9 28.4-15.8 50.7-20.6 66q-3.6 11.2-5.5 17.4c-1.3 3.9-2.1 5.8-2.1 5.8 0 0 0.5-2 1.6-6q1.8-6.2 5-17.5c4.6-15.4 11.2-37.8 19.7-66.2 17.2-57.3 41.8-139.1 71.4-237.6v0.4c1.3-30 2.8-61.6 4.2-94.4l0.1 0.5q-6.8-25.8-14-52.7-3.5-13.5-7.2-27.2-1.8-6.9-3.6-13.8c-0.6-2.4-1.3-4.3-1.8-7.2-0.3-2.8 0.3-5.7 1.8-8.2 1.4-2.4 3.6-4.4 6.4-5.4 2.8-1 5.6-0.9 8.3-0.3 2.6 0.6 5.2 1.8 7.3 3.7 2.2 1.8 3.6 4.8 4.3 6.9q5.5 13.7 11 27.5 11.1 27.6 22.5 56.1l-3-1c14.3-8.5 28.8-17 43.9-24.9 3.9-1.9 7.6-3.9 11.9-5.4 1.1-0.4 2.3-0.8 4-0.6 1.5 0.2 2.8 0.8 3.8 1.5 2.1 1.4 3.6 3.2 5.1 4.9 2.7 3.6 4.9 7.4 6.9 11.3q1.5 2.9 2.9 5.9c0.7 2 2.1 3.7 2.2 6.8 0.3 5.6 0 11-0.1 16l-2-2.1c10.3 0.5 20.2 0.7 30.5 3.5 0.6 0.2 1.4 0.6 2.1 0.9 0.6 0.3 1.9 1.4 2 2.1 0.8 1.5 1 2.7 1.4 4 0.5 2.6 0.8 5 1.1 7.5 0.5 4.9 0.8 9.7 1 14.4l-1.4-1.8c6.2 2.3 12.3 5.9 15.3 12.6 1.9 6.6 2.9 12.1 3.8 18.5 0.3 3.1 0.6 6.3-0.2 9.7-0.3 1.7-1.2 3.6-2.9 5-1.6 1.2-2.7 1.6-4.1 2.4q-7.7 4.3-15.3 8.6l1.1-1.6c-1.8 16.7-3.5 33.2-5.8 49.4l-0.5 3.1c0 0.9-0.8 2.7-1.4 3.5-1.3 1.8-2.6 3.3-4 4.9-2.7 3.1-5.4 6-8.2 8.9-5.5 5.7-11.1 11.3-16.6 16.7l0.5-1c-17.6 74.3-33.9 143.2-48.6 204.9-7.3 30.8-14.2 59.8-20.6 86.8-3.2 13.4-6.1 26.5-10.6 38.5-4.3 12.1-9.5 23.2-15.2 33.4-11.5 20.3-25.3 36.3-38.9 48.4-14.1 12-29.5 17.3-42.1 18.8-12.6 1.5-22.5-0.7-28.6-2.9-3.1-1.2-5.4-2.3-6.8-3.1q-2.2-1.2-2.2-1.3z"/><path class="j" d="m2643.2 774.8c0 0.6-2.7 0.9-6.9 1.1-4.3 0.2-10 0.3-16 1.9-5.9 1.5-10.7 4.5-13.6 7.2-2.9 2.7-4.2 5.1-4.8 4.8-0.4-0.1-0.1-3.1 2.6-6.7 2.7-3.7 8-7.7 14.8-9.4 6.7-1.7 12.8-1.3 17.1-0.8 4.2 0.6 6.8 1.3 6.8 1.9z"/><path class="j" d="m2619.7 775.7c-1.1-0.4-1.1-2.9-0.1-5.6 0.9-2.6 2.6-4.4 3.7-4 1.1 0.4 1.1 2.9 0.2 5.5-1 2.6-2.7 4.5-3.8 4.1z"/><path class="j" d="m2680.7 804.7c0 1.2-10.7 2.5-23.8 3.3-6.4 0.6-11.3 2.9-13.2 6.4-2.1 3.2-1.4 5.9-2 6.1-0.4 0.4-2.6-2.7-0.6-7.5 0.9-2.2 2.8-4.7 5.7-6.3 2.8-1.6 6.2-2.4 9.6-2.8 13.5-0.9 24.3-0.3 24.3 0.8z"/><path class="j" d="m2674.7 859.7c-1.2 0-2.1-5.8-2.1-13.1 0-7.2 0.9-13.1 2.1-13.1 1.2 0 2.2 5.9 2.2 13.1 0 7.3-1 13.1-2.2 13.1z"/><path class="i" d="m2708.6 1049l7.1-24.6c1.4-4.9 7.6-6.4 11.2-2.8l9.3 9.5 5.8-23.1c1.5-6.1 9.8-6.9 12.5-1.2l13.1 27.3z"/><path class="i" d="m2767.8 1044.6c0.2 1.1-12.4 5.2-28.3 9.1-15.9 3.9-29 6.2-29.3 5.1-0.2-1.1 12.4-5.2 28.3-9.1 15.9-4 29-6.2 29.3-5.1z"/><path class="i" d="m2292 907.8c0.2 0.2-3 3.1-7.1 9.5-4.1 6.4-8.6 16.7-10.8 30.2-2.4 13.5-2.5 29.9-1.5 48 0.9 18.1 2.4 37.9 4.6 58.7 4.4 41.7 11.1 79 16.9 105.8 2.8 13.4 5.4 24.2 7.1 31.7 0.8 3.3 1.5 6.1 2.1 8.6 0.5 1.9 0.6 3 0.6 3 0 0-0.4-1-0.9-2.9-0.7-2.5-1.5-5.3-2.4-8.6-2-7.4-4.7-18.1-7.7-31.5-6-26.8-13-64.2-17.4-105.9-2.2-20.8-3.6-40.7-4.4-58.9-0.9-18.1-0.7-34.6 1.8-48.2 2.4-13.6 7.1-24 11.5-30.3 4.3-6.4 7.6-9.2 7.6-9.2z"/><path class="i" d="m2460.4 799.1c0 0-0.6 0.3-1.8 0.9-1.7 0.8-3.4 1.6-5.3 2.6-4.6 2.1-11.2 5.4-19.1 9.7-16 8.6-37.3 21.9-60.2 37.6-22.8 15.7-43 30.6-57.8 41.1q-10.2 7.2-17.6 12.5c-1.7 1.2-3.3 2.2-4.8 3.3-1.1 0.7-1.8 1.1-1.8 1 0 0 0.5-0.5 1.6-1.3 1.4-1.1 2.9-2.3 4.6-3.6q7.3-5.4 17.3-12.8c14.6-10.8 34.7-25.8 57.6-41.6 22.9-15.7 44.3-28.8 60.5-37.2 8-4.3 14.7-7.3 19.4-9.3 2-0.8 3.8-1.6 5.4-2.3 1.3-0.5 1.9-0.7 2-0.6z"/><path class="i" d="m2841.9 851.1q-0.1 0-1.3-1-1.7-1.5-3.6-3.1c-3.2-2.7-7.9-6.4-14.1-10.5-12.2-8.3-30.4-17.6-51.4-26-21-8.4-40.5-14.3-54.8-18.3-7.1-1.9-13-3.4-17-4.4q-2.4-0.6-4.6-1.2-1.6-0.4-1.6-0.5 0-0.1 1.7 0.2 2.2 0.4 4.7 0.9c4 0.8 9.9 2.1 17.1 3.9 14.4 3.6 34.1 9.4 55.1 17.8 21.1 8.5 39.4 18 51.5 26.6 12.3 8.5 18.3 15.6 18.3 15.6z"/><path class="i" d="m2462.6 1461.8c0 0.1-1.1-0.3-3.1-1.1-1.9-0.8-4.7-2.2-7.9-4.3-6.3-3.9-14.9-11.8-17.4-23.5-2.7-11.6-0.2-22.5 3.1-29.3 1.6-3.5 3.3-6.1 4.6-7.7 1.3-1.7 2.2-2.5 2.2-2.5 0.3 0.2-2.9 3.8-5.7 10.7-3 6.8-5.1 17.3-2.6 28.4 2.4 11.2 10.4 18.8 16.4 23 6.2 4.2 10.6 6 10.4 6.3z"/><path class="i" d="m2437.2 1375.1c0.4-0.1 2.1 4.4 3.8 10.1 1.6 5.7 2.6 10.4 2.2 10.5-0.5 0.1-2.2-4.4-3.8-10.1-1.7-5.6-2.7-10.3-2.2-10.5z"/><path class="d" d="m2545.3 3168.8l244.1-1.2-4.5-843.7-2.2-858.2-330.5-4.1-59.5 112c-23.9 45.2-40.2 94.3-45.7 145.2-4.1 38.8 24.9 165.2 35.1 197.4l90.9 288.5z"/><path class="d" d="m2854.3 1466.9l268.1 731c31.5 97.9 21 195-33.1 285.5l-311.3 607.7-175-219 260.5-544.3-229.7-372.1 38.7-488 108.1-1.8z"/><path class="k" d="m2760.4 1711.8c0 0 0.2 1.2 0.4 3.7q0.2 4 0.6 11c0.6 9.9 1.3 24.2 2.3 42.4 1.8 37 4.4 90.2 7.5 155.9 3.1 65.9 6.7 144.2 10.7 231.2 1.9 43.5 4 89.2 6.1 136.6 1.6 23.6 0.9 47.8 1.1 72.3q0.1 36.7 0.3 74.4c0.3 201.1 0.6 383 0.8 515-0.1 65.7-0.1 119-0.2 156-0.1 18.3-0.2 32.6-0.3 42.5q-0.1 7-0.1 11c-0.1 2.5-0.2 3.8-0.2 3.8 0 0-0.2-1.3-0.3-3.8q0-4-0.2-11c-0.1-9.9-0.3-24.2-0.5-42.5-0.3-37-0.7-90.3-1.1-156-0.6-131.9-1.3-313.9-2.1-514.9q-0.1-37.7-0.2-74.5c-0.3-24.4 0.4-48.6-1.1-72.2-2-47.4-4-93-5.9-136.6-3.6-87-6.9-165.3-9.7-231.2-2.6-65.7-4.7-118.9-6.2-155.9-0.7-18.3-1.1-32.5-1.5-42.4q-0.2-7.1-0.3-11.1c0-2.5 0.1-3.7 0.1-3.7z"/><path class="k" d="m2754.3 1481.3c0.3 0 0.8 2.8 1.7 8 0.8 5.1 1.8 12.6 2.8 21.8 2.2 18.5 4.4 44.2 5.7 72.6 1.3 28.4 1.4 54.2 0.9 72.8-0.2 9.3-0.5 16.8-0.9 22-0.4 5.2-0.7 8.1-1 8.1-0.6 0-0.7-11.5-1-30.1-0.3-18.6-0.9-44.3-2.1-72.6-1.3-28.3-3.1-54-4.5-72.5-1.4-18.5-2.2-30-1.6-30.1z"/><path class="k" d="m2700.5 1497.8c0.4 0.5-4.2 2.6-5.4 9.1-0.6 3.1 0 7.1 3.1 9.7 2.9 2.7 7.9 4.1 12 2.2 4-1.8 6.3-6.5 6.2-10.5-0.1-4-2.6-7.1-5.4-8.7-5.7-3.3-10.3-1.2-10.4-1.9-0.1-0.2 0.7-1 2.8-1.6 2-0.6 5.4-0.8 9 0.9 3.5 1.5 7.5 5.5 7.8 11.1 0.4 5.4-2.3 11.7-8.3 14.5-6 2.7-12.6 0.6-16.4-3.2-4-3.9-4.5-9.5-3.3-13.2 1.1-3.8 3.4-6.2 5.2-7.4 1.8-1.1 3-1.2 3.1-1z"/><path class="k" d="m2572.5 1483.3c0.2-0.1 1.2 2.6 2.2 7.6 1 5.1 1.6 12.6 0.7 21.8-0.9 9.2-3.7 20-9.3 31-5.5 10.9-14.1 21.8-25.6 30.2-11.7 8.2-24.8 12.9-36.9 14.7-12.1 1.7-23.3 0.9-32.3-1.2-9-2.1-15.9-5.1-20.4-7.6-4.4-2.6-6.7-4.4-6.5-4.6 0.4-0.8 9.8 6 27.5 9.3 17.2 3.4 43.8 1.9 66.1-14 22.2-16.1 32.2-40.7 34.4-58.2 2.6-17.8-0.8-28.9 0.1-29z"/><path class="k" d="m2886.4 1553.3c0 0.4-6.1 0.9-15.4-1.8-9.3-2.6-21.5-9.1-31.5-20.1-10-11.1-15.3-23.8-17-33.3-1.8-9.6-0.7-15.5-0.3-15.5 0.7 0 0.8 5.9 3.2 14.8 2.3 8.9 7.8 20.7 17.2 31.2 9.5 10.4 20.7 16.9 29.3 20.1 8.7 3.3 14.5 3.9 14.5 4.6z"/><path class="k" d="m2981.7 2341.4c0.3 0.3-4.6 5.2-14.2 11.2-4.8 2.9-10.8 6.1-18.2 8-7.3 1.9-16.1 2.1-24.5-0.7-17.1-5.6-27.7-18.4-34.2-27.2-6.5-9-9.8-15.1-9.4-15.4 0.5-0.3 4.7 5.1 11.7 13.6 7 8.2 17.5 20 33.1 25.1 15.7 5.2 30.7-1 40.1-5.9 9.6-5.2 15.2-9.3 15.6-8.7z"/><path class="k" d="m2920.6 2388.1c-0.9 0.6-12.3-13.7-25.3-31.9-13-18.3-22.8-33.7-21.8-34.4 0.9-0.6 12.2 13.6 25.2 31.9 13 18.3 22.8 33.7 21.9 34.4z"/><path class="l" d="m2510.6 1740.1c-1.1 0.5-3.9-4.1-6.4-10.2-2.4-6.2-3.5-11.5-2.4-11.9 1-0.4 3.9 4.2 6.3 10.3 2.5 6.1 3.6 11.4 2.5 11.8z"/><path class="l" d="m2665.5 1762.3c-1.1 0-2.1-4-2.1-8.9 0-4.9 1-8.8 2.1-8.8 1.2 0 2.1 3.9 2.1 8.8 0 4.9-0.9 8.9-2.1 8.9z"/><path class="l" d="m2601.1 1846.4c-1.2 0-2.2-5-2.2-11.1 0-6.1 1-11 2.2-11 1.2 0 2.2 4.9 2.2 11 0 6.1-1 11.1-2.2 11.1z"/><path class="l" d="m2485.5 1908.3c-0.9 0.7-4.2-2.2-8.5-5.3-4.3-3.1-8.1-5.4-7.7-6.5 0.3-1.1 5.3-0.4 10.1 3.1 4.9 3.6 7 8.1 6.1 8.7z"/><path class="l" d="m2690.6 1986.5c-1-0.6 0.2-4.1 2.7-7.8 2.4-3.6 5.2-6.1 6.1-5.5 1 0.7-0.2 4.2-2.7 7.8-2.4 3.7-5.2 6.1-6.1 5.5z"/><path class="l" d="m2563.7 2008.6c-1.1 0-2.1-6.6-2.1-14.7 0-8.2 1-14.8 2.1-14.8 1.2 0 2.1 6.6 2.1 14.8 0 8.1-0.9 14.7-2.1 14.7z"/><path class="l" d="m2522.6 2098.4c-0.7 0.9-4.9-1-9.4-4.2-4.4-3.3-7.5-6.7-6.8-7.6 0.6-0.9 4.8 0.9 9.3 4.2 4.5 3.3 7.6 6.6 6.9 7.6z"/><path class="l" d="m2650.7 2129.6c0.5 1.1-2.1 3.2-5.7 4.9-3.7 1.6-7.1 2.1-7.5 1-0.5-1 2.1-3.2 5.8-4.8 3.6-1.7 7-2.1 7.4-1.1z"/><path class="l" d="m2563.7 2275.7c-1 0.5-5.2-5.7-9.2-13.9-4.1-8.1-6.6-15.1-5.5-15.6 1-0.6 5.1 5.6 9.2 13.8 4.1 8.1 6.5 15.1 5.5 15.7z"/><path class="l" d="m2705.3 2262.4c-1-0.6 0.8-6 4.1-12.1 3.3-6.1 6.7-10.6 7.7-10 1.1 0.5-0.8 5.9-4 12-3.3 6.1-6.8 10.6-7.8 10.1z"/><path class="l" d="m2643.4 2386.3c-1.2-0.2-1.1-6.5-2.3-14-1.2-7.5-3.2-13.5-2.2-14 1-0.6 5 5.1 6.3 13.4 1.3 8.2-0.7 14.8-1.8 14.6z"/><path class="l" d="m2577 2457.1c-0.9 0.8-4.9-2.2-8.9-6.7-4.1-4.5-6.7-8.7-5.9-9.5 0.9-0.8 4.9 2.2 9 6.7 4 4.5 6.6 8.7 5.8 9.5z"/><path class="l" d="m2738.1 2484c-0.8-0.8 2.1-5.1 6.6-9.6 4.4-4.6 8.7-7.6 9.5-6.8 0.8 0.8-2.1 5.2-6.6 9.7-4.4 4.5-8.7 7.5-9.5 6.7z"/><path class="l" d="m2645.4 2590c-1.1-0.2-1.1-6.3 0-13.6 1.1-7.4 2.9-13.2 4.1-13 1.1 0.1 1.1 6.2 0 13.6-1.1 7.3-2.9 13.1-4.1 13z"/><path class="l" d="m2583.1 2641.4c-1 0.6-4.5-3.5-7.8-9.2-3.3-5.7-5.2-10.7-4.2-11.3 1-0.6 4.5 3.5 7.8 9.2 3.3 5.7 5.2 10.7 4.2 11.3z"/><path class="l" d="m2733.3 2706.3c0.7 1-3.4 5-9.1 9.1-5.7 4.1-10.9 6.7-11.5 5.7-0.7-0.9 3.4-5 9.1-9.1 5.7-4 10.8-6.6 11.5-5.7z"/><path class="l" d="m2608.2 2790.6c-1.1-0.4 0.3-6.9 1-14.8 0.7-8 0.4-14.6 1.6-14.8 1.1-0.2 3.3 6.6 2.5 15.2-0.7 8.5-4.1 14.8-5.1 14.4z"/><path class="l" d="m2658.1 2911.5c-0.9 0.7-4.2-2-7.5-6.1-3.3-4.1-5.2-7.9-4.3-8.7 0.9-0.7 4.3 2 7.6 6.1 3.2 4.1 5.1 8 4.2 8.7z"/><path class="l" d="m2603.5 2992.6c-0.9 0.7-5.3-4.1-9.8-10.6-4.5-6.5-7.3-12.3-6.4-13 1-0.6 5.4 4.1 9.8 10.6 4.5 6.6 7.4 12.4 6.4 13z"/><path class="l" d="m2754 2890.8c-1.1-0.4-0.9-3.3 0.3-6.6 1.2-3.3 3.1-5.6 4.1-5.2 1.1 0.4 1 3.4-0.2 6.7-1.2 3.2-3.1 5.5-4.2 5.1z"/><path class="l" d="m2687.6 3084.1c-1-0.6 1-6.3 2.5-13.4 1.7-7.1 2.2-13.1 3.4-13.2 1.1-0.1 2.4 6.4 0.7 14.1-1.7 7.8-5.6 13.1-6.6 12.5z"/><path class="l" d="m2730.8 1847.7c-1.1 0.5-3.6-2.8-5.7-7.2-2.1-4.5-2.9-8.5-1.9-9 1.1-0.5 3.6 2.8 5.7 7.2 2.1 4.5 2.9 8.5 1.9 9z"/><path class="l" d="m2619.8 1598.5c0.6 1-5 5.5-11 11.9-6 6.4-10.1 12.3-11.2 11.7-1-0.5 1.8-7.7 8.2-14.5 6.4-6.9 13.4-10 14-9.1z"/><path class="l" d="m2718.6 1595.6c-1.1 0.2-3-4.5-5.8-10-2.7-5.5-5.4-9.9-4.5-10.7 0.8-0.8 5.2 2.7 8.2 8.8 3.1 6.1 3.2 11.7 2.1 11.9z"/><path class="l" d="m2410.7 1676.9c-1.1-0.5 0-5.8 2.4-11.9 2.4-6.1 5.3-10.7 6.3-10.3 1.1 0.4 0 5.7-2.4 11.8-2.4 6.2-5.3 10.8-6.3 10.4z"/><path class="l" d="m2420.6 1797.7c-0.7 0.9-5.3-1.7-10.2-5.8-4.9-4.1-8.2-8.1-7.5-9 0.7-0.9 5.3 1.7 10.2 5.8 4.9 4.1 8.2 8.1 7.5 9z"/><path class="l" d="m2622.7 1502.6c-1 0.5-3.2-2.5-4.9-6.6-1.6-4-2-7.7-1-8.1 1.1-0.4 3.3 2.5 4.9 6.6 1.6 4.1 2.1 7.7 1 8.1z"/><path class="l" d="m2816.2 1561.7c-1.1-0.3-1-5.1 0.3-10.8 1.2-5.7 3.1-10.1 4.2-9.8 1.2 0.2 1.1 5-0.2 10.7-1.2 5.7-3.1 10.1-4.3 9.9z"/><path class="l" d="m2861.7 1653.1c-1.1-0.4 0.4-6.4 3.2-13.3 2.9-7 6.1-12.2 7.1-11.8 1.1 0.5-0.3 6.4-3.2 13.4-2.9 6.9-6 12.1-7.1 11.7z"/><path class="l" d="m2829.3 1726.9c-1.1 0.5-4.9-5-8.5-12.4-3.7-7.3-5.9-13.7-4.8-14.2 1-0.5 4.8 5 8.5 12.4 3.6 7.3 5.8 13.7 4.8 14.2z"/><path class="l" d="m2898.6 1800.6c-1.1-0.4-0.3-5 1.7-10.3 2.1-5.3 4.6-9.3 5.7-8.8 1 0.4 0.3 5-1.8 10.3-2 5.3-4.5 9.2-5.6 8.8z"/><path class="l" d="m2836.6 1872.9c-0.9 0.6-3.4-1.5-5.4-4.8-2.1-3.2-2.9-6.4-1.9-7 0.9-0.6 3.4 1.6 5.4 4.8 2 3.3 2.9 6.4 1.9 7z"/><path class="l" d="m2849.9 2022c-0.9 0.7-5.9-3.2-11.2-8.9-5.3-5.7-8.9-11-8-11.8 0.8-0.8 5.8 3.2 11.1 8.9 5.3 5.7 8.9 11 8.1 11.8z"/><path class="l" d="m2931 1936.4c-0.9 0.7-5.2-3.4-9.7-9.1-4.5-5.7-7.4-10.9-6.5-11.6 0.9-0.7 5.3 3.3 9.8 9 4.5 5.7 7.4 10.9 6.4 11.7z"/><path class="l" d="m2975.6 2054.5c-1-0.5 0.8-6.5 4-13.4 3.3-6.9 6.8-12.1 7.9-11.6 1 0.5-0.8 6.5-4.1 13.4-3.3 6.9-6.8 12.1-7.8 11.6z"/><path class="l" d="m2880.9 2151.7c-1 0.7-4.7-3.8-9.9-8.5-5.1-4.8-9.8-8.1-9.3-9.2 0.5-1 6.5 0.9 12.1 6.1 5.7 5.2 8.1 11.1 7.1 11.6z"/><path class="l" d="m2877.9 2254.1c-4.9 0-8.8-0.9-8.8-2 0-1.2 3.9-2.1 8.8-2.1 4.9 0 8.9 0.9 8.9 2.1 0 1.1-4 2-8.9 2z"/><path class="l" d="m2984.2 2224c-1.1-0.6 1-5.6 2.5-11.9 1.6-6.2 2.2-11.6 3.4-11.7 1.1-0.1 2.4 5.7 0.7 12.7-1.8 7-5.7 11.6-6.6 10.9z"/><path class="l" d="m3080.9 2257.7c-1.1 0.3-4.1-5.3-6.6-12.6-2.6-7.2-3.8-13.5-2.7-13.8 1.1-0.4 4.1 5.2 6.6 12.5 2.6 7.3 3.8 13.5 2.7 13.9z"/><path class="l" d="m3065.5 2395.3c-1-0.6 1.4-7.3 5.5-15 4-7.8 8.2-13.6 9.2-13.1 1 0.5-1.5 7.2-5.5 15-4.1 7.7-8.2 13.6-9.2 13.1z"/><path class="l" d="m2977.2 2476.1c-1.1 0.5-4.4-5.1-7.3-12.4-3-7.2-4.6-13.5-3.5-13.9 1-0.5 4.3 5.1 7.3 12.4 3 7.2 4.6 13.5 3.5 13.9z"/><path class="l" d="m2879.4 2507.3c0 1.1-3.3 2.1-7.4 2.1-4 0-7.3-1-7.3-2.1 0-1.2 3.3-2.1 7.3-2.1 4.1 0 7.4 0.9 7.4 2.1z"/><path class="l" d="m2935.5 2635.6c-1.1 0.3-3.4-4.4-5-10.5-1.6-6.1-2-11.3-0.9-11.6 1.1-0.3 3.3 4.4 4.9 10.5 1.7 6.1 2.1 11.3 1 11.6z"/><path class="l" d="m2864.7 2592.8c-1-0.6 0.2-4.3 2.6-8.4 2.4-4.1 5.2-6.9 6.2-6.3 1 0.6-0.2 4.4-2.6 8.4-2.5 4.1-5.3 6.9-6.2 6.3z"/><path class="l" d="m2861.7 2734.5c-1.4 0-2.5-5.6-2.5-12.6 0-6.9 1.1-12.5 2.5-12.5 1.4 0 2.6 5.6 2.6 12.5 0 7-1.2 12.6-2.6 12.6z"/></svg>