<svg width="545" height="562" viewBox="0 0 545 562" fill="none" xmlns="http://www.w3.org/2000/svg">
<path d="M408.22 70.9678C421.58 62.0278 438.14 64.1378 446.43 71.3478C450.02 74.4778 453.53 79.8078 449.83 87.4478C442.06 103.568 425.51 113.978 407.69 113.978H356.67C359.07 120.178 360.4 126.908 360.4 133.948C360.4 140.218 359.34 146.248 357.42 151.878H477.41C485.41 136.678 485.99 119.228 478.86 103.238L464.24 70.4178C462.53 66.6178 459.91 63.0778 456.35 59.9778C443.93 49.1978 419.93 44.9978 399.83 58.4378L344.73 95.3278C348.23 98.9478 351.25 103.028 353.67 107.478L408.22 70.9678ZM252.2 151.868C250.227 146.096 249.22 140.038 249.22 133.938C249.22 126.898 250.55 120.168 252.95 113.968H201.96C184.14 113.968 167.59 103.548 159.78 87.4278C156.08 79.7978 159.59 74.4678 163.19 71.3478C167.65 67.4678 174.5 65.0678 181.96 65.0678C188.37 65.0678 195.22 66.8378 201.39 70.9678L255.93 107.478C258.35 103.018 261.38 98.9378 264.87 95.3278L209.77 58.4378C189.67 44.9978 165.67 49.1978 153.28 59.9778C149.31 63.4278 146.49 67.4178 144.83 71.7178L130.76 103.228C123.62 119.218 124.2 136.668 132.21 151.868H252.2ZM268.47 151.868H341.12C343.8 146.458 345.32 140.368 345.32 133.938C345.32 111.608 327.12 93.4078 304.79 93.4078C282.46 93.4078 264.26 111.608 264.26 133.938C264.27 140.378 265.79 146.458 268.47 151.868ZM65 198.648V248.198C65 263.088 75.32 275.608 89.17 278.998H276.86V166.928H96.71C79.23 166.928 65 181.158 65 198.648ZM89.18 519.908C89.18 543.118 108.06 561.998 131.27 561.998H276.87V294.048H89.18V519.908ZM512.89 166.928H332.76V278.988H520.42C534.28 275.598 544.59 263.078 544.59 248.188V198.638C544.6 181.158 530.37 166.928 512.89 166.928ZM332.76 561.998H478.33C501.54 561.998 520.42 543.118 520.42 519.908V294.048H332.76V561.998Z" fill="#C3FF45" fill-opacity="0.4"/>
<path d="M343.22 20.9678C356.58 12.0278 373.14 14.1378 381.43 21.3478C385.02 24.4778 388.53 29.8078 384.83 37.4478C377.06 53.5678 360.51 63.9778 342.69 63.9778H291.67C294.07 70.1778 295.4 76.9078 295.4 83.9478C295.4 90.2178 294.34 96.2478 292.42 101.878H412.41C420.41 86.6778 420.99 69.2278 413.86 53.2378L399.24 20.4178C397.53 16.6178 394.91 13.0778 391.35 9.97782C378.93 -0.802179 354.93 -5.00218 334.83 8.43782L279.73 45.3278C283.23 48.9478 286.25 53.0278 288.67 57.4778L343.22 20.9678ZM187.2 101.868C185.227 96.0957 184.22 90.0377 184.22 83.9378C184.22 76.8978 185.55 70.1678 187.95 63.9678H136.96C119.14 63.9678 102.59 53.5478 94.78 37.4278C91.08 29.7978 94.59 24.4678 98.19 21.3478C102.65 17.4678 109.5 15.0678 116.96 15.0678C123.37 15.0678 130.22 16.8378 136.39 20.9678L190.93 57.4778C193.35 53.0178 196.38 48.9378 199.87 45.3278L144.77 8.43782C124.67 -5.00218 100.67 -0.802179 88.28 9.97782C84.31 13.4278 81.49 17.4178 79.83 21.7178L65.76 53.2278C58.62 69.2178 59.2 86.6678 67.21 101.868H187.2ZM203.47 101.868H276.12C278.8 96.4578 280.32 90.3678 280.32 83.9378C280.32 61.6078 262.12 43.4078 239.79 43.4078C217.46 43.4078 199.26 61.6078 199.26 83.9378C199.27 90.3778 200.79 96.4578 203.47 101.868ZM0 148.648V198.198C0 213.088 10.32 225.608 24.17 228.998H211.86V116.928H31.71C14.23 116.928 0 131.158 0 148.648ZM24.18 469.908C24.18 493.118 43.06 511.998 66.27 511.998H211.87V244.048H24.18V469.908ZM447.89 116.928H267.76V228.988H455.42C469.28 225.598 479.59 213.078 479.59 198.188V148.638C479.6 131.158 465.37 116.928 447.89 116.928ZM267.76 511.998H413.33C436.54 511.998 455.42 493.118 455.42 469.908V244.048H267.76V511.998Z" fill="#C3FF45"/>
</svg>
