<?xml version="1.0" standalone="no"?>
<svg id="Hourglass" width="500" height="500" viewBox="0 0 500 500" fill="none" xmlns="http://www.w3.org/2000/svg" style="max-width: 100%; max-height: 100%;">
<rect width="500" height="500" fill="black" stroke-dasharray="0,0,0,2000"><animate attributeType="XML" attributeName="stroke-dasharray" repeatCount="1" dur="2.272727272727273s" values="0,0,0,2000; 
          0,1000,1000,0; 
          2000,0,0,0" keyTimes="0; 0.5; 1" fill="freeze"></animate></rect>
<path d="M300 150H200L190 170M300 150L310 170L270 250M300 150L260 230M190 170H270L250 210L240 190M190 170L240 270L200 350M190 170L260 310H240H280L220 190M240 190L280 270M240 190L310 330M260 190H220M220 190L260 270M310 330L300 350H200M310 330H230L250 290M200 350L190 330L230 250" stroke="white" stroke-width="5" stroke-linecap="round" stroke-linejoin="round" stroke-dasharray="0,0,0,1756.9195556640625"><animate attributeType="XML" attributeName="stroke-dasharray" repeatCount="1" dur="2.272727272727273s" values="0,0,0,1756.9195556640625; 
          0,878.4597778320312,878.4597778320312,0; 
          1756.9195556640625,0,0,0" keyTimes="0; 0.5; 1" fill="freeze"></animate></path>
<setting>{"type":"direct","speed":22,"random":1,"shift":1,"size":1,"rupture":50}</setting></svg>