<svg width="3516" height="3444" viewBox="0 0 3516 3444" fill="none" xmlns="http://www.w3.org/2000/svg">
<g clip-path="url(#clip0_119_2)">
<path d="M3408.4 1336.8C3018.4 669.1 1960.8 906.9 1744.8 582.1C1634.1 415.7 1510.4 222.9 1330.9 122.7C1159.8 27.1 961.4 -7 788.4 5.7C170.8 50.9 -91.1001 603.5 27.5999 1210.4C185.9 2019.9 903.5 2846.9 1756.1 2852.7C2202 2855.7 2627.6 2696.3 2961.6 2471C2964.07 2469.27 2966.57 2467.57 2969.1 2465.9C3302.6 2238.8 3706.1 1846.7 3408.4 1336.8Z" fill="#92E3A9"/>
<path opacity="0.7" d="M3408.4 1336.8C3018.4 669.1 1960.8 906.9 1744.8 582.1C1634.1 415.7 1510.4 222.9 1330.9 122.7C1159.8 27.1 961.4 -7 788.4 5.7C170.8 50.9 -91.1001 603.5 27.5999 1210.4C185.9 2019.9 903.5 2846.9 1756.1 2852.7C2202 2855.7 2627.6 2696.3 2961.6 2471C2964.07 2469.27 2966.57 2467.57 2969.1 2465.9C3302.6 2238.8 3706.1 1846.7 3408.4 1336.8Z" fill="white"/>
<path d="M381.5 1385.4H338.2C241.3 1385.4 162.7 1464 162.7 1560.9V2523.6C162.7 2620.5 241.3 2699.1 338.2 2699.1H933C1029.9 2699.1 1108.5 2620.5 1108.5 2523.6" stroke="#263238" stroke-width="8.8" stroke-linecap="round" stroke-linejoin="round" stroke-dasharray="35.3 35.3"/>
<path d="M1059.7 477V286.9C1059.7 227.5 1107.8 179.4 1167.2 179.4H1940.8C2000.1 179.4 2048.2 227.5 2048.2 286.9" stroke="#263238" stroke-width="8.8" stroke-linecap="round" stroke-linejoin="round" stroke-dasharray="35.3 35.3"/>
<path d="M1756 3441.3C908.7 3441.3 223.8 3345.6 223.8 3227.2C223.8 3108.8 908.7 3013.1 1756 3013.1C2603.3 3013.1 3288.2 3108.8 3288.2 3227.2C3288.2 3345.6 2603.3 3441.3 1756 3441.3Z" fill="#92E3A9"/>
<path opacity="0.5" d="M1756 3441.3C908.7 3441.3 223.8 3345.6 223.8 3227.2C223.8 3108.8 908.7 3013.1 1756 3013.1C2603.3 3013.1 3288.2 3108.8 3288.2 3227.2C3288.2 3345.6 2603.3 3441.3 1756 3441.3Z" fill="white"/>
<path d="M3200.3 732.2V2172.7C3200.3 2270.7 3120.8 2350.2 3022.8 2350.2H489.2C391.2 2350.2 311.7 2270.7 311.7 2172.7V732.2C311.7 728 311.9 723.8 312.2 719.7C318.6 627.4 395.4 554.5 489.2 554.5H3022.8C3116.6 554.5 3193.4 627.4 3199.8 719.7C3200.1 723.8 3200.3 728 3200.3 732.2Z" fill="white" stroke="#263238" stroke-width="8.8" stroke-linecap="round" stroke-linejoin="round"/>
<path d="M2956.6 2283.3H564.5C472.6 2283.3 398.1 2208.8 398.1 2116.9V786.2H3123V2116.9C3123 2208.8 3048.5 2283.3 2956.6 2283.3Z" fill="#263238"/>
<path opacity="0.2" d="M3123 786.2V2116.9C3123 2208.8 3049.3 2283.2 2958.5 2283.2H562.6C471.8 2283.2 398.1 2208.8 398.1 2116.9V786.2H3123Z" fill="white"/>
<path d="M3199.8 719.7H312.2C318.6 627.4 395.4 554.5 489.2 554.5H3022.8C3116.6 554.5 3193.4 627.4 3199.8 719.7Z" fill="#92E3A9" stroke="#263238" stroke-width="8.8" stroke-miterlimit="10"/>
<path d="M635.6 668.6C618.2 668.6 604.1 654.5 604.1 637.1C604.1 619.7 618.2 605.7 635.6 605.7C653 605.7 667.1 619.7 667.1 637.1C667.1 654.5 653 668.6 635.6 668.6Z" fill="#263238"/>
<path d="M768.6 668.6C751.2 668.6 737.1 654.5 737.1 637.1C737.1 619.7 751.2 605.7 768.6 605.7C786 605.7 800 619.7 800 637.1C800 654.5 786 668.6 768.6 668.6Z" fill="#263238"/>
<path d="M901.6 668.6C884.2 668.6 870.1 654.5 870.1 637.1C870.1 619.7 884.2 605.7 901.6 605.7C918.9 605.7 933 619.7 933 637.1C933 654.5 918.9 668.6 901.6 668.6Z" fill="#263238"/>
<path d="M3123 786.3V2116.9C3123 2208.7 3048.5 2283.3 2956.5 2283.3H564.5C483.6 2283.3 416.3 2225.6 401.3 2149.2L401.2 2149.1V2148.7C399.2 2138.4 398.1 2127.7 398.1 2116.9V786.3H3123Z" stroke="#263238" stroke-width="8.8" stroke-miterlimit="10"/>
<path fill-rule="evenodd" clip-rule="evenodd" d="M3123 990.4V1293.1L3120.1 1291.2C3108.5 1297.8 3096 1303 3083.1 1306.6L3068.2 1373.3H3004.7L2989.9 1306.6C2976.9 1303 2964.5 1297.8 2952.8 1291.2L2895.1 1327.9L2850.2 1283L2886.9 1225.3C2880.3 1213.6 2875.1 1201 2871.6 1188L2804.8 1173.1V1109.5L2871.6 1094.7C2875.1 1081.8 2880.3 1069.4 2886.9 1057.6L2850.8 1000.3L2895.7 955.4L2953.1 992.1C2964.7 985.5 2977.2 980.3 2990.1 976.8L3005 910H3068.5L3083.4 976.8C3096.3 980.4 3108.7 985.5 3120.4 992.1L3123 990.4ZM3118.9 1141.6C3118.9 1096.2 3082.2 1059.6 3036.9 1059.6C2991.5 1059.6 2954.8 1096.2 2954.8 1141.6C2954.8 1187 2991.5 1223.7 3036.9 1223.7C3082.2 1223.7 3118.9 1187 3118.9 1141.6Z" fill="#263238"/>
<path fill-rule="evenodd" clip-rule="evenodd" d="M1834.8 1087.8C1827.1 1115 1816.2 1141.1 1802.6 1165.8L1879.4 1287.5L1784.7 1382.2L1663 1304.8C1638.4 1318.6 1612.3 1329.5 1585.1 1337.2L1553.6 1477.9H1419.6L1388.4 1337.2C1361.1 1329.5 1334.9 1318.7 1310.2 1304.8L1188.6 1382.2L1093.8 1287.5L1171.2 1165.8C1157.4 1141 1146.6 1114.6 1139.1 1087.1L998.3 1055.7V921.8L1139.1 890.4C1146.6 863.2 1157.4 836.9 1171.2 812.3L1154.8 786.2H1819.6L1802.6 813C1816.3 837.7 1827.1 864 1834.8 891.2L1975.6 922.5V1056.4L1834.8 1087.8ZM1660.7 989.4C1660.7 893.7 1583.3 816.4 1487.6 816.4C1391.9 816.4 1314.6 893.7 1314.6 989.4C1314.6 1085.1 1391.9 1162.5 1487.6 1162.5C1583.3 1162.5 1660.7 1085.1 1660.7 989.4Z" fill="#263238"/>
<path fill-rule="evenodd" clip-rule="evenodd" d="M973.9 1995.3C966.9 2016.6 957.2 2036.9 945.2 2055.9L1001.5 2155.8L922.2 2227L829 2160.5C808.7 2170.5 787.6 2178 765.5 2183L737.6 2283.2V2283.3L734.8 2293.4L628.5 2287.8L627.7 2283.3V2283.2L609.5 2174.8C588.1 2167.5 567.6 2157.6 548.6 2145.4L448.7 2201.8L401.3 2149.2L401.2 2149.1V2148.7L398.1 2093.6L444.1 2029.2C434 2009.1 426.4 1987.8 421.5 1965.9L398.1 1959.3V1815.3L430.3 1810C437.6 1788.7 447.3 1768.4 459.5 1749.4L403 1649.6L482.2 1578.3L575.6 1644.8C595.7 1634.9 616.9 1627.3 638.8 1622.4L669.5 1511.9L775.7 1517.6L794.8 1630.5C816.2 1637.9 836.5 1647.6 855.5 1659.6L955.2 1603.2L1026.5 1682.3L960 1775.8C969.9 1795.9 977.5 1817.2 982.6 1839L1092.7 1870L1087.1 1976.3L973.9 1995.3ZM804.8 1810.2C754 1753.7 666.9 1749.2 610.5 1800C554 1850.8 549.4 1937.8 600.2 1994.3C651.1 2050.8 738.1 2055.3 794.6 2004.5C851 1953.6 855.6 1866.7 804.8 1810.2Z" fill="#263238"/>
<path fill-rule="evenodd" clip-rule="evenodd" d="M2000.7 1875.7L1994.9 1885.8L1960.8 1945.3L1878.3 1919.7C1866.1 1931.6 1852.5 1942 1837.8 1950.7L1838.4 1963.3L1841.8 2037.1L1764.4 2058.1L1724.2 1981.6C1707.2 1981.5 1690.4 1979.4 1673.9 1975.3L1616 2038.3L1546.4 1998.4L1572 1916.3C1560.1 1904.3 1549.8 1890.9 1541.2 1876.3L1454.8 1880.4L1433.7 1802.8L1510.2 1762.6C1510.3 1745.6 1512.4 1728.8 1516.6 1712.4L1452.7 1654.3L1492.6 1584.8L1575.1 1610.2C1587.2 1598.4 1600.7 1588 1615.2 1579.3L1611.1 1492.9L1688.5 1471.9L1728.9 1548.3C1745.8 1548.6 1762.6 1550.7 1779 1554.7L1837.3 1491.2L1906.9 1531L1881.3 1613.5C1893.2 1625.5 1903.6 1639 1912.3 1653.6L1998.5 1649.5L2019.6 1727L1943.3 1767.2C1943.1 1784.2 1940.9 1801.1 1936.8 1817.5L2000.7 1875.7ZM1826.6 1737.4C1811.6 1682.2 1754.7 1649.5 1699.4 1664.6C1644.2 1679.6 1611.5 1736.5 1626.6 1791.8C1641.6 1847 1698.6 1879.7 1753.9 1864.6C1809 1849.6 1841.7 1792.6 1826.6 1737.4Z" fill="#263238"/>
<path fill-rule="evenodd" clip-rule="evenodd" d="M2706.7 1960.2C2696.9 1980.9 2684.7 2000.4 2670.2 2018.2L2715.7 2125L2627.9 2187.9L2541.5 2110.3C2520.2 2118.1 2497.9 2123.3 2475.3 2125.8L2431.8 2232.2L2325.4 2214.7L2319.4 2099.3C2298.9 2089.6 2279.4 2077.5 2261.8 2063.2L2154.9 2108.7L2092.2 2021.1L2169.7 1934.5C2161.8 1913.1 2156.7 1890.9 2154.2 1868.4L2064 1832L2046.6 1825L2064.2 1718.7L2180.1 1712.3C2181.2 1709.8 2182.5 1707.3 2183.7 1704.9C2192.7 1687 2203.6 1670.3 2216.1 1654.6L2170.6 1547.8L2258.3 1485L2344.8 1562.5C2366.2 1554.8 2388.3 1549.6 2410.9 1547L2454.5 1439.8L2561 1457.3L2567.2 1573.3C2587.9 1582.9 2607.2 1594.9 2624.9 1609.1L2731.8 1563.8L2794.6 1651.5L2717.1 1737.8C2724.8 1759.2 2730 1781.5 2732.5 1804.1L2840.2 1847.5L2822.5 1953.8L2706.7 1960.2ZM2556.4 1754.8C2511.6 1692.3 2424.6 1677.8 2362 1722.7C2299.5 1767.4 2285.1 1854.4 2329.9 1916.9C2374.6 1979.5 2461.7 1993.8 2524.2 1949.1C2586.7 1904.4 2601.2 1817.3 2556.4 1754.8Z" fill="#263238"/>
<path d="M439.1 1271.2C439.1 1213.2 486.1 1166.2 544.1 1166.2H1380.5C1438.5 1166.2 1485.5 1213.2 1485.5 1271.2V2429.3C1485.5 2487.3 1438.5 2534.3 1380.5 2534.3H544.1C486.1 2534.3 439.1 2487.3 439.1 2429.3V1271.2Z" fill="#92E3A9" stroke="#263238" stroke-width="8.8" stroke-miterlimit="10"/>
<path opacity="0.2" d="M439.1 1271.2C439.1 1213.2 486.1 1166.2 544.1 1166.2H1380.5C1438.5 1166.2 1485.5 1213.2 1485.5 1271.2V2429.3C1485.5 2487.3 1438.5 2534.3 1380.5 2534.3H544.1C486.1 2534.3 439.1 2487.3 439.1 2429.3V1271.2Z" fill="black"/>
<path d="M536.5 1374.5C536.5 1316.5 583.5 1269.5 641.5 1269.5H1477.9C1535.9 1269.5 1582.9 1316.5 1582.9 1374.5V2532.7C1582.9 2590.6 1535.9 2637.7 1477.9 2637.7H641.5C583.5 2637.7 536.5 2590.6 536.5 2532.7V1374.5Z" fill="white" stroke="#263238" stroke-width="8.8" stroke-linecap="round" stroke-linejoin="round"/>
<path d="M1582.9 1374.4V1436.4H536.5V1374.4C536.5 1316.5 583.5 1269.5 641.4 1269.5H1478C1535.9 1269.5 1582.9 1316.5 1582.9 1374.4Z" fill="#92E3A9" stroke="#263238" stroke-width="8.8" stroke-miterlimit="10"/>
<path d="M634.9 1508.3H892.4V1551.4H634.9V1508.3Z" fill="#92E3A9"/>
<path d="M634.9 1895.4H892.4V1938.6H634.9V1895.4Z" fill="#92E3A9"/>
<path d="M634.9 2246.4H892.4V2289.6H634.9V2246.4Z" fill="#92E3A9"/>
<path d="M634.9 1615.2H1366.1V1646.8H634.9V1615.2Z" fill="#263238"/>
<path d="M634.9 1675.8H1234.2V1706.6H634.9V1675.8Z" fill="#263238"/>
<path d="M634.9 1735.4H1312.7V1766.2H634.9V1735.4Z" fill="#263238"/>
<path d="M634.9 1794.9H1312.7V1825.8H634.9V1794.9Z" fill="#263238"/>
<path d="M634.9 1966.2H1366.1V1997.9H634.9V1966.2Z" fill="#263238"/>
<path d="M634.9 2026.8H1234.2V2057.7H634.9V2026.8Z" fill="#263238"/>
<path d="M634.9 2086.4H1312.7V2117.3H634.9V2086.4Z" fill="#263238"/>
<path d="M634.9 2351.7H1366.1V2383.4H634.9V2351.7Z" fill="#263238"/>
<path d="M634.9 2412.3H1234.2V2443.2H634.9V2412.3Z" fill="#263238"/>
<path d="M634.9 2471.9H1312.7V2502.8H634.9V2471.9Z" fill="#263238"/>
<path d="M1433.7 466.2C1433.7 397.2 1489.7 341.2 1558.7 341.2H2637.1C2706.2 341.2 2762.1 397.2 2762.1 466.2V934.6C2762.1 1003.6 2706.2 1059.6 2637.1 1059.6H1558.7C1489.7 1059.6 1433.7 1003.6 1433.7 934.6V466.2Z" fill="white" stroke="#222221" stroke-width="8.8" stroke-miterlimit="10"/>
<path d="M2762.1 466.4V477H1433.7V466.4C1433.7 397.3 1489.8 341.2 1558.8 341.2H2637.1C2706.2 341.2 2762.1 397.3 2762.1 466.4Z" fill="#92E3A9" stroke="#263238" stroke-width="8.8" stroke-miterlimit="10"/>
<path d="M1628.9 431.5C1621.4 439 1609.3 439 1601.8 431.5C1594.3 424 1594.3 411.9 1601.8 404.4C1609.3 396.9 1621.4 396.9 1628.9 404.4C1636.3 411.9 1636.3 424 1628.9 431.5Z" fill="#263238"/>
<path d="M1717.8 431.5C1710.3 439 1698.2 439 1690.7 431.5C1683.3 424 1683.3 411.9 1690.7 404.4C1698.2 396.9 1710.3 396.9 1717.8 404.4C1725.3 411.9 1725.3 424 1717.8 431.5Z" fill="#263238"/>
<path d="M1806.8 431.5C1799.3 439 1787.2 439 1779.7 431.5C1772.2 424 1772.2 411.9 1779.7 404.4C1787.2 396.9 1799.3 396.9 1806.8 404.4C1814.3 411.9 1814.3 424 1806.8 431.5Z" fill="#263238"/>
<path d="M1518.4 563.1H1952.6V938.5H1518.4V563.1Z" stroke="#263238" stroke-width="8.8" stroke-linecap="round" stroke-linejoin="round" stroke-dasharray="35.3 35.3"/>
<path d="M2019.6 563.1H2519.4V589.5H2019.6V563.1Z" fill="#263238"/>
<path d="M2019.6 617.8H2403V644.1H2019.6V617.8Z" fill="#263238"/>
<path d="M2019.6 672.1H2590.5V698.8H2019.6V672.1Z" fill="#263238"/>
<path d="M2019.6 725.2H2505.7V751.9H2019.6V725.2Z" fill="#263238"/>
<path d="M2130.9 3187.7C2130.9 3187.7 1898.9 3254.3 1866.5 3265.7C1837 3276.1 1757.2 3304.1 1697.3 3295.5C1691.3 3294.6 1685.6 3293.4 1680.1 3291.8C1619.4 3273.7 1592.1 3256.8 1584.2 3218.6C1576.2 3180.3 1606.4 3152.3 1635.6 3134.3C1664.7 3116.3 1822.7 3097.5 1822.7 3097.5L1860.8 3108.7H1860.9L2130.9 3187.7Z" fill="#92E3A9"/>
<path d="M1697.3 3295.5C1691.3 3294.6 1685.6 3293.4 1680.1 3291.8C1619.4 3273.7 1592.1 3256.8 1584.2 3218.6C1576.2 3180.3 1606.4 3152.3 1635.6 3134.3C1664.7 3116.3 1822.7 3097.5 1822.7 3097.5L1860.8 3108.7C1826.3 3124.6 1697.6 3133.5 1669.5 3149.6C1641.5 3165.7 1627.9 3196.2 1644.5 3237.3C1653.3 3259.2 1677 3280.4 1697.3 3295.5Z" fill="white"/>
<path d="M2096 3197.2C2096 3197.2 1921.8 3242.3 1852.7 3271.2C1783.6 3300.1 1651.8 3312.8 1604.8 3253.2C1557.9 3193.6 1599.4 3142.3 1646.3 3130.9C1693.3 3119.5 1788.2 3101.5 1840.1 3108.7" stroke="#263238" stroke-width="8.8" stroke-linecap="round" stroke-linejoin="round"/>
<path d="M1700.7 3292.3C1700.7 3292.3 1612.1 3243.7 1641.5 3175.6C1663.3 3125.3 1781.5 3136.2 1840.1 3108.7" stroke="#263238" stroke-width="8.8" stroke-linecap="round" stroke-linejoin="round"/>
<path d="M2837.5 3306.2C2835.1 3330 2826.7 3352.7 2802.7 3366.9C2786.8 3376.3 2764 3382 2731.4 3381.6C2650.1 3380.5 2497.1 3322.4 2497.1 3322.4L2353.9 3243.2L2428.4 3125.3L2448.8 3093L2501.5 3104.9C2501.5 3104.9 2545.1 3129.6 2588.9 3149.2C2632.8 3168.9 2739.2 3173.1 2776.7 3203.4C2814.2 3233.7 2841.6 3266.7 2837.5 3306.2Z" fill="#92E3A9"/>
<path d="M2837.5 3306.2C2835.1 3330 2826.7 3352.7 2802.7 3366.9C2807.2 3348.4 2810.9 3322.9 2798.7 3295.4C2782.8 3259.5 2730.6 3227.8 2662.2 3222.5C2593.8 3217.2 2541.3 3185.2 2513.8 3170.9C2492.4 3159.7 2447.2 3135.5 2428.4 3125.3L2448.8 3093L2501.5 3104.9C2501.5 3104.9 2545.1 3129.6 2588.9 3149.2C2632.8 3168.9 2739.2 3173.1 2776.7 3203.4C2814.2 3233.7 2841.6 3266.7 2837.5 3306.2Z" fill="white"/>
<path d="M2385.7 3265.4C2487.6 3323.8 2604.2 3365.9 2720.9 3379.9C2746.9 3383.1 2777.2 3383.5 2794.7 3363.9C2804.4 3353 2808 3337.6 2806.7 3323C2803.6 3286.2 2772.7 3257.1 2738.8 3242.5C2704.9 3227.9 2667.4 3224.5 2631.4 3216.4C2595.5 3208.4 2560.7 3195.6 2528.2 3178.6C2502.3 3165.1 2477.2 3148.7 2448.7 3142.7C2420.1 3136.6 2386.1 3144 2370.8 3168.9" stroke="#263238" stroke-width="8.8" stroke-linecap="round" stroke-linejoin="round"/>
<path d="M2785.1 3373.9C2811.5 3360.4 2833.1 3335.5 2837.5 3306.2C2842.7 3271.6 2823 3236.7 2795.2 3215.4C2767.4 3194.1 2732.6 3184.1 2698.3 3177C2664 3169.8 2628.9 3165 2596.3 3152.3C2546.1 3132.7 2496.6 3093.9 2444.5 3107.8" stroke="#263238" stroke-width="8.8" stroke-linecap="round" stroke-linejoin="round"/>
<path fill-rule="evenodd" clip-rule="evenodd" d="M2792.7 2523.1C2683.1 2704.8 2476.4 2781.9 2418.2 2800.6C2408.2 2803.8 2402.5 2805.3 2402.5 2805.3C2402.5 2805.3 2058.1 2815.1 1961 2781.5C1864 2748 1695.1 2618 1683.4 2591.1C1671.6 2564.1 1694.8 2493.5 1707.8 2415C1720.9 2336.7 1761.5 2069.7 1798.2 2043.7C1831.5 2019.9 1988.6 1960.8 2017.4 1950C2020.4 1949 2022 1948.4 2022 1948.4C2022 1948.4 2018.1 1905.1 2029.3 1876.1C2051.3 1840.1 2101.2 1849.3 2101.2 1849.3C2101.2 1849.3 2170.3 1818.6 2207.6 1835.8C2244.9 1852.9 2283.2 1839.6 2296.7 1855.4C2305.8 1866.1 2305 1897.6 2303.5 1916.9C2302.8 1926.3 2301.9 1932.7 2301.9 1932.7L2304.9 1933.9L2547.3 2026.1C2686.5 2174.9 2792.7 2523.1 2792.7 2523.1ZM1962.5 2466.5L1930.1 2322.7L1853.9 2510L1884.3 2536.7C1884.3 2536.7 1874.7 2487.7 1892.5 2475.1C1910.4 2462.6 1962.5 2466.5 1962.5 2466.5ZM2600.4 2511.8C2583.5 2454.9 2489.3 2293.3 2489.3 2293.3L2480.2 2304.2C2480.2 2304.2 2453.3 2442.2 2452.7 2444.9L2448.8 2469.6C2448.8 2469.6 2495 2467.5 2510.5 2488C2525.9 2508.4 2493.4 2598.4 2501.8 2594.1C2497.7 2594.1 2600.4 2511.8 2600.4 2511.8Z" fill="#92E3A9"/>
<path d="M2089.7 1442L1964.7 1574.8C1964.7 1574.8 1947.4 1590.1 1954.3 1628.6C1961.1 1667.1 1977.1 1700.2 1989.1 1702.8C2001.2 1705.3 2018.1 1705.4 2018.1 1705.4C2018.1 1705.4 2044.9 1763.4 2063.9 1786.3C2063.9 1786.3 2070.5 1875.9 2067 1900.8C2067 1900.8 2111.9 1940.1 2154.2 1945.1C2196.6 1950 2261.9 1885.2 2261.9 1885.2L2278.2 1805.8C2278.2 1805.8 2316.5 1747.6 2319.1 1732.1C2321.8 1716.6 2339.3 1720.5 2347.9 1712.9C2356.5 1705.2 2376.5 1671 2379.8 1638.7C2383.1 1606.4 2383.3 1569.3 2345.8 1580.2C2313.2 1571.4 2333.6 1502.6 2333.6 1502.6L2276.4 1452.2L2089.7 1442Z" fill="white"/>
<path opacity="0.5" d="M2304.9 1933.9C2303 1939 2300.9 1943.9 2298.5 1948.4C2277.8 1987.3 2187.9 2061.4 2187.9 2061.4L2160.7 1977.8L2145.8 2061.4C2115.8 2048.3 2024.3 1969 2024.3 1969C2024.3 1969 2021.2 1961.6 2017.4 1950C2020.4 1949 2022 1948.4 2022 1948.4C2022 1948.4 2018.1 1905.1 2029.3 1876.1C2051.3 1840.1 2101.2 1849.3 2101.2 1849.3C2101.2 1849.3 2170.3 1818.6 2207.6 1835.8C2244.9 1852.9 2283.2 1839.6 2296.7 1855.4C2310.2 1871.2 2301.9 1932.7 2301.9 1932.7L2304.9 1933.9Z" fill="white"/>
<path opacity="0.2" fill-rule="evenodd" clip-rule="evenodd" d="M2792.7 2523.1C2683.1 2704.8 2476.4 2781.9 2418.2 2800.6L2362.9 2743.2L2381.2 2526.3L2425.9 2144.3C2430.5 2104.2 2410.1 2065.4 2374.5 2046.4C2323.3 2018.9 2262.7 1997.1 2262.7 1997.1L2298.5 1948.4L2303.5 1916.9C2302.8 1926.3 2301.9 1932.7 2301.9 1932.7L2304.9 1933.9L2547.3 2026.1C2686.5 2174.9 2792.7 2523.1 2792.7 2523.1ZM2600.4 2511.8C2583.5 2454.9 2489.3 2293.3 2489.3 2293.3L2480.2 2304.2C2480.2 2304.2 2453.3 2442.2 2452.7 2444.9L2448.8 2469.6C2448.8 2469.6 2495 2467.5 2510.5 2488C2525.9 2508.4 2493.4 2598.4 2501.8 2594.1C2497.7 2594.1 2600.4 2511.8 2600.4 2511.8Z" fill="black"/>
<path opacity="0.2" fill-rule="evenodd" clip-rule="evenodd" d="M1908.2 2574.2L1916.6 2646.6C1916.6 2646.6 1807.8 2559.8 1763 2559.8C1718.3 2559.8 1726.2 2545.5 1763 2488C1799.8 2430.5 1839.5 2236.9 1839.5 2236.9L1827.4 2074.8C1861.9 2117.2 1908.2 2255.9 1929.6 2323.9L1853.9 2510L1884.3 2536.7C1884.3 2536.7 1874.7 2487.7 1892.5 2475.1C1910.4 2462.6 1962.5 2466.5 1962.5 2466.5L1932.3 2332.5C1937.9 2350.7 1941.3 2362.1 1941.3 2362.1L1978.9 2488L1908.2 2574.2ZM1930.1 2322.7L1929.6 2323.9C1930.6 2326.9 1931.5 2329.73 1932.3 2332.4L1930.1 2322.7Z" fill="black"/>
<path d="M2063.9 1786.3C2063.9 1786.3 2070.8 1854.2 2063.9 1885.2" stroke="#263238" stroke-width="8.8" stroke-linecap="round" stroke-linejoin="round"/>
<path d="M2268.9 1876.1C2268.9 1876.1 2268.5 1843 2276.4 1811.2" stroke="#263238" stroke-width="8.8" stroke-linecap="round" stroke-linejoin="round"/>
<path d="M2287.1 1492.7C2287.1 1492.7 2328.1 1544.3 2326 1583.3C2323.9 1622.2 2320.8 1668.6 2321.8 1713.9C2322.9 1759.2 2249.1 1854 2211.2 1862.4C2173.3 1870.8 2140.6 1872.9 2116.4 1848.7C2092.2 1824.5 2067.9 1790.8 2036.3 1747.6C2004.7 1704.4 2012.1 1609.6 2012.1 1609.6" stroke="#263238" stroke-width="8.8" stroke-linecap="round" stroke-linejoin="round"/>
<path d="M2188.2 1645.7C2185.7 1659.9 2184.6 1674.3 2185 1688.6C2185.3 1700.7 2187.1 1713.7 2195.5 1722.3C2200 1726.9 2206.6 1730.6 2207.5 1737C2208.3 1742.7 2203.9 1747.9 2199.1 1751C2194.2 1754.1 2188.6 1756 2184.3 1759.8" stroke="#263238" stroke-width="8.8" stroke-linecap="round" stroke-linejoin="round"/>
<path d="M2122.9 1764.8C2122.9 1764.8 2127.7 1795.4 2168.7 1801.9" stroke="#263238" stroke-width="8.8" stroke-linecap="round" stroke-linejoin="round"/>
<path d="M2118.7 1685.1C2113.9 1685.1 2110.1 1677.9 2110.1 1669.1C2110.1 1660.2 2113.9 1653 2118.7 1653C2123.4 1653 2127.2 1660.2 2127.2 1669.1C2127.2 1677.9 2123.4 1685.1 2118.7 1685.1Z" fill="#263238"/>
<path d="M2241.1 1688.9C2236.4 1688.9 2232.6 1681.8 2232.6 1672.9C2232.6 1664 2236.4 1656.9 2241.1 1656.9C2245.9 1656.9 2249.7 1664 2249.7 1672.9C2249.7 1681.8 2245.9 1688.9 2241.1 1688.9Z" fill="#263238"/>
<path d="M2225 1634.1C2225 1634.1 2264.8 1594.3 2298.5 1638.7" stroke="#263238" stroke-width="17.6" stroke-linecap="round" stroke-linejoin="round"/>
<path d="M2140.7 1634.9C2140.7 1634.9 2115.5 1606.5 2075.6 1634.9" stroke="#263238" stroke-width="17.6" stroke-linecap="round" stroke-linejoin="round"/>
<path d="M2067 1823.6C2067 1823.6 2091.4 1890.8 2145.8 1909.9C2200.3 1929 2272.6 1830 2272.6 1830L2268.9 1817.1C2268.9 1817.1 2221.5 1878.7 2168.7 1868.2C2116 1857.7 2063.9 1786.3 2063.9 1786.3L2067 1823.6Z" fill="#263238"/>
<path d="M2018.1 1702.8C2018.1 1702.8 1985.6 1714.2 1977 1688.9C1968.4 1663.6 1938.8 1597 1964.7 1574.8C1990.6 1552.6 2011.4 1604.1 2011.4 1604.1" stroke="#263238" stroke-width="8.8" stroke-linecap="round" stroke-linejoin="round"/>
<path d="M2321.8 1716.6C2321.8 1716.6 2351.9 1722.6 2360.6 1697.3C2369.2 1672 2398.8 1605.4 2372.9 1583.2C2347 1561 2326.2 1612.5 2326.2 1612.5" stroke="#263238" stroke-width="8.8" stroke-linecap="round" stroke-linejoin="round"/>
<path d="M2011.4 1669.1C2020.4 1668.6 2035.1 1659.9 2039.9 1652.2C2044.6 1644.6 2046.6 1635.6 2048.1 1626.7C2051.1 1609.7 2052.6 1592.5 2052.7 1575.2C2052.7 1568.5 2052.5 1561.6 2054.5 1555.2C2056.5 1548.4 2060.8 1542.6 2065.3 1537.3C2076.7 1524 2090.3 1512.8 2101.1 1499.1C2111.9 1485.3 2119.8 1467.9 2116.9 1450.7C2116.9 1450.7 2190.5 1518 2296.7 1497.2C2353.8 1486 2408.7 1435.8 2402 1372.8C2399.6 1350.4 2383.1 1334.3 2361.7 1328.9C2333.5 1321.9 2308.1 1337 2282.5 1346.6C2235.8 1364.2 2190.2 1334 2143 1328.9C2102.7 1324.6 2053.2 1329.6 2032.2 1369.7C2032.2 1369.7 1959.8 1378.2 1928.1 1437.7C1896.4 1497.1 1956.7 1579.5 1956.7 1579.5C1956.7 1579.5 1980.9 1550.1 2012.1 1609.6L2011.4 1669.1Z" fill="#263238"/>
<path d="M2291.6 1477.4C2291.6 1477.4 2272.9 1575 2321.8 1622.3C2321.8 1622.3 2332.5 1593 2343.3 1585.8C2343.3 1585.8 2370.5 1534.2 2334.7 1477.4C2299 1420.7 2291.6 1477.4 2291.6 1477.4Z" fill="#263238"/>
<path opacity="0.2" d="M2381.1 1366.4C2373.9 1393.3 2351.2 1414.1 2325.4 1424.6C2257.5 1452.2 2191.6 1421.6 2123.7 1415.6C2068.2 1410.7 2007 1460.7 2003.1 1517.7" stroke="white" stroke-width="8.8" stroke-linecap="round" stroke-linejoin="round"/>
<path opacity="0.2" d="M1961 1502.6C1962 1457.8 1991.7 1414.8 2033.3 1398" stroke="white" stroke-width="8.8" stroke-linecap="round" stroke-linejoin="round"/>
<path d="M2048.2 1876.1C2048.2 1876.1 2092.9 1925.4 2153.9 1948.4C2153.9 1948.4 2235.1 1924.8 2276.4 1868.2" stroke="#263238" stroke-width="8.8" stroke-linecap="round" stroke-linejoin="round"/>
<path d="M2101.2 1740.9C2061.4 1740.9 2029.3 1708.8 2029.3 1669.1C2029.3 1629.3 2061.4 1597.2 2101.2 1597.2C2140.9 1597.2 2173 1629.3 2173 1669.1C2173 1708.8 2140.9 1740.9 2101.2 1740.9Z" stroke="#263238" stroke-width="8.8" stroke-linecap="round" stroke-linejoin="round"/>
<path d="M2261.7 1740.9C2222 1740.9 2189.9 1708.8 2189.9 1669.1C2189.9 1629.3 2222 1597.2 2261.7 1597.2C2301.5 1597.2 2333.6 1629.3 2333.6 1669.1C2333.6 1708.8 2301.5 1740.9 2261.7 1740.9Z" stroke="#263238" stroke-width="8.8" stroke-linecap="round" stroke-linejoin="round"/>
<path d="M2063.9 1849.3C2063.9 1849.3 2042 1853.7 2029.3 1876.1C2016.6 1898.5 2024.3 1969 2024.3 1969C2024.3 1969 2089.9 2034 2145.8 2061.4L2162.3 1968.6L2187.9 2061.4C2187.9 2061.4 2274.5 2000.1 2298.5 1948.4C2298.5 1948.4 2306.3 1888 2298.5 1868.2C2290.7 1848.4 2272.6 1849.3 2272.6 1849.3" stroke="#263238" stroke-width="8.8" stroke-linecap="round" stroke-linejoin="round"/>
<path d="M1961 2469.6C1961 2469.6 1935.4 2297.6 1901.2 2227.5" stroke="#263238" stroke-width="8.8" stroke-linecap="round" stroke-linejoin="round"/>
<path d="M1827.4 2074.8C1827.4 2074.8 1859.8 2120.3 1880.5 2163.7" stroke="#263238" stroke-width="8.8" stroke-linecap="round" stroke-linejoin="round"/>
<path d="M2501.8 2203.2C2510.9 2168.9 2520.5 2138.9 2530 2119.3" stroke="#263238" stroke-width="8.8" stroke-linecap="round" stroke-linejoin="round"/>
<path d="M2448.8 2469.6C2448.8 2469.6 2467.3 2351.7 2489.3 2254.5" stroke="#263238" stroke-width="8.8" stroke-linecap="round" stroke-linejoin="round"/>
<path d="M2480.2 2304.1C2497.8 2280.6 2523.4 2263.1 2551.7 2255.2" stroke="#263238" stroke-width="8.8" stroke-linecap="round" stroke-linejoin="round"/>
<path d="M2302 1932.7C2302 1932.7 2451.1 1992.3 2547.3 2026.1C2547.3 2026.1 2665.7 2137.5 2792.6 2523.1C2792.6 2523.1 2676.3 2718.8 2455 2781.5" stroke="#263238" stroke-width="8.8" stroke-linecap="round" stroke-linejoin="round"/>
<path d="M2493.5 2601.1L2600.4 2511.8C2600.4 2511.8 2656.9 2468.8 2715.7 2498.2" stroke="#263238" stroke-width="8.8" stroke-linecap="round" stroke-linejoin="round"/>
<path d="M2489.3 2293.4C2489.3 2293.4 2577.7 2423.6 2600.4 2511.8" stroke="#263238" stroke-width="8.8" stroke-linecap="round" stroke-linejoin="round"/>
<path d="M1885.2 2541.7L1853.9 2511.8C1853.9 2511.8 1807.5 2503.7 1754.9 2539" stroke="#263238" stroke-width="8.8" stroke-linecap="round" stroke-linejoin="round"/>
<path d="M1853.9 2511.8C1853.9 2511.8 1892.8 2384.2 1931.1 2318.3" stroke="#263238" stroke-width="8.8" stroke-linecap="round" stroke-linejoin="round"/>
<path d="M2022 1948.4C2022 1948.4 1807.5 2028.9 1786.5 2052.3C1765.4 2075.7 1685.5 2525.9 1683.4 2577.4C1681.5 2623.4 1848.6 2726.9 1931.1 2770.5" stroke="#263238" stroke-width="8.8" stroke-linecap="round" stroke-linejoin="round"/>
<path d="M2501.8 1680.2C2501.8 1651.5 2525.1 1628.2 2553.8 1628.2H2798.7C2827.5 1628.2 2850.7 1651.5 2850.7 1680.2V1824.1C2850.7 1852.8 2827.5 1876.1 2798.7 1876.1H2553.8C2525.1 1876.1 2501.8 1852.8 2501.8 1824.1V1680.2Z" fill="white" stroke="#263238" stroke-width="8.8" stroke-linecap="round" stroke-linejoin="round"/>
<path d="M2614.4 1702.8L2547.3 1744.9L2609.6 1800.1" stroke="#263238" stroke-width="8.8" stroke-linecap="round" stroke-linejoin="round"/>
<path d="M2736.7 1804.1L2797 1752.7L2727.4 1707.1" stroke="#263238" stroke-width="8.8" stroke-linecap="round" stroke-linejoin="round"/>
<path d="M2647 1835.7L2696.5 1680.4" stroke="#263238" stroke-width="8.8" stroke-linecap="round" stroke-linejoin="round"/>
<path d="M2168.3 2114.6C2160.5 2114.6 2154.2 2108.2 2154.2 2100.4C2154.2 2092.6 2160.5 2086.3 2168.3 2086.3C2176.1 2086.3 2182.4 2092.6 2182.4 2100.4C2182.4 2108.2 2176.1 2114.6 2168.3 2114.6Z" fill="#263238"/>
<path d="M2430.6 2854.2H1942.4C1936.1 2854.2 1931 2849.1 1931 2842.8C1931 2836.4 1936.1 2831.3 1942.4 2831.3H2430.6C2436.9 2831.3 2442 2836.4 2442 2842.8C2442 2849.1 2436.9 2854.2 2430.6 2854.2Z" fill="#263238"/>
<path d="M2447.6 2816.3L2513.1 2509.1C2517.4 2488.7 2501.9 2469.6 2481.1 2469.6H1910.8C1890.2 2469.6 1874.7 2488.4 1878.7 2508.6L1937.3 2805.6C1940.3 2820.6 1953.3 2831.6 1968.7 2831.9L2414.9 2842.1C2430.6 2842.5 2444.4 2831.6 2447.6 2816.3Z" fill="white" stroke="#263238" stroke-width="8.8" stroke-linecap="round" stroke-linejoin="round"/>
<path d="M2194 2692.1C2168.8 2692.1 2148.4 2671.8 2148.4 2646.6C2148.4 2621.4 2168.8 2601.1 2194 2601.1C2219.2 2601.1 2239.5 2621.4 2239.5 2646.6C2239.5 2671.8 2219.2 2692.1 2194 2692.1Z" fill="#263238"/>
<path d="M2329 2498.7H2396.8" stroke="#263238" stroke-width="8.8" stroke-linecap="round" stroke-linejoin="round"/>
<path d="M2005.4 2498.7H2262.6" stroke="#263238" stroke-width="8.8" stroke-linecap="round" stroke-linejoin="round"/>
<path d="M2448.8 3142.2L2396.8 3278.6C2396.8 3278.6 2264.2 3245.2 2094.3 3210.4C1916.7 3174 1731.1 3126.9 1634.9 2958C1623.2 2937.5 1615.4 2913.1 1620.9 2890.1C1634.8 2831.8 1710.6 2815.9 1760.6 2810.1C1792 2806.4 1823.7 2805.2 1855.3 2804.8C1871.4 2804.6 1924.5 2796.1 1937.3 2805.6C1937.3 2805.6 1970.7 2830.1 1999.1 2842.2C2027.5 2854.2 2442 2831.3 2442 2831.3C2442 2831.3 2454.3 2805.3 2455 2781.5C2520.2 2748.4 2671.1 2720.4 2734.9 2732.8C2835.1 2752.3 2893.6 2810.7 2882.5 2872C2871.3 2933.3 2650.1 3097.6 2448.8 3142.2Z" fill="#263238"/>
<path d="M2448.8 3142.2C2448.8 3142.2 2322.7 3108.7 2219.6 3039.1C2116.6 2969.5 2036.1 2888.7 1892.5 2905.4" stroke="white" stroke-width="8.8" stroke-linecap="round" stroke-linejoin="round"/>
<path d="M2195.9 3022.7C2261 3004 2308.8 2961.9 2361 2921.4C2416.3 2878.6 2474.8 2837.1 2537.8 2805.3" stroke="white" stroke-width="8.8" stroke-linecap="round" stroke-linejoin="round"/>
<path d="M2173 1680.4H2192.1" stroke="#263238" stroke-width="8.8" stroke-linecap="round" stroke-linejoin="round"/>
</g>
<defs>
<clipPath id="clip0_119_2">
<rect width="3516" height="3444" fill="white"/>
</clipPath>
</defs>
</svg>
