<svg width="432" height="535" viewBox="0 0 432 535" fill="none" xmlns="http://www.w3.org/2000/svg">
<path fill-rule="evenodd" clip-rule="evenodd" d="M100.909 379.269L49.597 468.144C48.577 469.91 48.68 471.985 49.871 473.641C51.061 475.297 52.994 476.056 54.994 475.653L118.8 462.774C120.012 462.525 121.272 462.728 122.344 463.347C123.415 463.965 124.222 464.955 124.612 466.129L145.362 527.826C146.012 529.759 147.636 531.054 149.666 531.256C151.696 531.459 153.544 530.511 154.564 528.745L210.319 432.175C218.872 433.319 227.596 433.92 236.462 433.92C245.328 433.92 254.052 433.318 262.604 432.175L320.504 532.461C321.524 534.227 323.372 535.175 325.402 534.972C327.432 534.769 329.056 533.475 329.706 531.541L350.456 469.844C350.846 468.67 351.653 467.68 352.724 467.062C353.796 466.443 355.056 466.239 356.268 466.488L420.074 479.367C422.073 479.771 424.006 479.011 425.197 477.355C426.388 475.699 426.491 473.624 425.471 471.858L372.014 379.268C408.942 343.711 431.923 293.771 431.923 238.459C431.92 130.511 344.409 43 236.46 43C128.511 43 41 130.511 41 238.46C41 293.772 63.981 343.712 100.909 379.269ZM339.003 256.644C317.389 256.644 306.545 282.828 321.827 298.11C323.179 299.462 323.939 301.296 323.939 303.208C323.939 305.12 323.179 306.954 321.827 308.306L306.306 323.827C304.954 325.179 303.12 325.939 301.208 325.939C299.296 325.939 297.462 325.179 296.11 323.827C280.828 308.545 254.644 319.389 254.644 341.002C254.644 342.914 253.884 344.748 252.532 346.1C251.18 347.451 249.346 348.211 247.434 348.211H225.485C224.538 348.211 223.601 348.025 222.726 347.663C221.851 347.3 221.057 346.769 220.387 346.1C219.718 345.43 219.187 344.636 218.824 343.761C218.462 342.886 218.276 341.949 218.276 341.002C218.276 319.362 192.111 308.525 176.809 323.827C175.457 325.179 173.623 325.939 171.711 325.939C169.799 325.939 167.965 325.179 166.613 323.827L151.092 308.306C149.74 306.954 148.98 305.12 148.98 303.208C148.98 301.296 149.74 299.462 151.092 298.11C166.374 282.828 155.529 256.644 133.916 256.644C132.969 256.644 132.032 256.458 131.157 256.096C130.282 255.733 129.488 255.202 128.818 254.533C128.149 253.863 127.618 253.069 127.255 252.194C126.893 251.319 126.707 250.382 126.707 249.435V227.486C126.707 225.574 127.466 223.74 128.818 222.388C130.17 221.036 132.004 220.276 133.916 220.276C155.529 220.276 166.373 194.092 151.092 178.81C149.74 177.458 148.98 175.624 148.98 173.712C148.98 171.8 149.74 169.966 151.092 168.614L166.613 153.093C167.282 152.423 168.077 151.892 168.952 151.53C169.827 151.168 170.764 150.981 171.711 150.981C172.658 150.981 173.595 151.168 174.47 151.53C175.345 151.892 176.14 152.423 176.809 153.093C192.091 168.375 218.276 157.531 218.276 135.917C218.276 134.97 218.462 134.033 218.824 133.158C219.187 132.283 219.718 131.489 220.387 130.819C221.057 130.15 221.851 129.619 222.726 129.256C223.601 128.894 224.538 128.708 225.485 128.708H247.434C249.346 128.708 251.18 129.467 252.532 130.819C253.884 132.171 254.644 134.005 254.644 135.917C254.644 157.531 280.828 168.375 296.11 153.093C296.779 152.423 297.574 151.892 298.449 151.53C299.324 151.168 300.261 150.981 301.208 150.981C302.155 150.981 303.092 151.168 303.967 151.53C304.842 151.892 305.637 152.423 306.306 153.093L321.827 168.614C323.179 169.966 323.939 171.8 323.939 173.712C323.939 175.624 323.179 177.458 321.827 178.81C306.545 194.092 317.389 220.276 339.003 220.276C340.915 220.276 342.749 221.036 344.101 222.388C345.453 223.74 346.212 225.574 346.212 227.486V249.435C346.212 250.382 346.026 251.319 345.664 252.194C345.301 253.069 344.77 253.863 344.101 254.533C343.431 255.202 342.637 255.733 341.762 256.096C340.887 256.458 339.95 256.644 339.003 256.644ZM236.46 192.485C261.851 192.485 282.435 213.069 282.435 238.46C282.435 263.851 261.851 284.435 236.46 284.435C211.068 284.435 190.485 263.851 190.485 238.46C190.485 213.069 211.068 192.485 236.46 192.485ZM236.46 81.528C323.131 81.528 393.393 151.789 393.393 238.461C393.393 325.132 323.131 395.393 236.46 395.393C149.789 395.393 79.527 325.132 79.527 238.46C79.527 151.789 149.789 81.528 236.46 81.528Z" fill="#C3FF45" fill-opacity="0.4"/>
<path fill-rule="evenodd" clip-rule="evenodd" d="M59.909 336.269L8.597 425.144C7.577 426.91 7.68 428.985 8.871 430.641C10.061 432.297 11.994 433.056 13.994 432.653L77.8 419.774C79.0115 419.525 80.2725 419.728 81.3437 420.347C82.415 420.965 83.2221 421.955 83.612 423.129L104.362 484.826C105.012 486.759 106.636 488.054 108.666 488.256C110.696 488.459 112.544 487.511 113.564 485.745L169.319 389.175C177.872 390.319 186.596 390.92 195.462 390.92C204.328 390.92 213.052 390.318 221.604 389.175L279.504 489.461C280.524 491.227 282.372 492.175 284.402 491.972C286.432 491.769 288.056 490.475 288.706 488.541L309.456 426.844C309.846 425.67 310.653 424.68 311.724 424.062C312.796 423.443 314.056 423.239 315.268 423.488L379.074 436.367C381.073 436.771 383.006 436.011 384.197 434.355C385.388 432.699 385.491 430.624 384.471 428.858L331.014 336.268C367.942 300.711 390.923 250.771 390.923 195.459C390.92 87.511 303.409 0 195.46 0C87.511 0 0 87.511 0 195.46C0 250.772 22.981 300.712 59.909 336.269ZM298.003 213.644C276.389 213.644 265.545 239.828 280.827 255.11C282.179 256.462 282.939 258.296 282.939 260.208C282.939 262.12 282.179 263.954 280.827 265.306L265.306 280.827C263.954 282.179 262.12 282.939 260.208 282.939C258.296 282.939 256.462 282.179 255.11 280.827C239.828 265.545 213.644 276.389 213.644 298.002C213.644 299.914 212.884 301.748 211.532 303.1C210.18 304.451 208.346 305.211 206.434 305.211H184.485C183.538 305.211 182.601 305.025 181.726 304.663C180.851 304.3 180.057 303.769 179.387 303.1C178.718 302.43 178.187 301.636 177.824 300.761C177.462 299.886 177.276 298.949 177.276 298.002C177.276 276.362 151.111 265.525 135.809 280.827C134.457 282.179 132.623 282.939 130.711 282.939C128.799 282.939 126.965 282.179 125.613 280.827L110.092 265.306C108.74 263.954 107.98 262.12 107.98 260.208C107.98 258.296 108.74 256.462 110.092 255.11C125.374 239.828 114.529 213.644 92.916 213.644C91.9693 213.644 91.0318 213.458 90.1571 213.096C89.2824 212.733 88.4876 212.202 87.8182 211.533C87.1487 210.863 86.6177 210.069 86.2555 209.194C85.8932 208.319 85.7069 207.382 85.707 206.435V184.486C85.707 182.574 86.4665 180.74 87.8184 179.388C89.1703 178.036 91.004 177.276 92.916 177.276C114.529 177.276 125.373 151.092 110.092 135.81C108.74 134.458 107.98 132.624 107.98 130.712C107.98 128.8 108.74 126.966 110.092 125.614L125.613 110.093C126.282 109.423 127.077 108.892 127.952 108.53C128.827 108.168 129.764 107.981 130.711 107.981C131.658 107.981 132.595 108.168 133.47 108.53C134.345 108.892 135.14 109.423 135.809 110.093C151.091 125.375 177.276 114.531 177.276 92.917C177.276 91.9703 177.462 91.0328 177.824 90.1581C178.187 89.2834 178.718 88.4886 179.387 87.8192C180.057 87.1497 180.851 86.6187 181.726 86.2565C182.601 85.8942 183.538 85.7079 184.485 85.708H206.434C208.346 85.708 210.18 86.4675 211.532 87.8194C212.884 89.1713 213.644 91.005 213.644 92.917C213.644 114.531 239.828 125.375 255.11 110.093C255.779 109.423 256.574 108.892 257.449 108.53C258.324 108.168 259.261 107.981 260.208 107.981C261.155 107.981 262.092 108.168 262.967 108.53C263.842 108.892 264.637 109.423 265.306 110.093L280.827 125.614C282.179 126.966 282.939 128.8 282.939 130.712C282.939 132.624 282.179 134.458 280.827 135.81C265.545 151.092 276.389 177.276 298.003 177.276C299.915 177.276 301.749 178.036 303.101 179.388C304.453 180.74 305.212 182.574 305.212 184.486V206.435C305.212 207.382 305.026 208.319 304.664 209.194C304.301 210.069 303.77 210.863 303.101 211.533C302.431 212.202 301.637 212.733 300.762 213.096C299.887 213.458 298.95 213.644 298.003 213.644ZM195.46 149.485C220.851 149.485 241.435 170.069 241.435 195.46C241.435 220.851 220.851 241.435 195.46 241.435C170.068 241.435 149.485 220.851 149.485 195.46C149.485 170.069 170.068 149.485 195.46 149.485ZM195.46 38.528C282.131 38.528 352.393 108.789 352.393 195.461C352.393 282.132 282.131 352.393 195.46 352.393C108.789 352.393 38.527 282.132 38.527 195.46C38.527 108.789 108.789 38.528 195.46 38.528Z" fill="#C3FF45"/>
</svg>
