<svg width="544" height="489" viewBox="0 0 544 489" fill="none" xmlns="http://www.w3.org/2000/svg">
<path d="M301.688 233.11C279.473 236.048 268.652 262.674 265.32 263.115C262.401 263.501 245.61 240.525 222.4 243.593C199.826 246.579 183.85 267.634 185.622 290.338C186.629 303.166 192.015 312.315 198.962 320.331C212.84 336.342 268.962 371.885 279.592 370.481C290.449 369.046 334.973 320.351 344.264 301.121C348.9 291.535 351.718 281.34 349.351 268.694C345.161 246.307 324.263 230.123 301.688 233.11ZM435.482 338.101C419.656 332.027 402.848 345.818 400.47 344.907C398.396 344.113 395.535 322.773 378.999 316.429C362.91 310.257 344.689 318.483 337.668 334.217C333.703 343.105 333.977 351.132 335.699 358.969C339.141 374.624 363.604 418.52 371.178 421.426C378.91 424.393 426.091 408.111 439.22 398.685C445.764 393.99 451.313 388.231 454.313 378.971C459.613 362.576 451.568 344.271 435.482 338.101ZM195.187 152.238H448.201C453.007 152.238 456.923 148.324 456.923 143.514V132.767C456.92 130.455 456 128.238 454.365 126.603C452.73 124.967 450.514 124.047 448.201 124.043H195.187C192.874 124.046 190.656 124.966 189.021 126.601C187.385 128.237 186.465 130.454 186.462 132.767V143.514C186.465 145.827 187.385 148.045 189.02 149.681C190.656 151.316 192.874 152.236 195.187 152.238ZM447.953 180.384H352.875C350.562 180.387 348.345 181.307 346.709 182.942C345.074 184.578 344.154 186.795 344.151 189.108V199.855C344.151 204.664 348.064 208.578 352.875 208.578H447.953C450.265 208.574 452.482 207.654 454.117 206.019C455.752 204.384 456.672 202.167 456.675 199.855V189.108C456.673 186.795 455.753 184.578 454.117 182.943C452.482 181.307 450.265 180.387 447.953 180.384Z" fill="#C3FF45" fill-opacity="0.4"/>
<path d="M511.867 53H134.019C116.303 53 101.89 67.4143 101.89 85.1328L101.9 336.198C101.9 338.363 101.859 342.244 101.029 340.916C99.0639 337.771 61.1964 186.448 60.239 182.816C60.206 182.652 60.1859 182.487 60.1789 182.321C60.3187 182.294 60.506 182.277 60.7464 182.277H77.267C81.9269 182.277 86.9418 179.643 86.9418 173.862V162.499C86.9418 156.715 81.9409 154.081 77.2488 154.081H60.7464C51.7467 154.081 43.5115 157.875 38.1556 164.489C32.7996 171.103 30.8024 179.946 32.7032 188.866L100.27 460.267C101.775 467.345 104.483 472.463 108.319 475.487C114.383 483.56 123.95 488.366 134.02 488.366H511.867C529.584 488.366 544 473.952 544 456.234V85.1328C544 67.4143 529.584 53 511.867 53ZM130.086 85.1328C130.086 83.0349 131.922 81.1969 134.019 81.1969H511.867C513.964 81.1969 515.806 83.0349 515.806 85.1328V456.232C515.805 457.276 515.389 458.277 514.651 459.015C513.912 459.752 512.911 460.167 511.867 460.168H134.019C132.975 460.167 131.975 459.751 131.238 459.013C130.501 458.276 130.086 457.275 130.086 456.232V85.1328Z" fill="#C3FF45" fill-opacity="0.4"/>
<path d="M269.688 180.11C247.473 183.048 236.652 209.674 233.32 210.115C230.401 210.501 213.61 187.525 190.4 190.593C167.826 193.579 151.85 214.634 153.622 237.338C154.629 250.166 160.015 259.315 166.962 267.331C180.84 283.342 236.962 318.885 247.592 317.481C258.449 316.046 302.973 267.351 312.264 248.121C316.9 238.535 319.718 228.34 317.351 215.694C313.161 193.307 292.263 177.123 269.688 180.11ZM403.482 285.101C387.656 279.027 370.848 292.818 368.47 291.907C366.396 291.113 363.535 269.773 346.999 263.429C330.91 257.257 312.689 265.483 305.668 281.217C301.703 290.105 301.977 298.132 303.699 305.969C307.141 321.624 331.604 365.52 339.178 368.426C346.91 371.393 394.091 355.111 407.22 345.685C413.764 340.99 419.313 335.231 422.313 325.971C427.613 309.576 419.568 291.271 403.482 285.101ZM163.187 99.2385H416.201C421.007 99.2385 424.923 95.3236 424.923 90.5141V79.7673C424.92 77.4549 424 75.2379 422.365 73.6025C420.73 71.9671 418.514 71.0467 416.201 71.043H163.187C160.874 71.0456 158.656 71.9656 157.021 73.6011C155.385 75.2367 154.465 77.4543 154.462 79.7673V90.5141C154.465 92.8273 155.385 95.0451 157.02 96.6807C158.656 98.3164 160.874 99.2362 163.187 99.2385ZM415.953 127.384H320.875C318.562 127.387 316.345 128.307 314.709 129.942C313.074 131.578 312.154 133.795 312.151 136.108V146.855C312.151 151.664 316.064 155.578 320.875 155.578H415.953C418.265 155.574 420.482 154.654 422.117 153.019C423.752 151.384 424.672 149.167 424.675 146.855V136.108C424.673 133.795 423.753 131.578 422.117 129.943C420.482 128.307 418.265 127.387 415.953 127.384Z" fill="#C3FF45"/>
<path d="M479.867 0H102.019C84.3029 0 69.89 14.4143 69.89 32.1328L69.8998 283.198C69.8998 285.363 69.8593 289.244 69.029 287.916C67.0639 284.771 29.1964 133.448 28.239 129.816C28.206 129.652 28.1859 129.487 28.1789 129.321C28.3187 129.294 28.506 129.277 28.7464 129.277H45.267C49.9269 129.277 54.9418 126.643 54.9418 120.862V109.499C54.9418 103.715 49.9409 101.081 45.2488 101.081H28.7464C19.7467 101.081 11.5115 104.875 6.15558 111.489C0.799649 118.103 -1.19764 126.946 0.703209 135.866L68.2701 407.267C69.7754 414.345 72.4827 419.463 76.3194 422.487C82.3825 430.56 91.9497 435.366 102.02 435.366H479.867C497.584 435.366 512 420.952 512 403.234V32.1328C512 14.4143 497.584 0 479.867 0ZM98.0855 32.1328C98.0855 30.0349 99.9221 28.1969 102.019 28.1969H479.867C481.964 28.1969 483.806 30.0349 483.806 32.1328V403.232C483.805 404.276 483.389 405.277 482.651 406.015C481.912 406.752 480.911 407.167 479.867 407.168H102.019C100.975 407.167 99.9755 406.751 99.2381 406.013C98.5008 405.276 98.0863 404.275 98.0855 403.232V32.1328Z" fill="#C3FF45"/>
</svg>
