<svg width="40" height="40" viewBox="0 0 40 40" fill="none" xmlns="http://www.w3.org/2000/svg">
<path d="M28.7982 18.1161L28.7986 18.1167C30.0644 19.9254 30.7335 22.0494 30.7335 24.2653C30.7335 27.3126 29.4303 30.2285 27.1583 32.2633L27.1583 32.2633C25.1611 34.0521 22.6662 35 20.0182 35C19.6076 35 19.1936 34.9773 18.7759 34.9313C13.7909 34.3807 9.81071 30.3502 9.31999 25.3535L9.31998 25.3535C9.06681 22.7771 9.73684 20.2074 11.2007 18.1166L11.201 18.1163C11.2734 18.0128 11.3985 17.8482 11.5157 17.6971C11.5722 17.6242 11.6235 17.5588 11.6607 17.5116L11.7 17.4618C17.2383 11.3623 19.2773 7.38484 19.9994 5.55858C20.721 7.38386 22.7574 11.3582 28.276 17.4333C28.2858 17.4455 28.3033 17.4674 28.3289 17.4998C28.3694 17.551 28.423 17.6191 28.481 17.6937C28.6011 17.8484 28.7261 18.0129 28.7982 18.1161Z" stroke="#222222" stroke-width="2"/>
<path d="M13.7334 22.9961C14.1134 26.8597 17.3071 30.0949 21.1613 30.5212" stroke="#222222" stroke-width="2"/>
</svg>
