<svg width="40" height="40" viewBox="0 0 40 40" fill="none" xmlns="http://www.w3.org/2000/svg">
<rect x="5" y="5" width="30" height="30" rx="2" stroke="#222222" stroke-width="2"/>
<path d="M15.6739 28H24.328V27.1314C23.9926 26.979 23.6068 26.8495 23.1708 26.7429C22.7515 26.6362 22.3238 26.5448 21.8878 26.4686V13.4857H24.806L26.4161 16.4419H27.4475L27.8249 14.7657C27.8752 14.2629 27.9171 13.7676 27.9507 13.28C27.9842 12.7924 28.001 12.3657 28.001 12H12.001C12.001 12.3505 12.0177 12.7771 12.0513 13.28C12.0848 13.7676 12.1268 14.2629 12.1771 14.7657L12.5544 16.4419H13.5859L15.1959 13.4857H18.1142V26.4686C17.6781 26.5295 17.2421 26.6286 16.806 26.7657C16.3867 26.8876 16.0094 27.0095 15.6739 27.1314V28Z" fill="#222222"/>
</svg>
